<mxfile host="app.diagrams.net" modified="2023-06-02T12:47:24.281Z" agent="Mozilla/5.0 (Windows NT 10.0; Win64; x64) AppleWebKit/537.36 (KHTML, like Gecko) Chrome/113.0.0.0 Safari/537.36" etag="eY-GlCweEXDpmdHktFfa" version="21.3.7" type="github">
  <diagram name="Page-1" id="jUqbk2NUpxt_yp6p083N">
    <mxGraphModel dx="794" dy="470" grid="1" gridSize="10" guides="1" tooltips="1" connect="1" arrows="1" fold="1" page="1" pageScale="1" pageWidth="850" pageHeight="1100" math="0" shadow="0">
      <root>
        <mxCell id="0" />
        <mxCell id="1" parent="0" />
        <mxCell id="zKgIJX_qSR_OyIrzCmwO-1" value="" style="rounded=0;whiteSpace=wrap;html=1;strokeColor=none;" vertex="1" parent="1">
          <mxGeometry x="30" y="40" width="770" height="400" as="geometry" />
        </mxCell>
        <mxCell id="zKgIJX_qSR_OyIrzCmwO-2" value="" style="shape=image;verticalLabelPosition=bottom;labelBackgroundColor=default;verticalAlign=top;aspect=fixed;imageAspect=0;image=data:image/png,iVBORw0KGgoAAAANSUhEUgAAAbIAAAGdCAYAAAB3ifb/AAAABHNCSVQICAgIfAhkiAAAIABJREFUeF7svQtclFX+P/5mBmYcGK4ygDDcEQQxbpKQ6zXSzcKv3zW31fx1z8qtXXe1ta22Nsv276bfdde2+83WsiJbVzcts7yQgZoCqSDKVS4hg1wHhkEY/p9nLjAMw8wzOCCj57wiZ545zzmf8z7Pcz7n8znnfN5OSmVXL1hiCDAEGAIMAYaAgyIgcFC5mdgMAYYAQ4AhwBDQIsAUGXsQGAIMAYYAQ8ChEWCKzKG7jwnPEGAIMAQYAkyRsWeAIcAQYAgwBBwaAabIHLr7mPAMAYYAQ4AhwBTZFTwDLVk7kb25GN1XUMao3FrwHY6sOoSGy6NS23Vdyf4/TEHK7/dZx6BtN1amzMXGAutZRzJH0aa5SHk0C20jWcmotLUa7981BUveKh3Jlgy/7DObsTDlHmxvGH4R7M6hEXBARaZGQ9kJnDh6AAe/2YP9R86i+SodIBCFhcA3znPgjpmy4zi2cidKKweCrjmdiyMrd6OidujOGLFffGSQTQ3AOAfsbZswac7CA5xyOGPTXVcns0iOGzPnI9bn6lRvqNV9ynzcnh4F0XDF2L8aKelP43CPhQJGpa0eiJixEBkTPSwIwvMndQ7Wz5+KlZ8peN5A2dR52P6nFVieORUp8dFI/9NB/vfamDP/JZp8PDbMyccoymljs64ou/MV3X1Vbtagu0cEj4AI+LSUoXREp5KWGyhJTUasaZbQYHh5FKO5UAmESvt+bSuqQ7eMFJ+/6Q2j8D04BtHLR6EeVgV/BMRJuPfPSfzzj1BO+by1eH6Eyu4rdlTa6oGZj6zHTDu0pWHPe/gvFmJzpox/aV2dUIvikHHPLYj9+Gm6f4wmR5HTRvgcUJFJEDBxCgKooW0llTYrsq6CApz/shytNSp0aYSQRIRAviQVgcFCHXRlJ3Hs/+rgPscNypMX0dUuxLikBMQui4Kriy6LcudunNjbovsSm4rpq2LQB6RQBt8YES4W16HrVsNMV4nm80pIYoMh1VcDdSNqs46jOq8RKjUnRziClyVjQoAhAxXPuQTf6UH4Ch9c2nEOzRe7IPAORMSaWZjgDXSXFaL44yI0VqsAkQTjQsIR/mAyfA2T0qJc5GwuQRcnqTgYkzfNgq++DYbnZEAZbp7wmpGMmIVBuhl6Tx3OPXkAqunJEBVTPYQZxgcj/KF0BAYayckVpm5FQ7MaYi8Z3MWG0vn92/DRPZi/XY7H5yvw+b9PoqbVA4n3rMfmx9Lhri9CXbUPWzb8Df89Woo2ZzliM+7H008tR6yEMtS8g+ULNiBfbxUcvTMa73P3CdPx/KGtmLd/BWZvjcO2nasQayJ2wydU9+fTkPXJSkQ05OCNlzZge3YhGiBDItWx5qkHkGgQgisz+2mk/74Fa/4vDtl//xDZ51shCpyHNe9vwuJBk5RWHP373Vi1JxLPvLsJtwXR/T37sOrGx7BfzRUmx70ffos1CdxnfTpLLqi7cjBzdTKKtu9CYZ0asumPYsNfHtC1lcumKsT2dU/hjX2EhW8ylt4VSfWcwW07P8G9wUZlWfhY9sqtWPi63g03Yz1yXlvSh7XuNjXK/r0O69/8Cvm1aoi85YibvRLP/zmTpKbu3r0CN/3xILTNoLQyIUv3YdIq7PqMsOS+WWsrZWkr2IYX//ouDp+tRpd7HGb8ai2eeSQdvrrSePxfge33T8f6Y7qssb/di6yHIgfex6dfDXf0ELZbcxD5q72Ypn+OGz5bgflvyfHOnmeRaHh+VPuw9panoH72W2yeRy+cezru/VM6lULy7BnqBehEzZ6nsXzrLhTRMx7781VY98wSRPRlb0X+B89j44eHUET9LgpPx7JV6/H4bJ1CPfwnshL/3aqXlJ7D+Ke1n+XLPsGXT3GTIt39Wz7PRWGVAl1kCcfOvgtr1tIz7KW/jZecBjAc599r3dk0qCe623swLi0FcU9m4sbn5iAsQIHSfx5Ho+GN5O7QNKLxYgAm//mXmP7idHhUHMeZXf1uBumiTMx6YzkNdFIzB/GE8LrBH4KKGrQaylTWoblWAq8Egx9Jido396P8JxnCfr1AK0ewXx1KXjmJZtN1rO6LqPyiHb73Z2L63xcjaWkEXLmXqUeB8ncL0BGSgqR1izH1yZkITxpH142aHJuGdJJz1sowOJvr6dYKFP+TyghKwA3PL0LSsiB0fXsYhfvJmuxLPWj+oQmyB6j+TZkI96lF6c7yQeuCDTsfx+yb5+LF7EGQ87qgvvAVst1W4cNvfsDBf86H4r11eN/gImw+iJcefApH/e/H5k+/xX/eexLTKjbj0XX7dGs7QQ9gW8E5nP5uPQ0+pBw+oc+n6a9gKxbTC+yemIigukIUDrLe1Sg8fQbu8Uk08FZj+x9W4P2L6Xhm+7f48v0nEVlEdTy3m5SaSerKxZY3G3DLi3vx/bEj+PDZ+YgcNHZxSuwhrPrSSIlxxQjnYfMJki1nE2YOukdfT3ce/vtDBJ7+7Ahy9r6EWJJjfVa1/kc1jm58DBvzI/H4u3vxn7/fgbZdWSiycaE24rG9Woyy7pPDrBhV2/DsiznwfeAt/Oebb5H1+losoBFXOymiJM58Eyc4jDdnQuy+BK9y+HPfDUqMy2Strc278affbkDRxN/h3Z1UxzPpaNi6Ams/MrRVX5nFf2RY+i5XNzchMNcSG/qV6mk78A52NMzDvXdw6lqXfGffgmmNB/HFj/2CqI98hcOYRW5ZG1yZ1K/bvxDj3n9Sv739KHyPrcPKv+f1TQbK3nsIj37Yhhl//AD/2bMTry13xxd/fAhvlOjqnfnCD1qMty2jPptNkw8Ob/rTKTEuDy27dPgh47FXtHj+571nMe3ia/Se7B7ZNdB+WK7aJ3PD21UTZjQqdr0pGZGzguEZKIVEJoPf7dHwUCrQVGdcuwR+82J0Fpg0AKEzfdB5vALNltYBjG4XxIXCQ9OAxgrdRc35GijF/vCN0k/nKs+hptgToWQ9+UV4auWYsGQKfJQXUK9/aPuLE2L8olRMCBZB4CKCazzJzr07mk500eRsXFQgpL4SSALIEpwTB1+y1PimroISNCIQ4b+KgqdMCmkSYZMmQcuRUhirMun0ePj6kuwuUvil0OzwQhOUPLHgK4vYfT7uWRantQrcUzIx068a+UW62Wf1ntfwX8lybHhqCRLD5ZBPmofHf78Q4w7uwmEyEq2m8DgkuZ3Bj0VczlLseOFpvF/AzTKqUVSkRlziZKB8Fz4vkGHxmrXIiKI6JmfiqcfmAYc+w6FBmswDt/x+LW6b5AGxmNZm0uf1z3i1wrTgsFaJyfHM23pLzKqQxhnkuP0B/Uzddx5uu1GMotOFugzqQ/h8jwLTVjyHxQkcFplYc/8s88rIpjpNMjfUEDpklc5IgtxXRvXMxuK75+ksrSsp1+jetv27kd09D79Zm4nYYDkiMtZizf/KkP/5LpTZqQ7b+rUaO7bug8eSB5BhbIX7zsbNUxXI3punl0qN7G8OATfNxwzjfFZlluH2x+j5mkT9lrAcz9yfDMWez3SehJ4cbN1aimm/3YiHZ8dBHhSJxDuexEPxpfjiS33f8yg/45G1WJqRpMWT67MVy2YBJ8lCs/P7alWUUc7ggK7FK0NIU1uB0k9P0YaRFnT1WWESuBpbQgJScuP76xHJ3CBQtqCDpqNenCvLWpL4Y3xEFymrRiDGB61FNBLG3AgvvVuvu4bKukyW4JPbaFgdmHxauCfOyP8l8IF7mIk/jLvFxR8T0qQ4s203juf6wyvMB94pUfAlhcc3qepIXY2PhKvRRFYaQut63zejk/CQaqc5QnIr9TdaIKaLl9XQmFTie+dWnL6Tb81m8nnThhTD0ygUw92N5pcdnCLzQFlRKdQleViY8OrAG4VJaCWIwbnsLCVhMm6IbcXHp2mmH/AV/r1rF1rFd+DeiGoUVEYiIZ5mBtXcwB0F0ul9SRwTh0h8iPIaumTs63KOQ+Ikc7N/3a3q7HX43Tf0cE2ahQj+PrL+ip1lCDK6TyyiutrU2pm7uL4KNV2kYKL7LQH36CgEOduwMcESVobf4jKxdNIubFx8K/bflI5EslozFpDCGU57hqivupJmbaF3YZLROxU5kTogqxRl9BpEmHnshyhq6Ms29Kv62Lv4uCQdD22MMylPhnnz0vHS67uRvzYJiV05+Jo8DzP/bOMEglzi4f1+RPiGR8K9jdraBEwjd3FpE7kG/zAV8X8YWL17kH4ZY+hW9v1SfXAzNr62C0dLqrlHRpckmde8RXZ9KTLOHfdqDppCkhH3PFkh3vSmqEpQ8EQBei3NWLjfuJHbUp4BD5kE3vE+KM2rg4ruaT7fA4/55G40yiOQhmHyX38GH2svq0AAoVm7WQSfZZmYNqMGl4ouormgCEX7ziHgt5mYGGOtUB5vhHEWOxdntnYrdYhnb8L3r5Aby+zN1i56ICkhEhuL8lDtnQ8sWQ55QQ5ZYw0o80jGPSF0vy3eLIEYYkvzBZ952PB/s/H1b57Cs6+nY9tvk2yUm1zEVzvRBo2HP/gWt5w4hKMn85C9ndbkth7E5h2bkGFYbxlBGS3BOzLVKvDfD3YBC7bg9kFrneQlmEPuxb++Ru7FZxHbslvrVnxh+vCexiHld47Ewx/txePkIBhWqnoHTz6RBY+VG5H1q3TIuQnCwdVIf2JYpTnUTWaHSIdqgS3CtjeirZmUTEaMTolx9/7UBLWpeaFpQVtNv9bqqG1Ft4cnXPlYY3p5JAmBcK0hBVNL62NNPhgf1/9qOgd5QqxqQpMtg+cQ7RQFB2HCPNo9+UQGggNVaDrNf/Ym8SPr61IjOozWB5UXOCvNC+NMNoUMUX3/ZZWCjBpF/yzQ6g38M0TERgK0ceUoDzeidmgxLOQYVRGRMBliKuPj7+sxbf5dmOF6FJ/vP4OW2CTEcUpUHkSbGEpQbuTTUhfTLBnBCLJm8Zk0RTx5PjLINfnMnxai7YOnsCXPeAGWf7vN5vQjeUQKlJ0zLPqTsXauBDXm1sh6aANOTTUaBq0Nmi158EUhuU1vJMvskWfx6vZnMbP5ELJPmWSjqbAI5OYefLfVK/JQsr4qC3HWqF9Lz3NWWiTkJhMbdbPu+bIZSb79evZDbD0aiV/dm25+0uE1H7eltJJ78SCyv8oFZmRihg3jgRaM7mp6vvpb0FBOm3XcyaXKLQf4kfXvXo2jJ3gMCpz5YW5SXZyHIvFs/OpuvRKjbNXlZJlZ7QnHz+CQiqxb1Yq21ia0d1Fv9naivZW+t6kGbUAY1D0SUkZSFdqLGnWuMRp8K2njAmc1DUxdaNh1EvVVSnSU0GD2bSMkqWHwsGI1DChDFoTxvo1o+KoW7SHB/TsJuUyh0ZDHqlD77neoLmqBqqEFLbReVfo21Wm8OGUqlvF3dQ0qPy5EPecibVWho6AUzQ20+zGof8u/pdu530RJUfBCLco/rkCLQgll3kmU5qogTQ8D/1J0tTTsWoOfzx/+Zg9LssoX0JoFduGlP76j3d1WXV6Io7tfxXMvZQ00pGhQCPJS4Oi3OWhQkSvOuF9jExFXvws7zifjxng5pt3Yif/+u5DWKnTrcghfiF8kKLDjrxuwn9wy1Wd246VX6GDzjDtwyzDdae6z1+KpTDW2P7UBR+01mohn4RcLZDj65vPYcYaUVMk+/GMrDazmUvk2PLpgLpZvMaztmMs0xDXaTbjxLXKllSvQ0EAD7K6vUSiIRHiYSX55MGRdZLEdqIZaTYP0oHdpiPLpsvtsUgYg+TfsRhEp3DLOLfZvBWIXzh+0Fpe9bi5+vmAN/ts8dHlmf+HVr63Y/24WWuc8gMXBZkuhi7S9f34aWvZtwD8OAvPmmyo82mhBz2XR2TNoaCcc2mj99Wwhymr6JxzcjsZ9r2/WPV/cbs13T0K24A7dTkhxOu65Jw5Fr63G+t15dB/hkbcP2zetxhs5A2WS0xEfFB3CvvJWwpx+M2AuJxezinZd/6irU12ehY3bTPuej5xDYTB2rzuga1GDhvPf43S9wYxSoeg4nTIW+CN+dgoCLKlmlwCE0cNS/OF+5BwU0t4FT3jPjoFXmckOC4EMAUlqVG3eDeVlEaQpaYhfKNO5BskVeWp1Lhr7XtjjOPLwcephKQKfWATOxa9LtGZFe70rv1FAuijN5MAp5V2RAeygreZv70EpzUidvT3hMTka/ny9FQKy8JqrUPHaaajbaT7s5gOvudMRk2aw/JSo3LATFUYWxpnHtmlFky7MRMptnvRuhiH20Q4Uf3oCPz5HQpCi95o9E1E3029jKXnNwzra3v7mplfx7P/bQLsIPSAPTca0XzyKAZLSdvt7Vi9B0d9pu/179Ibrt99zOxfhlYyEcDXyJqZpBw4xbfrxfKUaieRy1CU5lv51Cxpe3IwXl76j3X4fO2cVXnsq04at4Kag0eC3ej1+8csVeO6vM5H1wmxUUySNJe/1z7oP36U/KmB2C7xpedx3MaateQVrniNL7+65eMk3nbbfL0RECW3xtPTsGxfFRdqYvRqH+4wDw1Zuo+MAbmK05byKVVuf0lp0vrQV/Pa/bBq8vT+KtnffnYeX/nQrUrhFGaPt91zUEItt9c3EC/+sx4sv/X90fILW+LwjMe2uLVhHxwl4J+44hHFkkoJbEf93upvWhV7NpZ2hQh79WpWF9w94YPH780yOIAyUwn32fExbtxr73ZZgTbrJi9pzEm88SJE7LurvObMOS/bT5/T1OPjWEt0z5JyExfNb8f6DtyK/nY6Y/JwsXSO3c8R9b+Ed8QZsefUhLNEfeYhMno17+zdQagv3XbAKj+c8hY13TMVzBHnf9vtJdExjdRWe/d1cpJM1LQukZ2P5PBw1XlrmIydv8MdORidGrGnSGdpzZI2Qv5SBQBt21o6dLmWSXHcI5K3D7BX1eOLwK7jNVnfXdQeWaYPpOMMLt2JV7aPYTWfphml8mxbKvo8yAnzncKMsFquOIcAQGBKB8n3Ysb8Q1XQAXd2Qh/ff+YpcoPMxkymxISEb+gcF1PI78MzqhUyJDQ3SmP/FAV2LYx5TJiBDYGQR6KjCN69QBAiK3tBGbvDYOXRQnFygNh1pGlkJHah0OWbet9KB5GWimkOAuRbNocKuMQQYAgwBhoDDIMBciw7TVUxQhgBDgCHAEDCHAFNk5lBh1xgCDAGGAEPAYRC47hRZ16H9yH4yl0fcRG77+nac+IL/AeMhe52iyJ9/cjsKsodzbHTIUtkPDAGGAEOAIUAION5mj46LOF9ShvpmJdSXeyAY5wn/0MmYKPewc2NEcI8NR6989IPl8H4y2wqxY/MGbP2GzqO1iSGLSsNtjz5JtA8mB0+sFMgR9T1A248PvmJK5WHlRvYzQ4AhwBAYAwg4nCLrbv6JYot7Qz4xEh4SIToU53C++Ci6hDORMIHvaWI+yFMsw4Vp8OGT9WrkId6k91fejS1ts7DmhU8wbYIaiqIc7DlbAjUpMnsicTWax+pkCDAEGAJ8EXA4ReYcmIipgf3N8/aags5Lh1GpaIZmwsDAvHxA6MrLRf5WBbzuy0B0AncQR4Xql3egVB/soy8KhqEwXmSTKjTuykXpoTp09kjgMTt8SGuxrYHOsTh7wNfLNtXTtudVvFFInFQ7N2GpPqxORFQSphk1uiGbolRwxIgUcqmhS4yI5IUU+WItFusjt1sn6uPgIKtvI1l9X51EmUoMOZXx+FNEYRIO7P/jdLwo3oKDf043gVqN/b+fjo0Bb+HLP0RqyQKHJPsjhbxl8Z04fNvOAYSIDf8mMsNXZPjbHmL9tQ0aPt3O8jAEGALXEAKOv0bWexkaChclpnDktjZmsBLjelYC+RNERvnGIoQNySNhmWyyKzcXRURO6blsPhFepmF8bQkamswEoSMOon/cOR2zH3zHRv4likaQnYs24uXKGDI2HPHFNqgR+T9rsflfe3Fw5wd4OPwkXvr1OhzVhyayTtRHsQefeAhbypPwGyID/JLKeDzkJF78zWbkq8VIJB6vNoooP4g7ipRTPnF/TYrn6DCskP0J43DbbZEo+4Li7fVBpMDXe3Igu/kOpsSuocGGNYUhMFII2Dr2j5Qcwy5XVVuKmsvjERpiA6Mk1abKz0XBAEvMNhGGJptUoeF7Yum8IRFRKT5EeBkA+S9j4WlLwGGroiig+KkVYn8K2KrNS/TqD01BfHw04lNWYIc+QG3E/67F43fMRiIRRfoGk8JYcRcSmykEV7nVCnQZuIjgOVF4+C+rkMGROHJlrFmJmQ278EUBxXwjjqqgCxQolavv4j5s/OOrOMx9bjqDogYiBtQy9spgjewvggucWvMVvjirl4v7fFKO2/4niaegLBtDgCFwPSPgcK5F487qbiTW3/Nt8I27Sce9w7MnNa3lKHmvBxrnAEwIHE5cHwtkkz1KtF/qwbhY734LkQICu7oJyWlpkiio7dPfnMPTptdt/k7Ms3/eicScv+H+v/TvjFSX78aWv76D/+YXGlF5EG3EIEHMV9hWVIgadQ7W3xyN9QOyiJFB1h4SEhEr3IUiMslmnv+MwiadgeLmBzBNXIRSn2Q8HqC7ySrZX9B8LJi6AW/9Jw9rJieheh9ZZ+GZWDdcXibzzWFXGQIMgWsUAYe1yLqbzuLEqXqMi6bI9H42LqIQA3TAI/MxMawR5e8XosOM189qf1u0sIQQDvjdYmarVQ3OQGzKEzygVlSRLaZL7kSNHsvxnBkyk3vvTSJ23O9+FzbvPIXTp8/hdA633tQX8nxwseaueC3BqwV0L3d/398pbF5ANYknIzFWgaIzpcSjVI95y9NQdozW0s6cgXpyHCk5KlBP9tf18/XI+k5fBhFkDgynRAy8mbPQ8s1nxDmmo3aPXUgR3c3Jw64xBBgCDAETBBxSkXU3n0P+jzUYF5WKhGFYVAIpKYJYGQKXJ8OjrgBFX+r5yezxeAilcCN/n6rBiFhMpYRqMOmZtra2i8R91WDMWcRHCFqfSk+GuPAwsmuGyN90Evm15Na7ZwkSDdwwZWUoM0fAyNnlZpS5e2yclt+o4PwQdZDbMJG4vQp/+AzZZZNx812zEXTma3I7ViMyUc+KzJPsz30OrYf1HMTn2z7DF2XJuG2+bUcIhpKQXWcIMASufQQcTpFpWkqQn1+Gy/6xCHXXEMEmR7JJf6rLtveWbxSiFwegc28uyivNjOS2l0h3SOCbFgBNXhFqFVyZXWj+6hxazYnHbfZYRoSBj2wbvGHCSt0cJ9GKqJP4x++fxo4cIvArycMXB870s8G6RyKCSCbzvy+l7RaU6MzZ+68QEaWZZg5J1DfpDtyTrsD7Tz6N7cdKiQG6FPnZWdjyRyKf1BMcRiQkA9nbcChoFpJ80zDDYxe2/0BcS1P0iogX2R8HWzp+cTPthHzlHdRMux23+FsBgP3MEGAIMAT0CDjcGpm6qQ7N3USqWZ2PH/r5CYmUbzJmpoSaEFha72fJTWmI+HEPSt4twPinkuF19jscebWin226bDcO7aJyxMGYvGkWfHmoflHadEy+dATn/7oD5UIR3OKD4OXRomOlti4SvxziODz8xgfw2LwZW5+4E89x5IcTiUjvhbW4Xeu3S8dv/vIo1r5wN2Z/KIanVzBmLF+OmSezBpU/JFEf5Fj88gfA36iOPyzC+iaqIzAOicSanKFfWhTHE/OyZhcRVSaRu1BGzMuRUP9AEdkn6avhQ/anzUqEkeROlH2WhUnz5zNKjUG9xC4wBBgCQyHAot8PhQy7PuoItO1bjXnrgBf2bkIG4yQZdfxZhQwBR0XA4SwyRwWayW0BAXUrGupP4v0398Fz/puYwZSYBbDYTwwBhoApAkyRmSLCvo86AmXv3Y2Fr5VCfuMDeP7xdBZea9R7gFXIEHBsBJhr0bH7j0nPEGAIMASuewR4bF247jFiADAEGAIMAYbAGEaAKbIx0jlanrSnj6PFzPb4MSIiE4MhwBBgCIxJBBxvjayjCqcLy9Go7EAXDfrOxEfmK4/GpNDxQ0aYHwnkNScO4ci/hIjd9DP42jtwhw0CN3+0A6cuJSD98ahRbb8NIrKsDAGGAENgRBFwPEVGR8gkPqGIDpViHHFeXm6qwLmSkzjtPBOJQTaGqhpRaFnhDAGGAEOAITAaCFwDmz1UqDx+AOWSFMyOtxIOoigXOe+2QOqnRHONCL4LwqA5fBqNKh8E/zqjj7ZFo6hA6cenUF/cgm6BBNKkeEQti4En6UlN7gFkv2cmLlTwFKQ+kwBXrtfo/vNZhWgqbaHQVGQ1ymTwuz0VkamefYGENUTtUvKvAlys7IKzPBiBE9txId8HN6xL1UXKt1JG43uf4lRuf4Bgw8MimpWB9GW6aL1dBQU4/2U5WmtU6NIIIYkIgXxJKgKDTUzIHjXaKEyW2lUGX7b1fTTeO1YHQ4AhYEcE7GKRaVSXUN/cgZ7efsmELuTyk3mMsLtLA5WiEgqlAO7+Hvxgae+C68IMTCCFdGZXLcKeWACfr/ajjEgwQyKCIFBWoXjTMXTEJ2PyMwEQX25C7Uc5KPyXK1IfDIZz2hzMSiOFZsm12NYBkLsz6ucySEgs9Zl8nNt6GOV+mYgMJTF7FCh/IxeXfJMx5dkQONcUoXhrBTTuRnzUVsrwue+XmHUfYMm12N1OUfjTUohN2xsiFxXavs5F8T+PY9zzxHxtbLyWv4P7F29G252f4MunGHUKvweJ5WIIMATGCgJ2UWQCtKD67Fk0G21UcAv9GQJ0ZFkj0FYlyo8dRikXa9fJBV7hFDw4hCcdC0X09Y7yhFcTWUdlnhgv94QwQgrNj0ptWKqeXKI8kcQgaWkUpFrDRYrIRXWo/2cJGtXB4BVoPyIOE41Ct0tmJcIvew+az1MgYXKJoqQC9QofBD4WBy8Oo4BkhJ++gFPnjKCyVgYPVF1vSkZkXz4pJLdH46fvz4GifIG8sywxBBgCDIFrAgG7KDJIwhAZUI4TNXqKEGc/hIfytJCRwjbEAAAgAElEQVSGBaMUwVNok0XXZXRya2QVZ3BeOg2xfLSMSKhz7wlpw6YLfSZlJaR/cblHGwC+vYpiItYqcGLlqYGSCWXo4kgj+SzDqRSo/fQkqn9shErZr91dk3Sfu+tb0CXygFufAUZuvyApBMaKzEoZfGDT1JKL9NNTaCij+vrYWyRwNQ1gHLUSWQUr+RTJ8jAEGAIMgTGHgH0UGakG77BweNXprDK3oGgE0EaMkUzO5LNzJyPM3dMbzqoDOFFRhTC/KIo9zzNZOHggiE+7gl2APWj8lKzFiiDErJpJzMwSQqcFlS/tQb2RxcopUGMRBvKX8SvDYks59+WrOWgKSUbc81Hw9KYKVSUoeKIAvWyLv0Xo2I8MAYaAYyFgYTi3sSFaq4zUyIhbY4Pl0q7NdXej22iNbnAuflfcgj2BCw1otcY/ySGnIY1AuygHJiVaK2gdLj0eflolRoliCXYQa7QhOU/whLO6E53t/XeqLqqMirJeRt+dnEbsMaOZ2hvR1iyBdwZtUuGUGJd+aoJ6kLx0vYdiHdZUG7FI98vFPjEEGAIMgbGOgP0UmdYqi4A8ZGStsbYL+SgqI2bkhktobr6EurI8FNep4ebrD3enK4dbkhZH58LKUfwOueSqiBCzrhGNuadQ9FEJaAtHXxL4emFcdxMUp2ltjdySnE7TJXLd+QvRWVwDLUVajwqNu6gs2r3Yl8Ij4TdegZqv6rTrchpFCS6cMCLiJLvSahn6wsT+NHmoqkV9XRc0JEcfQabEE65SFdqL9KSh5Kqs3FkOs/ye5dvw6IK5WL4lz0hI9pEhwBBgCDgGAnZyLeobKwnFJKNNDiMBgbPIBeq6EpypVIOjJXMWS+EdkoLoSG/7VCcNRszqdJRnncL5lwto27oIogAfeKUlDOQ6C45G5M0KlGzdiSOckurbfi+C3x3paPngBE4+cRoCqYi275Nyl7dAz0VJi3I+CH80FT1bj+Doalqq8/bB+HgfEPG1PvEowwB5WjJC6FhB+Yuf4jwpzr7t9y4BCLsnDsUf7kfOQSFcpJ7wnh0Dr7IS++DESmEIMAQYAmMEgWvgHNkYQZKJwRBgCDAEGAJXBQE7uhavivysUoYAQ4AhwBC4zhFgiuw6fwBY8xkCDAGGgKMjwBSZo/cgk58hwBBgCFznCDBFdp0/AKz5DAGGAEPA0RFgiszRe3CU5G/J2onszcXa4wIsMQQYAgyBsYSAYysyVSVOHNyD/YdPockOh6HHUsfwlYULGpy9peSKFAyfMkRhIfCN64/ez1c+lo8hwBBgCIw0AvY9RzbS0hqX36tEZWEZul3pQHDnaFZ8fdYlSU1G7PXZdNZqhgBDYIwj4LDnyNorcpCvDEWcaxlOVHsiZcYUeNshsof1/upC875jqDhyEe2XKKyUsxSu8XQ4+lcUyZ4C23NJtf8r/HDQEyFTVag/UodOtQjuc9MQvyhIR2vTU4dzTx6AanoyRMVFaCS+MIwPRvhD6QgM1IeTohAdyu+Po+SLC2hr6oHAhzjN/jcNE1N0ldiDj4xPGcqdu3Fib4uuYbGpmL4qxoSax7Kc4NvWbGrrl7q2wk0C9/h4RN8TpeN3M3QK402z/niyHAyB6xABu1hko81Hpmk9h9NEjBmZGghRddkod1sPujrF8F04HVEhUgg7ia/s4xyc2UZ8ZY+E9UX/0DReQLM4A0kvzwGKjyNvy3FUJgXp+Mi0Eveg+YcmTF6ViVhPFWpf34NSCiHltzJKqyg0RcdxalsdPJbMRMoUCTqPHkfRewcg8NVxmtmDj4xPGdJFmZi1CODWyH40wydqTU5d51huKxSFKP6kBuOWzMHUG6TobW1Ec7FpiH4qifGmjfKzzqpjCDgGAnZZI9PxkVE8wsL+v3KKx2QXLWmKo6YJpYU06EXEj3iEfdOqdd8l8FuYCnlKAKQy4vgKJktqrj805+tgxNgCSAIRlOGjxcA5KgxeXiooK4wDLhLT2fR4+PqSBeYihV8KEZNdaNKXQdHvj1xAd3QsJs4JgKuvJ3xuozoDWrQWHt+k5SObFQzPQJJTy1IdDQ+lQstHZp/EX86h20qSNHZSKDApPCcTEak3xZkMDULgvLCB1ph9BGalMAQYAtcgAvbRNaPGR6ZB0/lT+Mk1BmkT+BCDjUyPqfIKyOVXgtY6FQUM1tchDoaGiyyv9wwKpK4YZ5gmEEeLiwvQqzaOUi+EiAZtQxKIKfNltT4CPgX7Jc4X8UQfo/iOnnAjbpwu4jLrRgCvSQJvPrJhw8RXTkttpcojwjBBXoLSv+zGpRgZpGEB8E0Lg6cppR3jTRt2T7EbGQLXMgL2UWSjxkfWQRHvlehS5uPwN/n9/dLbihMH6hF0w82I9R3h7uLcYO8Uw+m2mUieGwAJ6VNN3nc48h5FwLe1asNymK338ck/1vjILLXVRYawtYvhd64WjWTZXjqcg+pvqzH5GSJP1a878mkyy8MQYAhcnwjYSZEReFqrjLbDX3QfQXZoYoa+YSb8jAwbVfVJ5F90Q2xyDGRuI9+JmgsKtDkHIjaDlBhZWVzqrGsla8yelUvg5ieEuqYRXZDprbIWtBNViyiCuMyMm2mNj+x+jo9Mf4Oej2wQ+ehQZViF0wY5rZUlFME1ltyJ9Cef642CJwugqAB8441u5HjTCGt4yOHrbq1A9jtDgCFwvSBglzUyHVijw0fmLJHCTdr/JxFRE5xoEKRr3MeRTgI/HQ9ZU2WXtipNbTFKDzXauVohfNJC4HyuCOcP1KGjoQWNe4+jutYTfmm0lmaU7MFHNmQZVlvFX06LRZUV4vwXFWiuJWu7lehuvq+FEp5w9ze5i/GmWYSR/cgQuF4RsJ9FxiE4CnxkV72jgmlb+KJmnHuDeMjIinDx9kUgbaho3WtfyQTxqZiylNuSfhjHs3rgzG2/v28mwiMG+ugkduAjG7IMVQlOrc5FY58FfBxHHj5ODZUi8IlFmBgF8JXTIjrjhOjmNgp9TYqM5gfO3MaU+6ZDPlBnWyyC/cgQYAhcvwg47Dmy67fLWMsZAgwBhgBDwBiBUXDGMcAZAgwBhgBDgCEwcggwRTZy2LKSGQIMAYYAQ2AUEGCKbBRAZlUwBBgCDAGGwMghwBTZyGHLSmYIMAQYAgyBUUCAKbJRANlhq+AC/j6xHaeOG0cksbE1tQU4vnIbDj1Mfyv3oFJh4/32yl5Fcjz2Faqb7FXgcMrpQf2b23VYEB5H3q6y/RD9cKpl91xjCFTj/bumYMlbpddYu4bfHPtuvx++HPzv7CzDD0fOotmYf8zJGxOnpyN0HP9irpWcHJfYqUsJSH9cF2x4zLUrMAGpryYAdadw4sWqMSeeJYFUB/bjh/2emPLnVHjpD79bym/9NyH8ViyFHwWMbnj7UxRbv4HlYAiYQcADETMWImOiaQw3M1mvk0uOp8i4jnGSICAuEaFu+jNVTi7aUFEsMQTshsBlBaq/UcB9TpqdlJjdJGMFXfcIeGDmI+sx87rHoR8Ax1RkFJlX7OYNdwedkHAcX3mnpfDqVJBlKUPIHAnq/1uOLu8oxP4hFT76GFJdpwtwfmcJGmspar6bD3zmJmPirQHakFUDucRy6aByrrZXRbMykL4sQPu5q4Du/7IcrcR31qURQhIRAvmSVAQGWwp82P9w9H1qqELp/+WjtkwFgcyUN43qsSCnmdIGXrpcgVO/y0dPnAiqs0qIZsRjfF0Rqshc8VicgYQ5nlaL0GboUaL+81xU5CqgIricvT3hlZGGyXN8BtyvLi7Aqb3FaCYXp5g4z2IeiIOnmUlQd/5p1KuDETPDJNhjAcXVfKcH4St8cGnHOTRf7ILAOxARa2ZhAhcKTN2I2iyKwpLXCJWawzwcwcuSMSGAP+Yais1V+vEp1BdTgGiBBNKkeEQto1Bjejn59Gs3RUsp/pi47qoJDJEE40LCEf5gMnwN78yVysmHZ47acT6rEE2lLbo+0TIwpBL9Esc0rkL1yzvxkws9q1V16A6KQ3BoHSoPNMIlMR1THgyD7jXQ8f+VHqpFB8fLJwtAwCIqI8mkX66Aq676vTvxP/+RY+mUauzPLkWLUI6ZD7yEdcviwEFe9sqtWJIdjGkdJ5HXnYaH/58fvng1C9UBy7HhvbWYSeHSrJVh/SFW44vfT8XLHm/i4J/TddkbtuGB+R8i8YO9eHwyd0mB7fdPx/pjup9jf7sXWQ9FWi/6OsjhmGtkvR2oyfsa3377JQ5/fxRnf1I63FqDRiXBhJUzESiqIZJOESY+OROyyyWoKdCHvio5iYK3LwDT05C0bhGS7glG97eHUXRIqX0stVxibyxHwiwJRddIw3T6zH03KDEuT3d7D8alpSDuyUzc+NwchAUoUPrP42hU2/JkE5fYd+UQ3ky8aGt/Bj8hKTXiTevWF6GxIie/mmiwDadIJktk6DxwGm2Jc5C0yBPKb2hQ4bk810V8bcWky/1XLED6+kwkLI+G1FRBaRpRl90F/3vmI2llDETnClCux3OgnC2o/qqOlGocfE3L0AJ7EZVftMP3/kxM//tiJC2NgKtWTylR++Z+lP9EQZB/vUCLebBfHUpeOYlmM/RqZrFRVqF40zG0esdS0ORFuPGJG+FVX4DCf1X1YW61X7mA0e8WoCMkhZ6dxZhKz1Z4Evnd+7C0g5xa4XU8c7IHCIdNmQj3qR3wbKCtA5BHI4rDYt0CTJ7rgqath1FeaWg5cfuNC0bsr+MhKTuFWmUcklbFQZhfiPoGXR7l3v048+1l+N6RganaMgS49N5hVNSaoMdx1c2bjuVb8szCau2iumQfikKew38O/oCD/5iHmi0P4aVsoxelVYZf/GMLFrvtw8bPPfD0v7bgdvU2fH6QYn/qk9UyrAlh9XcZlr5LXIynv8WaBHMPptUCrtkMjqfInD0RED4Zk2+YiuSkJIR6qFFbeBSFCr4jxdjoS0FQAHwCA+AdIoJzmD+8AgLgJacAxMQ6TTYOLu4rRvfUVMTOCYKUQsBL46cgcoYErccu0FyWX7IXH9m4aQkIS/CBK8e9NsOYN80+cnIhr9zjib4l1p+obzzhHesDKdG5iJRtuMyTUqC7gRS81AfjozyJHofwio1C6E0DrTEyTSC7PRl+FHhZStaYnAISt1U0DZoEaQqIKqghAPLZpvcbcBdiPFkFE4JFELhQnM944nzjLJ3Kc6gp9kQoWT5cHRwH3IQlU+CjvID6En59psotRIMkBjFLo+iZ0PHdRS4KB34ky1w/rlrtVw3xu9H4Oi4qkJ4dCSQBMvjOIaVsCB5tBzkNrbHIMxcRh4kLo+DDYUGcel6zEuEXoETbed1kjOM8cosiXr/QALh7kfUaEwjXcH+4S8iDQHyGuFyD2m+VZJlPR2iSj76MGyEPa4HimJ3jm7rPw9K7dRaYePIDuDddjX27D6FPlcWkYUZ4Om6M9aBA1tOQSJ8TJwI1dUa7l6yVwe8RYLmGgYDjuRadx0MeMb6vqV7eHtB0HEB5DbknyO3lKA0SOOtdTS5CCLjo85S0/16maXNPC5S1NFst2I/sbJNeldEgRVkkPDxV9uEjE2KcX797TyClXQ8G3jQ7yQlqt5DbTEG8bUL6LOB8p900xyKCN556DK5TI+FxiFw/zyngNVEGj4mB8EvtZyjQASyFq8wAnBDO46iiVlOTj6yVb6ogTJsD/6Fc1wIfuIcN7oDumhZ00Npa6ZPbYLqfzEdrWg6+x6R30V7VQoGoFTix8tTAn4QydLXRJY42qJZcj5+eQkNZC7r6RloiJDXM5Vz8MSFNSqzlu3E8lyZJYT7wTomCLyleLvGVU5N3CEfeop2VWtHJg/D4YhDXq1GywjOnUqD205Oo/pHcrEass65J/Vg40UQAwi5t/wv0G2ooBji6O6ma5ka0tXdBSRtjDr1tXC+5jsebTOeukKtO7B+MiD4jR4ygUML7+ypy5umSSCTWuhnF9O84IberjL47i6FW91ttlsqgOSq1Jwsrb34ah/W3xD5GrsFHIgc2jH0bFgKOMu5baJwE7m4u0CjV2tmTwzRIbwsPMIm5L33jqhDSxZlImWeyFmABiQE/2ZOPzOL4e4VyWmiPFg6+miwwDgkvhaD5dA2ai2tR/2khqk+kIvnxGP1ai76iQW0xOEl1v2vKilBb4YPAuwNoHWeIJBCQwjX/m0Aahsl//Rl8BtVjPr+5q5yreMhdqLz6VQSfZZmYNqMGl4ouormgCEX7ziHgt5mYGKMTjI+cgrgbkfJsYh9wNIccnIZsJ7GHf3oYpRVBiFk1k5QoucDRgsqX9oA4Y/kngRTytYsQGcr/luHm1PLeGtrTzdP/btIWi2V4zce6nclo1T9yIu+BSmyQs9AWnIbb6GvkviFeR0dqHbEUd1yGQKybMTmS5EPKKiTXVyC5GUvqyMloJQ3FJdZOs9lmCbwzOD4y/dup5yMbVGJPF7rINdelsvHNsUVOrQg96L0SD7A1OcW0gSYlBmHL5iCF1hRBCq2Z53ikw4RzlZajhzZXBAyDoNU5yBNiVROaqgchbHKBwCDrU9M9GG+3YLJ+LzSgdSi5behXUXAQJsxLRuwTGQgOVKHpdItWDt5yisnKC/DU/xFNkk1HEJRoreiCa3o8/LRKjJK6FR2XBrd5SLS8yJ1Nbsa2YoMrcsic9GgRV11NNRo4q3UYSV1TgrK+e1tRWK6AKDSY2AD5J+tlkFsyOBIR4bo/uZdx2WKIaAwztvDQ1NBnEfKX4vrM6XCKrL2a6D7KyORvaEJzEy26F55AaasYE2jNyWGsMavPmgj+N0fBpfAkCndWoEWhRAft7Krfd5xm1gNPFA/JJSahAUhKSr6oUeeeIzdPJW3SMKurLhah4NmdOPFvW08r85cTXjK4S5VQHK6h3We0BmLkarIKhyGDBTk7vj+JiuwaKBuo7AYF6k40oduLMLDloSBuudrT5EKbHzS8Zyk0GvJYFWrf/Q7VRbRTj3jkWgpKUPr2SdSbjMVuYaSwzpfTTlCOg02Fbr2Cl6TRWpawnFjIyXVYpYSqrhGNufTMf1QC2jpBPmUe/aquQeXHtGGCcz1S2R0FpWhuoDWoIL11b4OcvPtmUEZSgv5CdBbXQMW1rUeFxl3UJr4LvFx5LkEInuuJtj2Hcf57BfHyKaEsqUJ11iFUFJlUeKVcdV2H8Mam3SgiZVj07w3YmuOBeZlpWnci73SFZURMiUTXyd3Yz2106anGF1t3oWygw4C3KNdbRlte8zGBDWeAtP90Fj+VX6YBWgCRmy+CJyciUmbTdHFMtMWSEIIY2sX3iAhlu07g9H4VNM7cFmp/yExcjUNyidG25rB74lD84X7kHBTCRUqbKGbHwKuM564DS8IZ/cZXTnDyLI1B4XbiVztAs/LgKUh9JgGuPOuxls3JpQct3x5HTZYS3RoRUeOFIHplAjyHdH2ZlkiusK/OoTMuAYFkDQ8vEU/bigxgx0nUvL0HpTRoc8cAPCZHw99kRJT8jLaQnz+C8o07UdojhO+KX2JyCgkrpS3/q9NRnnUK518uoGMTIogCfOCVlqBjCufTr9wiY3MVKl47DTWtMXFHN7zmTkdMmm6NTMsnx1PO4eHA3SWC3x3paPngBE4+cRoCqYiOEUQjQE7EqTYUKr01A1NcjqFizwGc2Ma1hTYGTQxB4DAsZkvViicuwW2SbXh00Wq0ucUhY/VbWDNjqEVS8yVdaRny/30Ojx9bjT/dOhUbgyZjxi/nI3Hfwf7Ksp9G+qNZ6DMcC25F/N/pZ0kmXs3dhJm8n3Xz8jvyVcZH5si9x2S3HwINxchfVwS339A6UtR1PCLYD1GHKUl7BuyLWcj6bCUihim1PcoYZtXsNkLA4Swy1msMgZFAoLtVCK+FdFicKbGRgJeVyRAYUQSYIhtReFnhjoKAc0QUwoY7HXeURjI5GQLXKALMtXiNdixrFkOAIcAQuF4QcLhdi9dLx7B2MgQYAgwBhgA/BJhrkR9O12cufWBY9S9/iSmpw9wAwfGRvXgKHdrDpj4Ie34BKGjC6CeOj2xDHSa8MB9yQ6imUZeC4yP7FEUndGepnFNnIf3B4KEPXo+6fKxChoBjIuCYiqy7FdXni1BZ36Q9FyUa54vQKVMRSlGor7fE+MhGrscZH9nIYctKZgjYEwEHVGRE//DjUZzr9EE4nbXyprBnlzvotOkwDQZ7gsnKuoYQYHxk11BnsqZc6wg4niJrLkNlixSRRE8Squftgpe5IHBjt+sYH5lR31xmfGSmTyrjI7ONj8wi91pPDYpWH4b6xhgIi4mbj4I3uxA3W8TdqfA1HKq2yJvW3zsq4t0r21WCZuIH1FA4NPcb4hF9T1TfoX5evHxXwJuGMxvw87tPYtrdMhTuyUN1uxiRGb/Duj9m6gIeH1uH2X84g7gIBfKKxJj36B3ozHoN+9siseLvH+BhLfWLGmX/Xof1b36F/Fo1MUXIETd7JZ7/cya0gY0dNDmcImtvbIKaonkIf/oBOdX0mYLIuPuFY1J0MNwcaOuKlo/s1zPh+tZ+4iOjgLfEGVX/ymHiI0uAD0Vg0PF81cD1f4iPbAqFM6orRylxORW5LiAOMqmOj+w+CuDw0Q6cupRgNsisgbdKPtGb4uRRzLqvc1FMfGTjnk+DD+/YOzo+MvdfEh/ZknbUbP2OOKcC4LcySnsI0Zqc/N4Ljo9sOqZMOY2C7cRHtjQDSbHEx8bxkc1M5hWdw8BHFkJ8ZBP8hOiqq8OlJpPatXxkPphIfGThHRUoeZvjIwtB4qDAzAY+svkW+MjECCM+ssnEC9lZfBGXtR4BPc9XZxQm/joN7u5ECvlVrpaPTPJcKj+maT0fWUd8MvGRBUB8uQm1H+UQH5krUmk9jcPcar8a+MgmpSNphT+E3UoKVUbhx/rCHNpBTi20Oj6yyasyEetJoblep2gmFAbN8Gz08ZH9XAYJBclQn8nHOY6PzC9THwRYx0eW8GtflPxfAWrHzyI+skYUbeb4yMIQSopGy0d2SAL5nRkUs1GoK4P4yIT+CxDGRWCx2ladnC1nOjB5zWJM8VCh/r09KHrHjfj14nRKyMCbNqSc9JwXH8ep18shyrgR8Q/5QtTZgkuHGtFJmHJcdLzfA443bfFmtN35Cb58KkmLok2pOw+Hytdj265XIFflYOO9K7Dq9Ujs+m2crpg2NWIfeQu/2PMQVm05jDXvf4KZW+/Gy5/lkCKbTSSm2/DsizkI+uNb+M9sUl0NZ3D0GMVatUmIsZfZgYZ+HXhdRJugaa9CZbMHohKIF2gSjSQXTyH/3CXelB9joRsYH5lxLzA+MgMajI/MRj4ya9xremClN03R8bERHY3fgiiMqypFvYGc0ypvGhdMugTquGTELQqDp4zjiQuCfDlxzWknMPbi5eMzMslx+z1LIOcmol7puHdpMmr2fIZ8wyTFazJuTInEDKLtEQckYdqkSExLjEIb8aZpQ1s11KCaQiEnzkiC3FcG+aTZWHz3vGFHNOEj8WjkcTiLTAuKhqgd4qIh42iB4IFJyjqyzmrREjMe3k6jAduV18H4yIwwZHxkfWAwPjLAJj4yK9xrOmCJN83PiA5pvCfGkfXcfpFG/0DSRBZ506gEjnevjiyvWQG6eJemr78tvHxXyJsG52AEBfcL4Bsoh6ihGqUUUVpLuOPsoeNNE1NcTfoTU/M4DjV06miu3OMysXTSLmxcfCv230TkoPFJyFhAFrWdY1eaQjTS3x1OkTm7UHBgCqDrZuQak4yj0LPEH6TuJbgcRJEZ9lwPMIm5L33unyvk+eLFW8Xz8bK4keYK5bQgghYOxkc2ECFe/Xo98ZFZb6sWwL73ij5rKKR833NlJ9402m12RfyBFt6DgT8R46hxWww/mrtm7r0VJ+HhD77FLScO4ejJPGRvfwpvbD2IzTs2IWMArQxvgcZERodzLbp5uMGZKCFogtGXVJ3UucTWKnYUJWat623h+WJ8ZP1oMj6yAU/W9cRHNlRbdYD0QEXs3X3pp1aoiAHAjWhmuHVNq7xp3PtIKxgdQ/ED2vK+XiFvGrqrcfZc/+BXXVKCLi85Im05eiT0QMSNZJk98ixe3f4sZjYfQrYJIbm1IWqs/e5wikwwPpgoMZpQVlyGBiXxbTWU4Hx1KyR+gfC8VhQZOTAYH5mZV4XxkTE+MlM+Mmvca/rHSMXx1RGxqKquBhU7aL0rNAw0ZFDiw5tG72MGrTkVFqBoV5WWH1BVW4efdhSiWWsJ8X9fcaW8aUS1ue/1zdhfUo3qvG3YuK0QQQvvQKI568vMK4QCuuet3cgn4tAGckke3fU1CgWRCA8zl9lxrjmcaxFCP8TcMBk4W4bTx86iWyCBl98U3DBx/DUVIYEvzxfjI9O9bIyPzIhn7nriI7PaVu75EMJnhj/asr5ClaIH4qgoxN43Rb9tnh9vmiDWwA94DD9+SbtsJfrt93oFwvd9vWLV4JyOxRmteOPBW1HU7oHE257F5kf0Oxb5FE5rMm05r2LV1qe0bNq+4em4/S+bcK/RuhufYsZaHhY0eKz1CJPn6iDA+MiuDu4jXav+HJnm/+mJS0e6vpEsX3uOrBAPfbMVix14PWskIHI8i2wkUGBlXvcIMD6y6/4RYAA4MAJMkTlw5zHR7YcA4yOzH5asJIbAaCPAXIujjTirjyHAEGAIMATsioDD7Vq0a+tZYQwBhgBDgCHg8AgwRebwXcijAQXf4ciqQ2i4zCPvCGZpydqJ7M3FoOOoLDEEGAIMAbsh4HBrZM3FB/BDFW1/NU2uEZiWPgnu18xZMtMGmv9uKWhw3x0+MsimAuPsPG1R7f8Kx7IoGO0Qyee+pZiS1n/ARRQWAl9Pz6t6TIIXXkO0Z+xc7oagfB1tAX8EmvEXKKr7D+id+BhFZNdLqD4Dp7psCNq5QMGX0esSCvjdCo2P9uCULvXUwqnmcwha6ykaDp2m9ZqHngkJMHSOU+sBODXkw0lFkabWVKgAACAASURBVJd7KZqOJBq9/gspOpyecqKX7r+wS18HvY8CYkv1mkFl0INmy3PWWQBB9T4KodQEJ2EgemW/gMbXIKcKThc/haCJgiJepr3iJGevWyJ6A29Br5jn0MVHTs0FwuIAteUChU1Uodf7HmiCY3Q49ZZCUPgOnMxFzuByiGZAE3MrenstlMHlu5wL4dldhKWhA+hfpxBoJj2ihZdX4tGvTjV/geCSNqpifxr/AHqCInlVAdRCUPwKnIwCTlC0CfSGPAuNlx5zS3hxtbR+AkFFgdkgS73B66Dx5sqx8gzzlNaQjefTYGOpI5jdIzQV0yYYxS3qVaL6dD4afSnY6HWmxHjDTC9l9HLeuXlnlKRNR0qMLm52T8UpFG5vgtd9MxFMURC4JPQdeEpTkpqMWN6ls4zDRqC9mHRJJDQT5lCgPWc4tRwEat6BwGkVDSJcCAhSELVbIeiggTTsThpbz0Jw4RM6beVNA16IrtrWYrp3KnrHk3IRdsJJsQdOFVvhFE0DL4Xx0yaXGPQGzaGBmJSbmur86XMINe7oMSgBfbYh/+EGxIpPSBmQYoqMR6/qWwhqSC4XktNTrzBJuWn8uFkYyd1TT4ptLylxijDFKQ++77s1OXsvw8nJD71+pLwaSNkYJ6dQko0mCdohRwVBLSk13AJNILWduyQguTg5NBbKMJTn5I1e+V39Ew4naqMtI7DVftVX5GokH3fJxc8gAc9/SXH53oVeL5o46O9wMp44WMKLyy9dAE3UDKO6SGld+gROrT40EbGlwTzFpWwjUyr/+m3OKRhHBxG1wYL1qaUWjWoPBAaOLn+9NW4icO68d3oQvsIHl3acQ/PFLgi8AxGxZhYmcKKqG1GbdZxO5zdCpRZCEhGO4GXJmBCgH/ytcCQ1vvcpTuUayBdyceThXC0golkZSF+m1yRFucjZTCFsuB/EwZi8aRZ8TWZ/A7ic3DxpUp2MmIVBuuCoPXU49+QBqKYnQ1RchMYamnlTZJXwh9IJb5JTKuX+0yW1Kw2ErRAF+EBqcriS4187sVcfIogOlk5fFdP/4PHkI7PG0YUeJeo/z0VFrgIqEtPZm9qSkYbJc3y08lnHiyhX9h0jSp2LaL9EfFPOUrjGRyPyV3Hw4trIR04+3Fd6uKBuRUMzkRB5yeDOm1LHcLOVf31+gR5ds7UZe109IGj7Gw0kZHF4UzCBHrLYWsjymPAL9GotLBkNXHRNkQOnCSHoJYuqV04Ky6ia3nFtEBaRBUbRdHp86B4nUnCB9GfI40pKUZVPFl4ZnHppkOejZNqovstkfYWTMuQwkCxEb8tf4NR4BvAk5UVRN3p9bzGSgmQjy0dQWUr3kYwGhWqUY9BHPnIKSenLOYuljereZWJJ0KA+rt9C5LBxEtCA7Gpk3XKVWizDIBWVJab7KDSsxdRDFpWGhmZugmCcrPVrXzVm5DOtUEMvSQ85+YWkiM1Y0E4imkC49se9Mn4WrLaVU+5G90JF1n1Lp+5549NnprLy+O5wimxgmzTESlADtUc4AoyCW/No9xVlscZN1Fd490VUfjFM3iorHEk+9/0Ss+6zzEeG2DSkv5EGrVJ9z4xvpLWC+MkK0HFDKm54KADC6nMoJr6oQtdMJGYYALXCOcUDSemiTMxaBHBrZD/WmLvBCh+ZqgrFm47BEkeXNT4y63gRN1anGL4LpyMqRAohubpqP87BmW3EA/ZImD7quRU5tU3rgUXuK33zG3Y+jtkvnMRtm09hQ4Y5TCxf63XxJlcczUpoVs99tqg4aAbdSxaFk7N+YFKRW7CXLBC3/oFSOzBrSEGQS6nXZPzUSkIWh1axcHWaS52kCNva6F5SNnyUGFcGJ4czKZG+wU1Cg6cfhJc4+UgO03I4d2gTyUgWFjfODysNR85hVWTmpl5yn5a/AAH1B1yo3X4LyI1JLtkBqRtO1S/ThCAUmtgH0Gupnab9aihHSROO0zvIyqT+dk8j63HG4HKaPoKwphK9oeQy9DSthBTcxc0Q1pGcFEmp15ssZn+ekxPTZpNrV0Bu217pYnKDDzQ2bHqGTcs1+W7aAivZx9jP3XWoqb8MHyLVNPfujYy0Bm6iVCQSN5HuHSRameVBZqoTYvyiVEwgQkAuucbrTZXKc6gp9kToC8nw0/etZMkUNK49gfoSImCMpcwcR1JEf5GSWYnwy96D5vNKINQ+WruroASNCETsr6Lgyc2IZcmILL6AgiOlUGYkUFhVXZJOjyc2Xa4NUvilyFC6qwlK0oteAz2H/cLa/EnPRybxp3W8LnjHklWnkkH032ZcpgHYwNGVtDQKUm2dxBC+qA71/yT51cHwI9m7GwgXaRDGR3lCRHlE3pTXJjmIp2phqtEdUoTPLSNSyzpqaxh0Bo5lOQ0z2z7uK3oqOe6rypc47qs4HRGkTTINlZlm9vLf6a0hGbnZaG3LQnJq/JrWeGjglOndht3cGgqnlBRwKnmdXHm09uXPuZGGiKzOuSIvksU/jgZFj4FDhlMNDboGBlP3W8mtSBYfz+TUQ/WRRdB7mdbJSsgSkj2CHs4K0ZB8nAlgUGQttOZygdZcuGuiBPSGkwIwY0VYqvZK5LRULu/faA1R47cQcCPFwDGDNe6jtcG3qQ/IjeoxvNFrUL+SML2u1Edu1M/EEtJLa2qCOnLFVtL0KtLY1WdJauoPn1vJg0MuVSEpMmUuBApyKWuobwL1z4+l201/q/8cTl008QgzfUZte4ZNizX97tCKrOunKlxykmGK/xCzRNPW2uO7NW4i4zrIBeEeNni076ZI3B2XFSh9chtKTWTyISp2LjacVY4kO7RFVUeD//hIuBq5tqRkjeD7ZnTSMyzVDhbE5eTd/6IJxHTxMpGb2qH+viKs8JHx4ehynRoJj0MnkfecAl4TZfCYGAi/1ABIbHg0VHkFKPmiBK11KnQbdniSS1a3PkLSWpFT1x4r3Ff6RvveuRWn77QniEOUpdxLGz9oQwfnKjR16zjR+hlZc3AeN0BvDCyJLISLNJApyY0YSW4+Eyup1/9BcjWSolORRXbxIIT1oegJMBrwSAkJSQnpKqBBMvyPHJ3gwCSgYUhEViX3r7nkrltzcbpMmz4UpJRrcsgdSQOzQZZu/UYK/UPZ60drWgEDXX9W5TRXrz2vkeux19+oQCnhWfIynC6dI0pF40GeBvjQdWaZWgaIM1S/epOb1pCRFFqPsJUmAblwaierzM2oBG4DyHhzDaQ+klHevjJoAtRDk5WmH3RuZ1Mr2VwRhmvkUhQqyEoPtmJZWiqD529DPDk8776q2ZSoqW2Cs18qxg/WFVdVsr7KBQIIh5g5CqRhmPzXn+kZZk3FtRdHkmm5w/x+lfDloOP4yLh/BfHkJn08auhF3cA4JLwUgubTNWgurkX9p4WoPpGK5Mdj+FnrikIUv1MMp9tmInkuKUBS7po8nUvWmtI2yNm31mDsxR3AfTVM/Id7m/JrCCtP09rEg+Q+6l/vgNbFSG6ubm9oQh/Tla6kthPdZO+AviYXEzcbv0Sz+3DaFGKqCLk7nTlFSEpIQgOzUz25q2j3n4x2/RnKISXUM3GuvgWcwupvTK+QFrtpPchJOIc2B+gtuYvkvuV2QBoPmNyai4QGWKoDEto4cPZrWvNL77cOnROgmUiKQj/6apWzabImp2n+Ef9OmIklcOpstL2mofrVXEmEmRNIWXZ3k3Ia3nDfO442i5CV7EQvwsDnw1yF+msacilWH6C1TtrcYti4YyH7lf40xDB7pcWOwv3NlahVijEhcJSj3lvjJuLRdOcgT4hpW3NT9VCZeXAkGW4dio9sqKKNrks41txLjegw2mqrvMBZaV4YZ4Mlw6OqK8riFuwJXGhA64AtwWaK5MNHNgRemgtEBe8ciKAMnRLjSu+sa+23xsxUZ/6SJe4rozuIlbi6huq01ibzlVi/2sEpMdqWH0BKzMdkYNcrHbST0tAnpw6ydgSkjPqsc1JiDR+ShUUZwu4hJcJzEOylTSTGmp9TQuNIMWn/SA7jEYeTo5t2LhqsX25XYAdVSJsrBq2PDWgx3TBgyZfcpGJDHbRxRchDVlM5rSNq5xx0rIG2+sPZaFeOoYZummR0mWyhN/xmqV/NSdjJHY+R0hqZCSacYuoiGazN0uhurbKlfuTvzuUmQORS7EnU7u4cjeSgiozb5FEHFW2PC6QxbnSTNW4iHtKERkMeq0Ltu9+huog4khpa0ELrVaVvn0Q96RFu/cKVSP86i2ug4l5yIhJt3HUKDf3jTl8lYn9y+1WRBVLXRevx9HYPeMEtyyJKioIXnRsp/7hCy7GkzDuJ0lyiHEwPs3F9yXI9V/qrJC0OvsJyspgIgyrigqprRGPuKRR9VAJieNemDo5vKrsGSgKpq0GBuhNN6PbyhKvJ+zsUXgI/Ut40gDRVdmnL09QWo/TQMGbLdO/Q3Fc6Wbn/N+xag5/Pn4sXs/uv2e1TO7l0yrPR60lrSRJ6aDglxf1xAyeXhJPRS+syTgpal+qggU6ZTWfGLtCiZ3r/YNVISoxckr0TaCs3SLkYyqCZvTYpyfKqprNqLbT5gs5fces1gjrabehKZfOdBLlTfS4kF5XjRAOudsegkpTSeL11xu2uvECu0SayFjuojpYfyE32NQ2qkTQ281BWvOWkNnXqMSKrzolTJMZ46Vps5f9WyqC2CS6Se66N2qGkdlV/SEqbrLLx0Sblkiu35m90lutTksPkJ2v9qqEjEMZ4cX1S8wP1CR2jMHYrcsU20fm8s1RPm0klHdSnNfp+7aC+rSc5G5to3YzK6LOSrbS1g54NBd0znlymaj2ups+PFTRt/Znn02BrsSOc/3INqmmTh1dkEEz7Z4Rr1hZvjZvIugxSBK7IAHacRM3be1DKTcxou7jH5GgiDeXu5seRxOUcko+MmG8rN+xERVm/NGce26b9Il2YiZTbaAbgEYbYRztQ/OkJ/PgcCSGhLeuzZyLqZjvODlQlOLU6F419CvY4HRU4zkmBwCcWYWJov3xDfqIJS8zqdJRnncL5lwvQRdvcuG3+XmkJfZ4qvnxkQ+IVHI/oRc0498ZOHBGK4OLti8BZwWjdO6RUQ/xgiftqiFvsfbmdFAptrXZqpLM7xrpYuhA9EbSLldvoEUTuP+5AdNnf6DtZSt530mFmw9oWWUbNdI6MZutO1a9zK7Z9qdf/d7QxhKwfzj3ZRWsv1bRmxblPBVQGbfbgdsjxTgLa4Ujn2JxqaOPDeQKaOxA9geQyuKK4XXc00XKqIwXQTc8nd+6KFKUmjM6Q8VWWfOTsrSQc6HxY35hOSocziPrw4tEiK2U4UeFOTaSU67nJBA27Ylp7CqazWrZs9LDWrxw+3XQmsJbWELVb66lPPGztEwKWlBmamiDgrDUX6hMZuQf9DM8GXbPW1nZSgNz2/p+4M3cDU9/zwwNSW7KwoMG2oMXyMgQsIXAtcV9Zaif7jSEwxhBwUNfiGEORicMQYAgwBBgCVw0BpsiuGvSsYoYAQ4AhwBCwBwLMtWgPFFkZDAGGAEOAIXDVEGAW2VWDnlXMEGAIMAQYAvZAgCkye6B4HZTBuMSug05mTWQIOCgCDrn9XkXnVQrLatHCHbISSuAhi0BUTCgMdDkO2hdXTWw+HF1jgUvMIkC1JTi3sxQt5XTAu7UHplxoFu9lPzIEGAIOjYDjKTJlCX4srIIwOAnT5F4QdNag+NQZ/HhOgp/F+ZljJHDoDhorwo95LrFOOsgso8gcyTLUf1A4VmBjcjAEGAKjgIDDKTJNWzPae70RE+4PLUebJALy8aXIb1dCDT9+cfWuEFhNXQlKthbgIkWBcJYTj1hMC8pP+uCGdanw1J8e7TpdgPM7KTp7LR0MdPOBz9xkTLw1gB/Pl14+i2VwebjDxk8UQLwsBcJjp1BX0kKkfVL4L1+A6CQRugpIhi/L0Uo8Yl0U/E4SEQL5klQE6qPxW+foogAOlrjEtHL2QPn9cQq2ewFtTT0QEBu13/+mYWKKPjKsNU4z4764Eo4uYguIjqDCLlfg0gfGhbLPDAGGwLWOgMMpMoGnDzyIIlZBkdsnyKVkkV2EorkH7hN8R0WJoacR5W8ch8IzHpOfDYfop3Ok1BREndAfM01TchIFb9fA9X/SkDSFomTUlaOUeL6KXBcgYZYh9Ldlni9+ZXCPZxcUXxQj4I6ZmPZrKTR1tWjVR2ztbu8h5o0UyCd6Q+SiQtvXucQ/dhzjnk+DD0UQsc7RRcENrHCJaYqO49S2OngsmYmUKRJ0Hj2OovcoRI1vJiL7onZYbqvhJbtSjq5r/WVl7WMIMATMI+B4mz1cI3DDlCB0lx7Gt9/swf7v8tDsk4SkCA/zLbT31XLilrroCfmvpsCH2DylSQkImWrMJ8TxlRWje2oqYucEQepLeeKnIHKGBK3HLlBY1P7Ux/PlouP5wgUdzxennPiWQRwLEE1LQ2SSJ5xdiEIkOBi+oTqz0PUm4hejMEuegVJIZGQp3R4ND6UCTXX2AoWi9B+5gO7oWEycEwBXX0/43JYKeUAL6o8MrGTottpLFlYOQ4AhcL0i4HAWGRfc8xwF00VgIqYGkPJS1aHi3I/IK5uK1AjvEV8j6/6pBd0iD7hRuDldEhKfI1mGRfqvHF9ZLbENF+xHtmlAWFknuijmoE7tWeD54lOGIQCeQARphPnYiJraCpR+SoF2y1rQ1RdlnQIS90Ubv9LHXoX2+h6IJ/oYsXN4wi2A3Jr1hBMC9MQRFtpqJMKocXRdabPZ/QwBhsCYQsDhFFlbVQnqEISpUYHw4iJSukchhigxjpRXojHMG75jwsYk5baYAvPOM2UQ1Pe9IYCucTTWQY+FlTL68gthln2+R4HyV3PQFJKMuOeJAdqbKqM1tQJaU+u1IUL+ILGGe8FiW4dbKLuPIcAQYAgMZAdyCDy6+6h7TcQlF5sp68FINMh5ArnwulrR3hdVnDY71Cj7aX04vjLi/+ssqSMH4TCTPcogAduaJfDOiNEpMU6Un5qgNsc/NARHl3XpJcTcLoS6ptGorS1oJ0oZkR/hZL2AgTlGmqPLVnlYfoYAQ8AhEBgT9ostSLmPHw/nziqUll9Em4pcWw1lOFdNTNE+fvj/2bsWuKiq/P9lBhiHN8gAwvBGkIfxEoXMZ6Sp6VpqruZmZVm5un/b2ixtbbNy10133bW1p7W1lprZupqaRj4zReOVCKI8ZUAE5DXIMCMz/H93HswwDMyAqEOd85GPc+899zy+59z7u7/f+Z3f1+N29CY4FF7ejajcnoeGGhlayDPwcpbhyhfxld0bBru8TOTt1vB8tZRXofoQOUEc4kjuLEn9UAZRsjg4ET75dRohS0KibHcJZCa0se44usy3lChLkgNgezEfl45UoYV41eoOnIWk0hVeyR22V/PFaHPcFEfXDRqL8jo0l0vVlGzKazX0W7OnzOIGsIwMAYbAgESg1x/Nd7qXtl7RiAu/gMLLP+FsyQ2iVBfC2TMcsRH+hizqt66ZfA8EP50EJbnfn3s1Bzxyvw+8WwRplt52xotIwvBn7FG8JwO5aTKobIUYFOANUXemRhOtveky7HyI2DcKBZ+l4dRRPuycXOE+PgJuxYVdauuWo8scl1gYqfQx1Nd55H7/zXGc3amkDwpyKnl8LIJDbrMtseYizv/5HFp0gnpPGjL2EH3VtOlImmF6DbELEOwEQ4AhMCARYEGD+2HYmvfsRVZ+KEasiLo9WwD6oc2sCIYAQ4Ah8HNB4HYY434uWHX0Q5ZbiGrafKyQ07ocOZ+UpTfDOTGACbGf3UizDjEEGAIDAYEBZ1q0BlDb6ytQti8TBU3kzkFrUW5jxiJiQjceitbQYNYGhgBDgCHwM0aAmRZ/xoPLusYQYAgwBH4JCDDT4i9hlFkfGQIMAYbAzxgBZlrs7eBW5uDsG1rvOPJgDHptKgJ762murED+i8fRNv9hDE/sm3ef4shBnNqudef3jECcQcDi3naJ5WcIMAQYAgMZgQEoyG6gofw8ud/XoKH1BmwHUTSPgGEY5u/e+w24fRk531gkbY6lQMDnkPFGeV9K6Jd77CdMxrgJFJXxWBrSD/VLkawQhgBDgCEwIBEYcKZFVQ3HPXYNdv4JSLl7AuJCnHCdos1fqO63AIIDciBZoxkCDAGGwC8VgQGnkTXWXoPCKRBhAYPhyI2aMBqhdVX4qbIKbV7+t0crMzdbakpxaWce6osaQcFHYKuOPJ+E0CTXTkGNVeUFOP91Luqu0kbi4DCEPpYELwMzpVk+MnPtUDaj+qvTKD1do2mHO3lYpiYjeoKeckZdhFIOaW0T5A4ieDqbK5RdZwgwBBgC1oVAvwgylewaqhtaoGzXd45v5wpPkUu/CxZ1HRQsWK9K0i8bHlTXmyCla+5cIOE7naQtgDgcYfeLIKQA/fLz2bhIfGQlXkYcXSfKEfj4ZIR4NuPq9pMoeG8QHF4eDidaNrOcj6z7ziqIG6zgNBCweCqGUExERVUVrtWbyF+yBU/M2gjp3B34ZmW8iQzsFEOAIcAQsF4E+kWQ8dAIyYULIH7LjuQYeA98eusEYQFObm4UjJbII8tq/DFMJEBbUzEktcRRoryBNq2Qs6CYW5uF2IqHhuirEI6Lg9eJ/Wi41AwE6vebCYkvLCiGC5/kiqBZEaj5cymuSkiQBer4yCYQp5mPRmh7cpxmpcjiOM3GWRZBpK2W6nPyw+AwV9iTcLR3DwPb7XZrh56VzhBgCNx+BPpFkEEYhFCfEmRUaEmvbL0QHHhriC5tfaMR3ZiB8z99BwnhxRMMRqD3YNRdoQNr0Ma4MaQAvZVfZELyUx1kzXrp7hBvGLGXD6GfgYnPxxWDeM1oIX4viC3gNLPA2dFhRChcjmUi69UauA0VwWWoL7ySfCC0M5poYUuwM2fJ7Z99rEaGAEOAIdAPCPSPICOdwT0oGG5VGq3M0S8cxK14i5IQosh7MD7iBmTESSIQCiArJrMdmTKN38+3qAFmiiXW5C+Oo6jUDxHLx8LTX0joNKJs7X5wMsps6rCZWspH1kOJvlGIXRuAhtwKNBRUovqLPEgykpCwLIKF0+oBNnaJIcAQGFgI9J/XolorI+7jW6iNdYKWZwchCTFeexMqq5th6+YBl9upkak1IiXauzhLNqOpVAGHlBh4qYUYJXkTWq4ZSzElZMTj1ZGqGtGqcoIDrWWhF3xkPDvKT7TTBsuTnWegwAluiREImj8BiQv9ARJoDR1s0dqsyibUVkhQK+18KztiCDAEGAIDAYH+E2RqrSwE4oBbqY1xkDajqrgYVeS92FBXiaKcDJTL3BEY6NXJI/CWg+8mgrNTM2qOV6ClXgZFhwlRCAdvPloLKiDjhJxShro951BrSFmmbZzshxyU5pJnIzlhlO0qQKs4CENI1tBqlsWcZrb+Hhh0vQpXzpIZs0mGNgMh1fJDJkpPVKCZKlfU1qAqox5ttMboYKyHl2zFs1MnYsGmrFsOG6uAIcAQYAj0NwLGr7SbK18YiGEGTg43V1j3dyubJSgquwhFO60zOYsQGh9t6EPR/Y39eYXj+5oXgbxtxMN1hLQt/+FIeiUWDiSEvGanoPHTDGT+IRc8J3s4xZNwp3Wvhk718ynYsC+u7zqIH7Xu9xFPDaf7NcliPjL/SAydVoeL2/fjDAlL+3GpSJnvoy7Exk6JxsNnUbGzGW0qewgDAxC+JBauFqyv9SdUrCyGAEOAIXArEWBBg28luqxshgBDgCHAELjlCPSjafGWt5VVwBBgCDAEGAIMgS4IMEHWBRJ2giHAEGAIMAQGEgJMkA2k0WJtZQgwBBgCDIEuCDBB1gUSdoIhwBBgCDAEBhICTJANpNHq77Yqq3DppW3IPmJib4CFdckOHcSJ13JoUwRLvUJAVohzS3fjUmGv7mKZOfqkpfspRJ2FUHDcf89vw7kM432cFt5vRdlqdyxETEy45m/KOmQP/C71G7rWJ8iU9Sg7/yPST36Lw2n7cfR8dZfOqprLkf/jERw9vB+Hv/8euZdpf1SXXOwEQ6ArAg2f78KJTYV3fr7YusI9yQ9OXKjNm00c2Su93Esrb7Ygdv+tQiB77UTEzN6MYoMKpF8uRkziUqRZKJA8536C3NyLOPWn8RDcqoYO0HKtT5BRqAyVjRO8AsMxxFSEW1U9Luacw1WeP2KSxiIhSIjGS4yPbIDOv19us+1EEC9MwpCbDqytRO3BQihioiD2/eXCyXr+y0agfzdE9weWXIirKC8qSY6yqvNdSlTVlqGq1QWB8WHw5HYPO9+FoNrvKPKSFfGRdWm18QkFGg6dQenJq7h+TQaVLYWmIpNB6K+j4KYV3rID+/HjaUf4Bl3Htbxm3KDoiG6TkxGRKtJQ4xRn4szfquA8wRHNmVehuM7HoPhYRM4Pg0Nfg07K61D2rzRU8mIw/LdRcOJV4eJLRyB/+GEMT9LsolZlHMPJz/mI/us98NBtrFbJcG1nGvJOVEFOMS85zrPIKdp2cl2ncit3noUki6KPyGkTe0gw/OcnYIiPwc7snO9xcosSwYs9cG3XRTRcVYDn7ouQF8ZhSDNpHOsq4DZThOtHL0NKNAuCqBhELIqCa8enqQbTomOVFGlFCZ7IBz4ziQMuXgNo3cdf4NxphXYgTuPk08RvQ8lwA7n5dirRfOIsCr+hNlAdcBTCOSYG4QsJc+Mh7u74RinO/d/3qFN/hTvB9w8zMTSsc+a24jwUbM9HnYRMvo6E55gERMzwo632JlJtAeHKh9dyHRefDJK3duMKbdhHOT0TflHwD6TIMUfqYBeXguFPBtFMsmD+pdFG/aOuCBghQ/XJKrTK7eE8MRkxM/201Ezmy6DYaWjYdxKXDtP9Spq/E0Nh+0MuFNNmIXaMpjcq4u4r2n4O1QWNaOMJKXhADMLmR+jHVV4DySenUfZTI1ROIviMc4XKBAzmTnXL/aesQ9Gag6gbORVJ0/TquavrpgAAIABJREFUseIEMa/vcUL02mR4GDxPUoqQI7d1gafbrdCJmpD96WtY/9kx5FfJYR+cgvnL38Sy8RZ+7ZxZg/EvnkdUSA2y8gWY9OxstO58B2nSUCz+x6d4OvZWtNkc8rfnuvVpZGb6fb2pCW0Cd7hRWEdNsoObixNUTQ1qPrKBkZRQtArgOWM0Yl+diRHPJ8KtPhfnt5bSo69PKqKrkXolY8RbD2PU0gDc2HMcl3IN7BCqOiLl9EH0nx7G6DdGw6X0LM7vsXTxwAgpYyHWC2GoqirB1cYgRPxxJu6aI0LrvuMoyND1pBmV76eh5IoIQb+dipGvToC/VxUK385Eg3GcyrarKNt3HZ5PTMfof8xC/LwQOHQIyzrUFrog/I+zMOb1kXC+nIOSY/qVueYDaTh/+AY8Z6dixJqpiJ7Iw7WPj3eY2zwefxjj3luA2HEU/zImGaPpN3esi4LChT4z284aEjA7KmA3aQJGvDkTiUuJCHVIL78F7YIwfDPVvbHzC7JjNJpKUfCvHLT4xeKu12Yifr4fFIePIy/N1CqkEg1pFyENioQ4xDBcC82vQf6I/G0MhMXnUNkchfjlUeBn56G6lqvJwvlXdxkNgljEvzUPKb+l+Zd2FmVlupaaL0Nx9hTOH2iG65zJGLFqNAZXFqG6yWD+0hJBwYYzaHKPRPQrMzHyDyPhVp2DvP+Ua02/FIB7OwXgvuyO4N/Tc7I4FG2nS9DSa0lGOBH3n+MsasfqsRhiV0Lcf+egjirH98CQka5oPVOqOVZ3T4baszWwjQ+Cm+FzoDyFf84djfFPbulkIuwYu5v8UfzxU3j2MynGvPwp/rd/N95Z4Ix9Lz+F93qzjiqVI/KZD/D6ZDl2bTqOyL/swJqREmz78tRNts66bx9wgqztBr39bO1g21qOnOPf4seyZtjZ02xrU0A+YASZEF4zkiBO9IGTyAlCf38ET/SG6lKVwcNEE0foC3GqhzqGpG1gDHxjFKj9odLgi5TKmRSh0cCcfBA41gOtZ0s78cJZNP1ajTSxXggxdfkCH/j/Ogyu1BfX5AQEUjvr0is1LyMKJVZR4IrAJxPgFeIKIbFlD5kzHB7Nl1Hd5QHlYzBpUUP87cGzsyct1R+uHWxATvDk+sp9VLr7QxTBh7S0XoPFjQpUHm6Gy6zRpKl7QOhJWsy4kRAHNaLmjEFg5p7AsKSdda1QUGBn12giTHWnmJqBfvCdFGS5NtZT/dpripxC1MEXwVo8neITEJpM5vOTRV0dappKUH5aSbiEGbEZ8OEYRnMr0AfObqQBR/jCIdgbzkKKuamOk2b5/POj+ceJatsweqm7ydBcqnMMMlcGCYOTtGgXF4ewZBoTGnffueHEvKdPstN5qBVGIGJeGNx8NM9B6Mxg4CfCgIsZKq/ElSwFWSIS4RtC10PCMHSKlp/PAiwNs+i4/4Q+fmruv0GVHPefJofDqCA4XyvBFZ2Qri1BdTH1b3Tf6uq2aRc2YobOWYP+T/nTUX1WEpKffFKEUf+3Hk+PJzOxXyjiZr+Ep2KKsO+bvG6L7HLBLRojE0MxJjGMHst4jBoWilFxYZBW1eDnHBO8l5+TXWC7Yyd4fHvYD+Ki7dOX6IARYHq4ZFk5KNxXiKYqCvSr00wE/lBxX5vaj2ueuxsGdVgD+BAMpv4WNKAV/pqXJ48e7sH6Mu1FjuA1N6KFlCG9xmpuiJSQHjiOxjYlhPdQAOLeCjEqnudCgYg7NGQSQL5kzsuiaP50bVAFtedGDYpe2ooio6Z4NKo/ifVneR5wDjLULAxuILMTx7atSXz6lqF8Mu3XfUMdpNcVaP7wCxz7sHMltoMt88hss6SdIRTUWVyIoj/vxbUIEZyCfOCZHGQgbI062IdDWRVpXoNDNQJbe79TAOH5A407zRMng/FpPpqPBs9wJMZ0xcyGPgTAV4BP+YkoQp1s6FQbNyiULJp/Tg7EkafJDz4fdlROu1yvUfVYBond62QcGBTlrg/m7eIBB0c+6TuadL2czIWVNchYck57RleXCArurdtOfVYI4eLXMblgSxx+g3gVnfM3FSBn5dkODd9hGpkJZxhw/dEc65b7L5Cw8wyGV1gOyk5XITTER/0xKBUFIyywczXgp2DVdxexyui0xYf+C7Bx/Wz4aYerKe01LPpYe3dlHorqybT44gjEvNi5RGe/RourAJk9uVeGQECDTX8CqktgT2da5bRYQysxlpc0oHIOOEFmyz1N9OZX2HkjcqS3GuzrxZyW5gDB7aRxuZlh5kxUWwpgM42cVSYS0SXNM1UWrRF9rOxs/1fRS8PwXU9CTi3ouktcXu66/l3TXc5O53lDE3DXhCYUvHsal6KnIjLW5GqM5h5DSWtR6fQidQrqvKbW3X08Hvg92Qi6vK8NfFVJqItXzESo8cunu7pMnDfbTnLQCFoxC14XK1FH2vO146cgOSwhs9g98NSubZoo9tackpWj/IQMbg+TltrbGiydfz2V2x9lUPmcmTdlWZh23c2oQs5KTvOBZzjuXeYA5XEJRvgrPh3fszZOFg5Gx1zTaF8lu8iaMUuIpoxGomEa2/9s6o6eCImOQoi2m9JcI5dV21A8/fkBLIvuCfheXDOFVS9uH0hZe3ptWGU/HF1cYCuvR4P2yxLkBtHQ1EwvSzc4DxBBprpMar6tL/xSNUKMA7q1qqmLkFLVN0LaoVAo0ELaG8+LtDTdyKjoeoVearVU0vphJ+1Ik1HV3AwZUbmYloFkhooJgGtMAsLH8VG77Qxqm3QV8NVf8apWfR3yRkWXclRNpHUZtrOStAoRMV5TMbZ+rhDI6lGvNePckklFXHQOZDaTFphaRzKqkXsrKrtKeovbSZYAh8ggiGckI/alBLg1V4L8FYySEm31hHmT4YqncR7Tx0Iveglfq0OLAR1P82VOS6NxN9DGZCfJLCcIQ0BcDx8dpquApfOvm9vVp82WwXeCI/kotNLWmI5510T9uq7H3tGfXuSXa9FkzI+nq9iN+mwrQ2ut/h7VVSmZd41bRswOxLDuoP0TOhm/wXvg/tMWZXtXGDxuXMYVWnOsqfaAd5JpYSgle6RE/4AYN6Tvx15RCHWWID3DggeFU7kUGg2r7xX+vO60QkGmIm6vJkjp5Uh8kVDdaCZBRcdqci/6OvMMhM+gJpTnF6KWXtANkvMovWYHL7GP6a86KxwvtTBqo5d7meZFp6osQNExE2s5bVWQ7CxEY00zGn84g/ICe3iO8jbgXaM1sz2ZqC5vRkshmSYO10GYFASXTs8xuWd/vhdnVp8EycoeEtHKzEyGr5AW4D/XOp1wBJ9+5AaRXaKx4jVVQHLSTDtPZ6Isl9qZ4qsZD9pGIY6UofKj7yHJJ+612kY00jpQ0YfUbgvkTg8N1l+y84P/RFdI95MzzA81aKltRnNhOWF3DKX5nUsQeJOZqpzYsqtIIN+gCaZ7R1rSTvImvLSPvtpJUCtofjbQeiW5MsBZYxjQV6SsQfG63Tjzz3y0WNQBfSZ78sZ1QyVKtpeqx705KxNFp2VwSgnSawg3aF6QF6LLvbTm1BdTsKXzr4e2m5/DQniOpv0A2dkozCBvVfL2qyRvVMN1GmFyFDz55Hixhfj6aA7Lqsh56fQ55H9eqMHNzhdD4u3RcDgPzeo1szqUH9E5gvTQOBOXuuf+02YW+MI7nj7k9hEv4NBQeLmbKIRz9pg/Efc/s7X/nT0EKVi4MAr57zyPN/dmoZiIbouzDmHbhufxnpGfhnNkFPwajmL/wSLUEq76j10Tbf6FnLI+02J7PYoy01Gh+5iVXsCPtTQa7tEYmxgIe547wmOHo50E2U/pFwE7F3iRaWyYVx+e6Ds1yP7ksj2zARff242T9IVv5+4J33H+aDrQuUE8b7LdC4qQ9/pptJFbu8fMsRhqaPbjkTtyvBzlG/ei+QbxniWSe/QMUd8JRsl0FvxYFOreOoOCE54YPsYJQx5KQt17mfjx+VwIhnjDN54WwI8ZtZPWE7yE+na6zaB20gtIk8jFfHEqsCsTFR/uRxFpbrburnCJDod3x/rfzQ+E05RUDLejLQ37jyBjK00eRyc4Dw2Ar2fnsoXkjBKQfxolb3yBS/RtpHe/t6Cdg/hoy6MX7bckyKgKW3Jg8Hp8NMQWekdzLWncuRvZhh6Ib20lsUUpMgmjl0fQEkcQIp9tQcEXGfjpVQJLSI4r48ci7F4D1/Cz+ahWBiPybtNag1k0LZx/PZZjQRn2SSmIrj6Ji//Zjyskhjn3e0+XXLTReps6Ofkj4vkUlOw8h0tv5ZCmRevePh5wS47VbjXgw+PXExD4n9M4t5K+SAY5wSWOHFeKr/fYtK4Xe+b+0+SnupIDIPyhkD4GA0xvdehacL+eCXn8A2wRrMOmzU9hTiW537uLEZowHo+JjaoJewJrnsnDS69PwS76MhDP34FvVsb3a1sGWmGMj8xKR0y9jyzDD4lqsk4TSb2PrA7itanw7XCCMJGPnfp5IUD7nkrfOIhrI6Yi0WDf04DopLwc51ecgd2TsxAeY30tbqM9kumfA0PfGEcfZtbXPtai7hGwQtNi941lVxgCv3gEyDvTllzyw8iUavWJvFWrj1WguZbMuPJm1B3IQ4OjHzyHWlnLbyigqKlAyYFK8OIj4MmEmJUNkPnmWJ9p0XybWQ6GwC8XARcfcjShqB0DIZHXrfTMWVza1Yy2Nj7sA2m/5DNJ8OhHk3J/wNBy4CDOftMM+zDa0zazn/eO9UcDWRlmEWCmRbMQsQwMAYYAQ4AhYM0IMNOiNY8OaxtDgCHAEGAImEWACTKzEP2SMpCr/ofbcPLD8i57xcyi0Gd+LSWq39+GY09vVf9ZVvdNtNNsR1gGhgBDYKAhYH1rZBwf2YUiVDXU4zrtHeMNGYHx0Vw0fF2So7Y4l4j1aG9ZM4V3GhSCEXcPg9sA2Qw9sCYIJ2S+QL4JUkKPx+dheLLBhjUtvxZtPetlosjti+fBizZ01VKIqYJe3s2yMwQYAgwB6xNkHXxkFEWdNjtf7TJGKrQp7eHiEwKPxmIU/ZwjYXbp+x06ERiF4Y8E0R4+ff18T6PoCWp+rV5sqLpDXWHVMgQYAj8/BKxPkJnhI+Mid/sMHQ7Ob0taWHbbBVnz7r3IyqXNna01aGgXIWCCENVfl0DhHobIF8kji3PdpZhFl3bmob6IIllwG4C5jbMPEDdWkqtms7JSw/MlG50A+wLinaqgTIPJo+upFPj6agWEuTKoGllOJi5+UYCGRj4c7oqBqC0HFfb3IOVJf+2m6J45urjpLMs6i4tfloACVWDQXZHw4MIXGkc9GuRIkdQ9upxWPw4W8GuZ5/lSl9RjMttOZTOqvzqN0tM1Gsxp0zXHixY9wTB4LFWhlENKIYbkDiJ4/lwjqPaIJLvIEPj5IdAva2SqVjLx/fyw6bZHKpkQQ5aMha99BZFj2mPoS2MhulGIihxtOBIpBSYShyOM499Sc2PZof6T4yjR0USoSyaOpB/rIVpE3FsbpiPYoxJFu0v0OJorQx20tRBtCfcg8U+TEepHlBeGXGVUgzmOLlRRGR+XoD1ptKYMn6uoMiqjWxB0F+zM8GtZwvNlrhIL2qlIP4sC4sr0XjwVKW9OR+yCcDiZcvMu2YInJo3Ggk1ZXWvlWBTor50LW0Xx/HT/G/5Wn9Pm61oAO8MQYAjcCQT6RSO7LjmLjKsO8AsORzCFmeiXQu8EGhbWyfPzgYcv7TcJsEcVz5u4lHygoDAyZcT2rFZnQqIwVBfims4Ix8XB68R+NFyi4IKB+rBCTqNj4Kk20TnBK1GEoj31aj4yopAyW0YLEQE2OgcjbqY/1DFS7ye+rzP7UaXrg46j6+FU4ujSqFhCjqMrYzcqiKMraKYHWjKKNGVM91MTWDpMS4CPYRm6sgrO4tTTZ/XouIRh+F+IGNLIuqjPYPBLx/P1OrVPG79OSHxkdSsyiI8sCW6RJu/qdNKSdrZRfEUuMOTgMFfYU7vsSUPuVQAnToBxwoti+pHSBhvuN53j0WTm/ueICHi0DttOn358EpA23B/3GcjWZs0PIMvBELjFCPSbzGmTVaMsrxrlJV7w/5kLNB7HgcYl4sTiaTkm1P9zQWi5JKMAqV9kQvITBUtV09BqkkO8/jfHw2VP5Iy6xBPQW/GGXO8t2GMZSrRcaQTPJxxE76RJ5GXhPISvF2RmObq4Mujl7+PeuQwybXYIQ13jjNfI+EQqaYkQo/st4vnqQMHUD8va6TAiFC7HMpH1ag3chorgMtQXXknELmAcgjNsCXbmLOlSkVpY0XeIotoGN2ps1IKrncwM1FW1rGojJduGyrKhJ8bOsx0Cr3bwKHaYDRNkXbBkJxgCtxuBfhNkuoarOIF2oRHX25JwV4BL3wPY3m4kelOf1iDbyS7LHajlFNGzf0H07KV+iFg+Fp7+QsKgEWVr91OgV6NKuhUGvSijp3b3yNGlaQwnf7v0w7jMntbIjPOaODbL82XiHuNTZtvpG4XYtQFoyK1AQwFFt/8iD5KMJCQsizBiTzYumY45bYyElrLJBvLLNmgt5eHsjnZ4TCXFmLRITlYpG2zww9cUh+/XKgQF2sCWE3D27WrhxrQyE5iyUwyB24hA/woyngBuQ4IRGhwE9w5q2dvYG6uoqhlNpQoi5ouBFwkxdZI3oeWasRTrqbHmyiDnjiGuUJ2iLQpUrCsnEJXETXaFDvy15ao5unI1HF0G5kx9rZoy8ON1NWWGxgxHVBp1VIbhboeemmnBNQ3PV4Waj8wjsKcbqBMUFV1lwECsyd2LdgrICScxQv0XEHkMp7ZUokFOgsxwrUzZhFqOz8ZFrHf24CQVZza0aYdSxkPaW8A5Oh5GgqtQ6/iiUrSjtcIG6W/ZYN76dsRw0k97X0+9YtcYAgyBW49Ap4/xPlfHCTC/YUhMmYARkSE3KcR65iPj2tgm4/jK6CXOEZa1t+I6x1dGpDzW4XBCZjdvPloLKqCmUFPKULeH+Ja45TOLk/kyHEYGwbWpBCV7K9BCJI4Nh3JQfc2gAgs4urgynK+VoDxL0zhFTj6IN7B/kyU8X9oaHYNoE9qlElQWc3xfNJ4aCjpY0s6WHzJReoILUCuDgjiaqjLq0eZGZIvGn2olW/Hs1ImdnT20zhs2KhvSsNoxenY7xJ42SHoQmDQHuI/7o9+BonaMot/BnHCjvMzpo3+nCiuNIdBXBIwf8z6V4xwyCiP6dKeJm8zxkdEqUu2lH5BbraOJlSH/LDE6kdNFzPhE+PSPaDbRMEtP2cNrdgoaP81A5h9yibmaeMLiw+EjJiJGS4sghxGzZYiiEPF4Kwq+PI6zaRr3+yFRVajg8zpMhWY5urRlXNy1Fyc/pzU7v2C4hfHBMcxbmszya5GuZykfmfAe2qJw6SRK1u9GkZIPz8UPIzqRNDUL2mljp0Tj4bOo2EkBaonXShgYgPAlsRpt1VxnSCbZcCZWx3bCgKjvJgJzo2h7h3M7HLR8ZirixAt5hrwiad+HHQk0PuXl7mFmRXPgsusMgVuPAAsafOsxvk01EAvz38gjMWQyksgjkaVeIsA5e5BKryI7q6qFnD1U5MxBUspmELeARv8UdI48QmzIu4MTYpyjB+fRyARZL3Fm2RkCtwCBftHIbkG7WJFmEZCh4YcKqIL84CLiQ/ETbYYudYLHLCbEzEJnKgNpZZxgsqFN0nyHdlovo99q/3ttZhJsHedIE1N7K3J/LDEEGAJ3HAEmyO74EPS9AYrSiyjddVYTycKDoof8ZiyCe3So6Htdv4g7OeGlFVBdZBQJtI5zXS7+ItBhnWQIWC0CzLRotUPDGsYQYAgwBBgCliBwx10jLGkky8MQYAgwBBgCDIHuEGCCrDtk2HmGAEOAIcAQGBAIMEE2IIaJNZIhwBBgCDAEukPA6pw9FNXnca6kGtLrtCG23Q72Th7wC4lBqEgbnqHlKi4VFqO6oRlyim3IG+QK78BoDBX//IMVdzeI7LwWgYadWHTvO4j89DBeiGaoMAQYAr8UBKxOkCnBhbmiEENOQtjZKNBYWYCic2fBG3kPgimOUlvDFYpc6A7xUAoSK+SjpeYiLhWkQ8Efi9ghpng7filDyfrJEGAIMAR+mQhYv9eishzZR89R4Lv7EOdnHMqcG7RmFJ0+jjKHRIy/y/vWBynuB1JMi8g5qWeK3Bxc2l2IukoKIeXoAY+JCRg6xaczweXNEEWeX4f7H83EqEdFyNufBcl1AUJTn8Oal6cjhL4Jit+egjkn/DGqhaLKtyXj6d94Yd/mnZD4LMC6j1dgLO25knw8F7/6nxjzhkuQdoJoYfhijF20FmvmR9EniaWpCdkfrMTqT46hQinGqIXT4fzfdyB95iQ2P+hCYb7ysOv1jdh+KhPFVXLYe4ZSqKjleOWp8VCz4FRswYKp65BtHM6Sn4LXjn2CWW6adsjLD2HTur/j6/QiSG3FiEx9AqtWLkBk1WbMmX0MD+3ZgXkU2aNTKtyIGfOysPBbKke6F+s3bEVadh5q6gHn4BQ8sGQ1XphEHD6UpPuXYtJaAV7/dgNSdcQGyiysf+BRZM87gK2PavIZ1cAOGQIMgZtEwLrXyFRyNJRT4FcbJzi7mBJi1Pv2G2rKDYHA/tYLsQ6wb5IUk8oxR86pKsxEzoeXgdHJiF8zE/EL/dF2+DjyjxH1imHqiSjSksnRloVjJePw9z0ncerrNxGXvRLL383T39kkwkP/3IRZjoew/isXrPrPJjwg34qvjlLgXW2SFx5CfsCr+N/RH3H0n5NQsekprD1BpF4WJun+lXj2fQlGrdyB/32xFmMufok0Qy6ZNgqIbD8Kj73+Kf63/wA+e2M6FDuXYcUOiaYGv0XYmnMRud+/iVECMR7bQb9z6S9HL8TQcBRrn1yJdO8nsPGLw/jfxy9hVOlGPLvmEKQB8YhzK0J2ftc2S8/locIvHlEcmzTRaMuHzcbKf+3G/w7txsYFzkh7+SlsuqBphvOE2RiLY/j6iB4b/LQXabUJeHAyE2IWTgeWjSHQawSsU5DdKEfG4f1IO/wdfiy9AZ+YUQjthpZeVlmEihuDERigZW3sNQR9u6GDFNNOQ4qJyxpSTHVpHLHmjDB4hLhC6OkKN45Y06cZUo5YU5t05JzuRM5pG6Qh53Sjd12rmpxTgauHCtA2IgmRE/zg5OkEp5jhCB0jRNOZy+hV/GGz3RPjgYVzIObUJ7cUPDYvARX7v9RrNxHJGEOax8hIF3jSOMTR77ihpARVGURkdJ6EeY9qNDBB9CI8liLHob3H0FUsmGpMjTovUpfjhalREPvHY96KJxBnmFVA7Vq5CNNG0nU/MUJSFmHxvS7IPpNlYR2kOe5/B18LSZNcOYf6IIZ42CQs+/0MDDq6B8cV0YgbLkf++SJ1rdmfrsKbX2p+5+Weh/PwOIRwml/0Aqx6Zg7GRodC7B2KuNlL8GCwBOmZWiyEKXgoVYD0/QchVZckR/r/DqJx9GxM8jbsEPvNEGAI9CcCVrdGpu6cnQ+iRrqirY0ix1deQsnFXDg7J8JPz0OpztZWdx4/XZLCM+puiI2u9SdIXcu6GVJMTWk9knMSJUtzpRKKnDScOGFUu6gVXNB/Wh7UpG6IIru2uZsztv7w01G/UBZPXzHsayUoopiD8XRsby9QmwgF9P8g/iDuFwS2AsjlejEl8PZXmyI1SQC/QBEUP5Srgw9r9JAivDd3Jjad19wjSFmNgx8sgDoer1KCklIgdF6Y3hRJpkOOB6xCVySVlP7xX7Dpi2PIr2xCB9NLCmFBeSwxYRbnF0FemIUZsZs7SlX/4Mejqc4FY2JDiTn7PKRkqk3buQdfOfhh3oMzkH+hCaEPJmjqkOZh24Z12HaUTJy1+v5HXuc0MJG6JaPoHtcnv8ah2jmY5XwK+4/KMXblOHTzHda5LeyIIcAQ6BMC1inIYAehE2dKdIGzmxBtP3yP0vJ6+IXrta62+gvIOFeNQeHJiPGy5FXWJ3y6v0knSLrksJAUU6sLd1KJuYOOdR4+nGZNR+IkDVNYl2r67USrQZ0GhRqvNxnXZ3RdLVx0mLQZ62KhmE8Bje/jpA6XHEQaIWZcZjfH0r2vYfn7NZj/5x14Z0wonKme7L9OxKJLnM5Da1Xd3Gd8WjB+A354e7ppwRedANHWfGRdqkG2eAHmNWcjvTIM+cVixMXROh3VdHzDU1ifPRlrPtyE1DAXKkeCf8+dgn2GWMRMxzS/rdh/SIJJXntxCJOxbhx3P0sMAYbArULAOk2LJnqr1JFT0bW2hovI/qkCg8KSEOt7W1UxEy0zPtWZFFMNcG+JNfmucPIlM2NhlVrj6DFxRJEVEtRqbFk9ZjV5sU2CCxf1gkdSWAgF2Ti7M+WaKkNeUYjijvqbkFdSA/tAf7WOokvOfqRlBWv/vA1e7OQcEhwEFOUX6s2EtUUoJmcKXco7lwVF4gI8Nl4jxGixCkWXa0yaFdWfNCZAC4kMBfJPI707u2xkPIaRU8uJr9IhSHkE00Y1In0baYCCBMSqNVYJ8nObEPnQE5imFmKU5IXIrzAS2vwoTPtVKLL3fYnPvz4G10kP0LpdR1fYD4YAQ+AWIGBlgkyGigvZKCIHj9r6ejTUX0XZ+Z9QJhPAQ6TRxlSNhcjOLsYN70gEOquIYJMj2aQ/NYulNSTzpJjmW2kP73vDYJeXibzdpWisaUZLeRWqD51F/iEjtjBTRJHmKzDIQWtU725EWqEEkqytWL81D34zZiOuW43TROGKY3hvw156qdPL/r/r8MkpF0yanmxa8+lyu4jyjgPSNmL9oSISyuShuOEzZBvk8wsKI8JNEkLECcYlySGuDmOtjy44i+HnRmbIw6eIyFSuN0HSJfHURUjFHqx9eQuOX6C+luQhfe9mvLqWvDC5Qp3J4SOkCF/tbUTc3eTRODoBxf/dg4rIOMSrBZEI4gABis6cgoTTwJRUz9vvIM1LmcOAAAAgAElEQVTEB0TIJMLvwmZsOuGC1GkpFuLA1cESQ4Ah0BcErMy0yKO1GCWulOejvFVOG6J5sHf0hG9UHMJFGq9FeX0VGtqIVFOSjR+1TmvqjrtHY2xiYGfX9L4gctP3WECKaUEdvIgkDH/GHsV7MpCbJoPKVohBAd4Q9bep0TYFs1Kb8N6TU5B/3QVx01Zj4zPEKtmLJBg6B9OExLw883lIHaOQ+vwHeGGM5eY056lr8U4Fud+Td+ZXShG53z+CVM+N5CKvUWXEs1ZjzcWVeGPmCLzhSAIldjYemi7GJv0imqa15G6/8Pk5yP/HYoz/mASdofu92ySs+fcGvL9hM1b/Zh1qyWwtDkzAqIeeBfFSUyITYrQI8toUcm6hw7ZRiOdvIQePBK3p0gXTVqxF/it/wZxxG+HqLELI/bMxL4YEojFWfpMxdeQ6pEtmYFqM8UV2zBBgCPQ3Ata/j6y/e8zK0yOg3keWh6e+M3BT7yU+6n1k+8Zh55dLENLLe7vNLj+EFeNfw6C/ncRrKd3msuIL5NwyeybSUndj5zNk0mSJIcAQuKUIWJlp8Zb2lRVurQjI87Dvy6PIv0oeiTJyZ/+AzH8upNUkWGuDu2+XvKEG+Tv+jm1lCaQ1MiHWPVLsCkOg/xCwMtNi/3WMlTSAEFA1onj/Ory1jpxWFAKI75qMF/6xYuA5SSgPYfV9S7FPQA4fKzd0jRIygIaENZUhMJAQYKbFgTRarK0MAYYAQ4Ah0AUBZlrsAgk7wRBgCDAEGAIDCQEmyAbSaLG2MgQYAgwBhkAXBKxujcw8H1k5cvNKUNfcog7VZEt8ZJ7icAwLHAyr60wXuNkJhgBDgCHAEOhvBKxujUxWXYjKVge4GPKRXeUhWMtHhuZyFFWr4OjshEH2wI36UlwsqoPjsLFE88JCKPT3BGHlMQQYAgwBa0fA6pQYoVcYDJ2W3VwUqK86h8ZGitzBxV908keoYfhBVwci1zyCkvoGwO82hBi3Ij6ytuI8FGzPR52E4i7ZcxumgxH8ZAI81XuRFbiyaRdK+WEY3FqBaxUKqJxE8Pv1aARF0hcAl27UofLzTFTk16G1ieI6uXjA7e5YhE3z0wclpmwy4kUr3lOIBuJFUwmIUueuGIQvDIODdnZbxJtGeaW1FFbKlqLou/Xyg8MMbxrOrMH4F88jKqQGWfkCTHp2Nlp3clE3QrH4H5/i6VhNfdKcLXjjrx/heG4NFBTv0S9mBl74M/GqqaMXs8QQYAgMVASse43MLB+ZCrKaMtQ084ivzPJIEjc/WFbAR0Yhkko+ykFLQCLxlc3CiJfGIjieotN3CuZLEfRzq2AzbSpSNsxC/ESKKP/hSVzR0WWpZLhh543AhalIpKgaicR5hhPHUXBETzejKjiLc+8W4EZUImJenYkRy5OIzFKGVm09FvOmKU/hn3NHY/yTW1DclwEwx5smlSPymQ/w+mQ5dm06jsi/7MCakRJs+/KUpjYi53zvpY3IH/YqPtp/Egc/fxu/SyUWzU549aVh7B6GAEPgTiNgdRqZGhCOj+zEOdRTJCrQF7y4Cx9ZM0rOHEcR90K2sYNbMAUPDri9wYM7+Mig4SMr2qPhI3PjYhRyfGQGYS6EHB/Zif1o4PjIAjXqpI6PjEd8ZFU8DR+ZgjhPytR8ZNDykU0gPjIfDWGoJ8dHVoosjo9sXBSEKqIwof4PCvMlvjJOwxJC6GMYplddDBAejsAIjQbmcE8kRAeOoDpLhiHjCC+BHwLnG1AiUx3+8Rdx7mItVKlOVC/Hi0bBfKOSEDczSBv+ywniBbp7dLxpPbRT24yb/8+AN43jJyPetG0fEW/a0tUa7jK3aIxMJI6wq0QHkxGFUcNCIYoLg/RIjZobzJmCI9dQrMaQxGRE+nEfPSKkBnNENSwxBBgCAx0B6xRkZvnInOA//B54Km6glVsjKz2PS06jEHnb6FysgI+MNKkhyU44v3Uvzp4mQRjkAffEMHj6a82G6plJ7SRiz44zfCc4UOzlhiucxsUJfhkaDpxB0fdX0VJPpkeddhJBcS7pqj3Hi0ZMzQ7jfEzHsOwNbxrFPVz13UWs6usT0wNvmpqEkz54OAMixxROATshoA8KjkMNFLNTTfUiSMa0B8V47o9TMGdvMsVVjMeo+2eo6VhYYggwBAY2AtYpyCzgI7MVElcZvYudXd1hKzuCjNJyBNH62m3Ty7qNDn+7+Mjs4TF/OkaNofWv/KtoyMmnyPgX4fN/0zE0Qt84lbKz7UxpcKw4fRrnD8rg8/hkxEa5wpaWIBu378ZPlb2Z1FbIm2ZybFyI4PIADj50FOlnsnHm6DtY8fFnmPfhbrygCW/fm06zvAwBhoAVIWDda2QGQBnykRnjp2ynM21tFC3f+MqdOL69fGT2/n4YMikBkX9Ihb+vDPW5jYaooa2qkfQubbpRj5ZrpKUN0Zg3W4rroAol02OsRohxDiLXa8ihQ5ef40XzAVq640XrDW8alSm9SvQptboFul6OTT/wpnE1eg4bj2mPLsdrH32KxWESHD9e1MuGsOwMAYaAtSFgZYLMPB+Z9HI2sfaW03rHNTQ0XENVcRYKquRw9PSGs401wHub+MjkFSjbnofq4kZaK5OhJacIDbV8CP2MGKXL8lGYVoWW2jrU7jqHWqUPvOM1eqvAi/JWEC2OWrYoIcs4A0mBoQZHvGiptOaUl4P8PeVqXjRZZRWu7MpDgzpbL3jTOGeP+RNx/zNb++bsgZvkTZOdwr//ugVpORTPkbwni0/sxYnLAoSE0MIkSwwBhsCARsDKTIvm+chs7e0gryrE+TJaxyHVwZbcwd3Jcy88VEO8eedH4zbxkfFoLaihHKXv5EJ+nVznHcl1fuJoRCQbrZElkJt87mlkfNUMnocf/J9OxhDtspBwXDLCKk7i0uovcMnRnlidQ+Gb5ISSa3oUeZE6XrQz+Okb0u2EWvd7rfluwPCm8cijs+oQ/vn7d1DBaYWeURizcBNemc7WyO78M8NawBC4OQSsbkP0zXWH3a1HQLuPbPAEpMwn++BATv3AmzaQu8/azhBgCPSMgJWZFntuLLvKEGAIMAQYAgwBYwSYIDNGhB0zBBgCDAGGwIBCgJkWB9RwscYyBBgCDAGGgDECTCMzRoQdMwQYAgwBhsCAQoAJsgE1XKyxZhHI+R4nlx9DLcWYZokhwBD4ZSBgZe73tCW3+jzOlVRDel1GG5ztYO/kAb+QGISKTERMl5UhI/086nn+SBwzHO5WsY/slzFx1L0sPosz6ysweMVMhAbq+60id/9Tm2vg98p0BPneZjw8RBCNoBiUVvyJZlPzLniNcVCGBoB38V3aCvAyVIMNYtIoK2FTdQC8hjKA2+RvFwpVwEK067IoCmBTsR8212tgw8WycRwBld8UtBvuvOipjMYd4JfldB0YmwCoIp6hcmrAu/R32HTspNdnbfdYBJVYy0/B1VHxFXhN1RTz1BlwmwTlkFhogoPSqaYjsKnNpnLqqR8UNkYYjnbvGcTCYNDX6wfAL6GN+VGPAFf+DBvlQ9TXiK5tY2cYAj0gYHWCTEkR89yGRCDAkI/s3FnwdHxkus60N6MsrxhtDvRQtPbQQ3bp1iEQ6A83lwI05OmDIXOVSfOr0CYKAO1Rv/3JPwLhC25/tf1XYz1syraAd4Ne+n4kvDjh1FrTIRyAevDKP4NNewpUIY+hnVcHmytfgHd5EAnGCSQ9uJaYKcOJBE7YGIMmt8Gm5jPw2qK5Pe6URCRMlnZiBrBpy6E6sonqR/fFIoNN5SfgtZDwC5pL8vYCXScBCXco/QI0ZTcVUMDLEWgf7It2fivVQcK39BPYhHPCsv8QYyUxBKxOkJnlI9OO2fWyc5AIIhDlUIwMye0eSBKi6/aiOiwFYnkBys/UQabiw2HiWCTN1OzZMsvR1VSB0q2ZuHKBInOoaDMyRa4fMmcsgjriJCrR/MNZFO67DGm9kjYzi+D1YDKGJmojd5Tn4Oy6Kgx5fTLE2r3gDVt34VxTLEYvCdN9FKNxJ8VOLA9FZHwjyg6Wo5n2AtuHxWL476Mobj+XFGhIO4PSo5WQ1lE97h7wSE1AxASRpgw5cZbtPAtJFvVRTpFDQoLhPz8BQ3xoRzRfBE+KrH+1oAqKKWHawMLN6ij/wkh/OOliHvZUhm7oOJPgFiWCF3vg2q6LaLiqoLb4IuSFcRhC/euZe40KySctcGMh9YaSwB/RG8bBk5QAw9SpDEdXuI2hfs7w07TbEp45XWHyJtQ2yCFwE1Ew4s513PRRywkSDiRIwkk46F72DloNiCu8jbSxFju0B9yHdgfu8XUngXcP+BdP0/kJaHekU+bK4BOgXPRoXVJRmWQBafeJUyuA6iQwUqVr9lD0gWi0O2tfGcrzsGmke4Y8hHa1hiVCuyedqzkFmyEBJGBJCROTwNKVR/+3D5KCn78HvGYZlB63LSqqQQvYz58rAlYnyDoBbcBH5u+ifyupmi4it8IeoUm+sJf0id2qH8ZTidYfKORTKkW+WCeCXUsd6qhNXNJwdFXA4VfJiB/uShElSlD0yXHkO0xF7DhOfCgpXNRJlEvDEPlSKlzsFWgpqUCLmhxL8/ZX5RMP2NYquJBwSxwuRGv6WeR/fAQ8z+mdzHiWdER1+SLKnGIQtiIFzoNkaCINSidjmvel4dy3gPfDE4jxhV4u16qIaPM6Rb8X0Qu+GZXvp6GkNQxDf5sMZ2cSegdPo/DtTAhfTYKbHR9ud3mD958KNMkp8j73Uqdw+Q2VQrg96KFtmrkyDHrQdhVl+wQIemI6oul7oLXgKm5wDdVxrw1LQfxib/DbmnE9n7QUw2hakclIeS8Z4ATix50DJatraCpFwb+Iv+2uJNz1lA/4kosooDHJc5iOOKKs0SQNz1z08umIdJWh8t39KNpdAi/6MDB8UGp3L8P41zMxbeM5rEs1aL+FP9t5ZIaz417kJJDs3GHDN5C40stkFyXBVU8a0jVubjvBxmUilL5ak51Ku/hnaEYnKiO0k6YmJwHhSOWaK8O4nY0/0v0RaHeldplK7ZVAXSXa3WagXVevjMyK7V4kOPUCqd2BhJ+qCDZEN9BhBjUsT912IWlnBv3lEfZ2dJ4rlxOwnZA21Rh2jiHQFQHrFGQ98ZGp6lGUV4FBIXfDh+TG9a59un1n/MIRMUVLcSIgjUn9kWsJR5cCCtKybH284eErJM1HqKZbcetoOUXQP3kZbeGxGEp8ZJx4dJiWBHHWXlSerCJB1ttIHZ7w/00EXNXvHCe46bS6GxUoP9wI56nTEX639mXuSUJLt0RRdhEVBa4IfD1B2zd6Dc0ZjroVGaguJEEWSRavqEC4qDJQV0pLPXSf6lIFmgXe8A/TikoLytAPGB+DZyZhiL/mXocYf82lGxZyr+kL6vJLkVOIOvgi8tdhcOUErigBoQWXkXOyCM2psVrtlNAZHQNPT65+EzxzXUrt44nBj0A5WHNve8hznbQWmzZiT2v9ETzePVAFTiINLBc2Eq3JTkwmO269zP4AbK6R8HEkwW0jhU01/abUTjhxgsJsGZ2aTfdfIxOgyyMkYLrpz/XTZOok86CHgZbGtVMtlGidrpDW/Oxo7cvbmfpCbTDxHcFRBtlcPU1COhkqF4PXjnAMlLr55tNZg+umNew0Q6ALAtYpyLrlI1Oh/tI5XHGIQPKQ/rbpdMHGzAk+BIGc1mKULOLoEsL9bl+UbT2O9AofuIV4wDUmCD4xrlqToAzXq2m1cKiHQfmucCTJrahuJG3Jp1ffrbwhZAIzZcm5VocWOWlPETqNpHNf2ioa0XKjBkUvbUWRUTc9GrXao9Abg0MUJPDqgAgPNOXX0v8jSVvT3GBRGbqyeR5wDjLxNrWIe814IDofy6poHW9wKBwMpo1TAPX7hwa0kkLgpHYOMcMzpy3Sc+4nyJ3bc303dbWdTIv+ZCZUYzgBytbz4F8jp4l2MtnZkEART4FN+X7wz5O5z4aEiXsy5a3WLI/pKu6xDIPWtZJJUkaamI9Omhi3nATQtfP0JTWFBKjxNTq2sSVuW/qCsx2kFsim/a1oDe4qrY01U9tD7+suk4nC2SmGgGUIWKcg65aPzI4i3jdD0ZyN49/RwrMutTch40g1/O66F5GelnW8P3LZkGnNdDLP0SVMHodRETWoy61CfX45Sjbn4cq0yUicpjPJmS65p7Md9CvGmaid3bXUOKvxMc8pCNF/vQce3RZAQjnGA0VZVZCRbGu4pITLZDI3GhRkvgxtZh4PfJPehpZxrxm3vU/H3fazT6X1+qZ2PgU35nl1trDZkaBRkQakkxSOY6AaNoaY1Okcj75QbArAy6PLdnQvJYvKUOckAcN5FdqTB6Xpbxmqg5w8uKr9yBHEMNlyZkhyKmlzJ81xqeZKM621gQRaJwyJorWGhNg1MqMGG6z7dS6NHTEEbgoBk6+NmyrxFt2s4SMjZui7xiJllP4vjqMtoS/2yKRRCO27DOi/VveCo4vnTs4StG1g6OKpiB4rRAsJNY3HsxCOXnzIK+o0zgvq1jXiepUC9l7EHcYd2vFIWCih5OiP1UkBeROxPOsOLfl/sAdpKDJICzjG6K7J1s8VAnKdrpd0vWZ4RhjrC4cKIvckipeGeg8MjtJ/ultaRs81aK72zL3WcwlCjrJGrYHq8zVf5rQ0NwwycgrpuSS6KquBpKIGUoOyzN5jaQYhaS203qWm6NalDoFlVAgn4Pg0Gxq5jzoy++nc2i0tg1vPaiQp5U77FbpLdWS25JGTh8Yurc/F1WFDbvfkJKJLNi20lsaj8x1aL3Wi9jPwKRuCuO0DVvrd3F3f2fkBg4CVCTLzfGS2RCPi6KT/E9pTF2zs4UDnuJ93PlnC0SVD9Z5MSHLIE7BeBll5KaoLZLRmRoJD3QE+PJIDYHsxH5eOcFxijag7QJ6Dla7wShZpukhCyFnYiNoM2oNDZ9qK83H1gsnFie4hsSNal4mukO4/jkuna9BS34yW4lKUHijXCNDAcIgjyenho+8hySeCTmpHI601FX2YiWpD2Sfyw2BP4js7WInrAf7wNGRGsbSM7lsJkuiWca/1UIZ9fBitQVaiZHupmletOSsTRadlcEoJ6lgf6+H2Tpdq97yA+ydPxBsnLL2jF/mcSajYFoFXcQI2rSTQpOTFeI0EhEus3tGimdas6jjvxcuk6ewBv5K8BV0n6E1/lpTBNamezIrtgVC5G3gwGjaVnDxs6rm6yYXe+Nnik3BzofU48ma0aSHHm2Zqb+1l2kuWos9bR0Ksqpo8G++jOUrSjBN03B+R4LLEEOhPBKzsE8k8H1l/dv5WlWWeo4sPW1UjyneSR2AdaVH2QjjFxCLqYb8Okxwvhrwh55H7/TfHcXYnOYZw7vePj0VwiNZuwwmhXwcjb/tBnDxKZJ5DQ+F5lxBStf+55clpWiqG25H7/ddHkPEp535PTifkiamZGE7wXZwK7MpExYfkwUcf37Z03SU6HN6dlig94B7JR9l3NXCamWy0bmhpGT202Sz3GrcdYjdKDRxYzy/dqi7QacZ0MteS56hLECKfbUHBFxn46VWOV436OX4swu6la9aUeOTMEfgQeJW0mbiQNkXbkJBxfYi8FkMNWsk5eHwLmxvUD9oC0e7+CFSGa1wWlUFmwYYicqefpV2LMwGClHPyoPIHa/eFdcpCa3O0z03FbYgu/jtdoXa6z6UN0bq8MtrQTU4k9JVlI3m3k2m73fs5cgzRfpCZqJadYgj0FgEWNLi3iLH8DAGGAEOAIWBVCBgbDKyqcawxDAGGAEOAIcAQMIcAE2TmEGLXGQIMAYYAQ8CqEWCCzKqHhzWOIcAQYAgwBMwhwASZOYTYdYYAQ4AhwBCwagSYILuVwyMrxLmlu3Gp0HwlimNpOLHqLNQBM1hiCNxSBOTYt3w4xYs8dUtrYYWbQkCO4i+fx5zxwxETE46Y32wFxcIZUEny6Vwkzt4MAyfhO95+qxNkHB9ZRvoRHD28H2nffYvj6RkoqjHYedpajB+/o2tpBn/fnUIZF2bO2pKtK9yT/OB0xzy8m5D98VL1Q5OYOAIznt2I41cNQCo/hE0vL8SMe0cgMXY4UqYvxJtf5qGv+3ylac9jPD2cib8/1GkkpFlbsGLuaKQk0rV7pmDR2r0oNqik9tQWvPrUTIy/hx5uauf9v3ke/86iMP3alP3XiZqHnnvwDf9mbkT+rRD8yiK89wi1JXYm3rPgI6RX0+7QUiQa96PPLwU5sv86RY3Joh20l8tUqtiJJfcQbveuQfqtwMpUnZaes2j+mZnDhnX1ta/yLGz742IsmE7PAWGZ8sejXXsgy6M8c3F/Ej1LKRO7zGHDG7p7DtR5ZMfwzw3HIHp2N46e+hGnPlwAXTCi9NdHd5nnXT42qB27XqdnlhOE9KyMn70U2zrmKGG1Yw2WzJ2IlCR61lJGY87vN3d+5rv2rMsZeeFOvPnUFPXzGpM0mt4b67CvpBdvBbPj2oT0D5YS3qPpvaOpY87SdUgr79IUi09Y2T4yLt6oBXxkFF/OJyoOgY7aPVUU/Vt4p0MvmoLcTgTxwju3X6b2vy/g2bfL8cDrO/D38Gr897UX8NzvnbHz00XgtqNJzx1DNuIx7/nHEeknQMXRd/HW64+ixuEwNk413NVsqnNG52r34o23JRCHEaOK4SU6/8clG1E8eS0+Wk8R9OuOYtMrK7H8bTF2Ph+v3gCed+I4GofNxh8eiYafaw2yP/kL1i9eBsFXn2CePxD5xAfYOcPgQVJK8NVLS5E+YRJo+1o/Jzny31mJfbwoesH04uHtTSuIgPK195YgStd2RxH8enO/Nq/01Dq8meOCyO7mPuG07U8foSlYDNoLbnXJkvlnbg53dOpm+qpohdw+CqkL70Pk9lX4ugtSTTi+9im8+WMyXvtwLeLlR7H+RZrDAv0c7rilu+dAl6G2HLUKMcaMpH2fJsgGBCkrsOX5FG1gBGLTcTfcPyjBrj88irWScVi28n3EeQ9C02WSYrrxJwzST0jgd/+zeCia2ChazmPbxnV47rcKbN2x3LJnRZmFTctW4dvQFXhn9wyI286T4HwBK54TIGSXZWVYMq5wDMO0xbOxLMALAmpn2uZ1WL4E2Lp7BeL68ExbnSCzjI+MAvY6usO5l+/aLvOzLye0vFXyhx/G8CQN4qqMYzj5OV8fk/BGKc793/cgei9KtCH4DzMxlF7whklVWYjC/+TgapkCtmJ/+A7t5nO5z9xXEnz95SkIpm7CC1OjaK5HYdlLc/Dt/M/w1YVFeIFC5zlPfRNbpupbFRfrBcmJKXj/BEUpnzpJc4H7Aly/Dp8czESxTABxwgx6iFZgWrDh27MGu97YDOmCDXjwu5mdBJk88yBOKFKwkqNG4cL7+8/BK4u/xfgNXyJ9aTzGUjFjX/wEYw3AifNvxIl7V+FEehMJMhcIPIlPzTCG5oVDSK+MwrQZUR131Z7YiDfeP4jsQgm9KOiho3YufH4FZg3r7i3feTx0R/KcjVh9NAGr/g94damR6a18L9Zv2Iq07DzUUNAN5+AUPLBkNV6YRIJClyzBy9YL4mFRlr1YTDeTglrSy3TdeaS+uQjFjy01aZ4q/nQVtnk+hzUhm7Fgu4mCpFl4b/ka/JtefvBNwfwX38SyMdoPL0v6aqLITqfMlGF+/pmfw7r6zPa1p7Y6p+CxP6ZQjhps229ivjQcw/ZvmjB25auYFcu9dEKx8olD+NX7+jmsKb775wAXNmLGXDLHaR/z7Onh2MTdFL8aR/+j18rg7IVImhsmWkEURZ/hg/RovLB7A+bpvnxi4/U940fh6bffN+hpPCLbsnD8+aM4fpmEUDBdMjMmqD2P/EoXjFqxCHH0EQmMx2PEg/j+nwpRTMEWInXBx9sqcHzDQizZnokax1CMWfgqXn88HpxsNj+uVP785RjV0dIoxLVlY9fSTGRXAXF9+KqzOtOiwShQVAA5Gsor0WDjRELLICBeewsqsr7F4cPf4PgP6bhwpbl3MQY7VXILDuyCMHzzAozbmAwPU3H8OH6t907jmkMkhq+ejuGTBag9UWOyD2ruq3v7EA5Jnof8i/TIxSboH4owmtgOEuTndmOGosCNClJCRJ66FzM9mH94CptK4vG7fx3AN7s/pS+oTLzxu43INlBWJF+uwgfyJ7DyQYMXug7WNs2PQQZfWfYCisVYTw8MF4PPVCLhLYcLRJ3Dh2hzypG+cycqEmZjFvdgalNTrRyhv1qBjf85gKPUzqeDM7H2t2RO641SJTuF9a8exagX6SEz9ZHU1Ag5aY4r/7Ub/zu0GxsXOCPtZcLngq4VluGF+j1YPo5MVJzZ5qk12HWhN43k6qpB2to1KJr2Kp4eRliaShc2Y/UXnvjdikmEpOlUe/Az5I9ci517duP18Y34/MVV2KUzPZvtq+kyO53tbRnG88/SOWxBXy1obfdZSrKQpwhFbJweSfHwBIikNIfL9bf1+BwMW449OcSjeIA0DgF9VO6l37n0ZyjEqCj5idcwmTNf3jMRC17eguwGg/IzT6EmPB72e2m5gJYDUu6dgiV/7WymN+6EQiaFwt4LnrooZObGxDMBccFy5Bw9hFpO6MrpY+JIFuxTxiHWgEFDXrgHX9U+gL9/dQBbX4xG8dtL8UaafjmgUzuMx9W4kQ30sbz3FKQ+0X0O+m6dgozjI+PWyA5/hx9LbxC9CQUE1qnhtO7kExyN6LtGICE+HoEuclTmpSOvRks4aAySNR4XUmzFGg/4/joKbj5OcEpMQHCiKZ6Vm2i8tJo0E+IIcxMg/+2ZSJmyBsdlIojoWWyqNz3hJHs2Y1d9ChZSu9Tpwmf45FQYnv7zcqTGiiH2Jy3ohSUYW7sH+3K0bSvZilc/ABa+MgdiEyYBQWwy4pCJr7ZnQco9GA1ZeH/7aRJUTcRIbap/ZMZ5l16ww57Ar+828V0qPYZtBxPTPoUAACAASURBVOUYM2NGx9oCV0rIgyuwbPZ4xIWJ4cm1c/EjiGvIxJkSU3WYOkf1rifBN3I1lo00US93S/QCrHpmDsZGh0LsHYq42UvwYDCZczK1HwaW4OU3Dov/uBYb39uBLX8jgdm6B68++Tz2Ga5dmmqewbnava9hfdlsrHpCr5F2uoUEwKZXv4Tfcy8hVU9y17XUmCfwwvx4iP1Ckbp0OR5wOIX/fkfamSV97Vpa1zPm8DK6o8v8s2QOW9rXrq2z/My1RkjhSqbAImx7YjTG/34vat2cSfuoQa1uDpt5DiypTDTqCax6cxM2/nsHNq+YAZcz67Bo2ZYOp4raKzWQX9yKT3JJEP5rBz7643Rg//NY8o8s00ZwGWncW07B78HH8YBuHpgbE9Lqlr23AWNyV2J8Aq1fjZyI9TVz8M6f6fk27IQwBU+vmINIfzEip67A78bJkfb1McKpa+oyrrosR1chhVsju2cm1uanYN2HKzCqm0eva6mdz1idaVHdvG75yOia7WCIQwZ39MLN3QWqliMoqahCm8i/Vzxd5sC5VdfbiFNMYe8Cx45o/XwIKYo/jzQo49Qf3FcCDzJlDXGBiwlBo6tPSg/NcxuKMO6NTzvMFtL8PFTIT+HNe8PxZqeGCZBKGhDIJv/v1e8AT+zQmzqMO+BHL/9XsrDir3OR8jZdtA/FtEUzEJdz1DgnHdP61MfLsOKHKKz5dIlJ0xunRZzAOGJm7qxnyEv2YtNft+BrMvvVdjxNYoTog7OTECXHBzJZHtcqQJFLD2DnM5o1COnRdVh7JgWvfaFfn+jSQCkt+G9Yh21HyczK9V+bIq9zHwYimMWL042j5+DpDkYUMqkMH4SK+54n4SzBtEe1r4oe2omrO7F6owQP/muDBp8uFmlyAHmbBGPgS9g6qef1WWeKz9nxchKEISQQ+LaIUzHorJm+arpOTjFzZ2LTeQ0WgpTVOPiBgZnMojI0JZmaf4b4m57DlveVcxha8KlWSAsmYeOZt5Haw/NgWDdnGdIkAVwoRqTY2Whxi5yDzD4HnQo0fRAyidaudZeiaW641WDy0i+xj5YClg3jng5KqmjM+yN9THrT72FL8MIjhzBj+15k03rzKMP+0LO56+Wl2CVajs8M1tzMjit335//ghPiZ7H5tfG0RlaEff94Dctf9MPWd/TCTOAThZAOGFwQEk5zhrw1uE86Q3R6HNdR1LZdj0Becx77PtiIt9ZGIvLtBer1+94m6xRk3fKRmYrSLYSzox1UzXL1QN+RDqm4+PO9Q59H2Q3VYX7vbjc/zmRr9ySrU22DHCHz38fO+XSL/BC20TvXhYS/YZJmbcSzvz+IkJWf4rXxRi8/tznYfOxNjDXVPilpPHk1SP+JvArXaktUv1iXkrfTJKz7/m1Mo3d3yIMbyFljLWprmyBwI5LPvDW4/wOisDFc96LRK/58GZ79RIDffbgB00zayYuwa2cmRJPfxxhDBVaZh/d/txJpkauxkRao4ziTpJSE1viNnXFym4w1uxPQpDV32hsspBedOQVJiQSLkrfq76G+bJo1HGlP7cDOpaG0JvAU1mdTGR9uQmoYrd2BBPncKdhnKEx6wqtzazRHzrT+R4Tf+2q4V4BWrPTQTuSfRtbVPByfO1yzxsKVwtW/ljzA0jhBMh7ZZ4ogubAU4w8aVEgYLRp5EPPePolVKaYaYnhObllfaa1o/t924z5doGoHGtOOYiwtg4aqu/lndg6TY5CFfY1c/Cn2zNEKJFsX+Jmaz93BIvKilzOtvUrFZJ3YjWlcvqx00j6ov9zHaItlz0F3xXd3XhAeSTPiICS0bgQSZCIKHA6hGH4Gz42fjxiChmpIuTmt6xMJo30vP6rRpN4l4dih5VgwJhkfYdMJER7bswhj1c9gKJa9mIdv576D7efnqNfWLU3djquuAKEIIWHUpzBaLx5KH7GTN+KTHxbgtTGW1qDPd0fe+71vJj2rbd2ZDolNueUGeAKB6QXSvlTW4z18jjUGqlbu7aGZOfJGjgfM1GKY6YJshxCnmLwRrdfpulamyK7KTK6RqbmvyHzh6kkCoDdqN9nhI8OBf+dkQk4mN/WthbRu1iLG2Bi9sJLmbMazy/bA8/lPsW5qJ+MBnCOj4Cc7iJxL5JBBD1KX5Dyjk2AgoyW+XT0X7zutxs6Vk0GOkPrEF8BTHfGc1ri+PgqJ7wyMohe4JpEQ27EMT7wvx2Pvvo95Yd10NOdL/PeCGNNWG2lN9bRIXClC6l/mkBDTFllcjGJ6uDvLQxcyO9Jfl47QIrbhi467nv8Rnng5E/f9420sjAulE0W0ttiEyIeewDQSYuokL0R+he5rnb5EzeFlol5Ii1BELypPYvHWp+7biZSXsHPvEj1PnZLW9eatQdPCHVgzhzzhaELN+tsBjNUJFypUsnMpluyPItPNcxjlr69FWkQCjxbz1aNOfSkuI1GaGsbdYbavulKcySxpwvnO4jJ6mn+wYA5b2leBG2nnPZlZ9bB0/RUcjyj7ncjJpq/AYM3YS86Rk4MzrelweAp68Rx0Lb3bM3KicZKQsNQ9J35hhLVMonY00k3iiioJ5G4JcNa9yTkh9sqjeKNiBt55dzniOg2O+XGVa4WioItkIEWBe19pk7wqD8Vk+VA7cNFzX3yRtF1yWtPN4h7Htbset8nRKOOep26e/+7uo/NdmttD3ttwieMjK0CroxdciSTQlh7XxspLKCNvOa+hGm3suuQcLivciPPKCXZ8un7lEoqaBBhyl8/t6QxHnElvx+rs/2/vTOCirPb//4llhoFhlUFWhx1ZVBZJqERUstLsp5nZYnlvVjftdrOrXfub126m/tI2bdG6ZV3LbppZ/jS1jFIxt0wW2WQXWRwBh21gnJGh//eZBYZ1Bhhw0HNeLwue5TznvM/D832+5/me76cE8ttCIGiqQPlxbqLczng+fgFwG/EjKn6UwG2uOyyqC3HxrIym3bpWoda+ei0VMzZm0nRa1/09b/HGvQ/E46N1G/FmvBsWcOH3FHFXEUGhuVqjpDi/FUue3QLFfW/hL6ENyD1PMsNU+Pb0R+9Ff7AU2LAgfjvWvfQyXFc8gYnU75riVBw7UIzQ5cvp+wsZJx/u4akrDXDllIYFbvD3aX8w5363Gen2FGhCm9Qh/t80IGnNo21Th+XfkBHbUIhJK9+iSCYyGNrgCXuavvBue/jQ2+Q3e1E9+lHM6PxWSF6NP03DpJ8ogoK+X/FpSus/7+9Cucr4P4guD7oGB9I6pv550/Sbug00pTSKD7Xn9ig3xUKe6PtbkEx/zG3TQQZ5UZDGpo0oou9kkUH0Jt1AYcefbUQyTXWt1498bOPZzQ98aoefntFTlakNiUJEYzZS85DtYlyciQPdt64Uhu+q74mc+xJv/jcayyY5oHjHRnzfHI9lU7m6KTrVUF+7aVrHTYZ5Gbz/iLKhe9jovvbaXgVqSopQraDvyk30IG2kBz79LbT9HThNwkN3O+CFf7+K3f6L1eH3727LoW9PL2m/6Rj3d9B7E07io3+dhsPkSFoK4whF6Uls27QLjTGrMEP798q//QHc67oAH6/ZDu/nEyGq/hHv7siB99RXtCHrdH/963Gs+o2+c/3vNPAr6MVVfVE+RPTMceXuHQPjyh9HyvW2L2Pb+u3wfy4RXqpCmlrchWLXRCwL1euBktr71j74P0NRkxlb8O5R+tywfpLmXjT0XGmkJTjr0uHK9XUkqaGr/w624LQ9fTKINv5vVp+nmRkyw3pk3JRc06XzuFRyjTwYC/DsXOETHokAkfEeUa83lMGdPHjcHwvpR6n4fWkW+B4j4RlFxuho+4n1u/YgPZkMk668sV2zjCc0FrcvCYGVpQv8FsVCte04Ti+lT4LOpKoc4YK6br6RGWxOLwe4zn4TW2pWYC19n/qqkULSb52Ld/5Xs4aMO636JIWx09QjPqcoqM/1KopfiyMfzyUD5Y05b9COd8jl/8csrKU3QVdPmruf+ACS+hKb0piOrzZtQQUXsj4qHneu2YllM3UPY1oceeQkahQK7KYFp7v1mqH/DQt1h/AtRUVFLpnbbjh0x/Lj8bf/XYTltAYu8Us+HJ18MHH+fCSk7uqFTl93OWDG8nXIXfk65k7aCEd7mha5+wE8HJGD021VGeLFp3cVemOmdWr/pmlWBY/qGH8XXv0PLWfozk3saxP7eLzrXQ8g9ARlmXiLpjW58Pu312KO2qM1pq+GLma4DsP3H91vBu5hQ60war8qFR89uQBf6QJusldjbjKd2fZ34ECh9x9j2bpX8d6T96DRyhuR0ylgh5aP9O+x202rrOi1iR7w217ZinKSHuderCInr6I1ZfTNSHc4BVgs+4C+Vq/bgiUPrKbv7Fw71mKzdj0mVNk4lkweGhniN2l5QHsR4eEvaEo5yvCYYORcrN/cgDVvfqq+RiPdC9xSllc/WI4EPe+O73cf7rf/Bi/MWopq8pwnPv8+Vmq/WxscVy6KEmn4ll6si7m/Awv6O4ikv4OPlvT774DpkXVzT7FNjAAjwAgwAsOHgHmG3w8ffqyljAAjwAgwAteZADNk13kA2OUZAUaAEWAEBkaAGbKB8WNnMwKMACPACFxnAsyQXecBYJdnBBgBRoARGBgBZsgGxo+dzQgwAowAI3CdCZhZ+D3A6ZFlltBK9SY5Wv6wBk/oAi//CAqv1wt0bWlAeUEuSqtqIad1yTwbV4jHjIe4+5WZ1xkxuzwjwAgwAozAYBIwO0NmWI9MjvJzp5F/ldZihcTC2Qa41kxrtvqScmYwibK6GQFGgBFgBIaUgNkZMoN6ZHXFKK0XIiAuBmLdolyn9iTCBumpZKj69hQunKqGnBLKWjk7wikpDuGTtRl8KXPFb29LYD/ZDrLUy1A2WcImahxCHwmErW7NtUKKyl1nUJ4mhVxBCX/9/eDzSDQ83PWsKXfM7lRUnK1GMx3DcxfBY87t8A3tmL6jsYYyWlPuNy5LPSuMACPACDACfSdgEkPWKr+CqrpmqP5ob4ClNaXEIc2QAV1AT4/MR6tH1iSthYKyeVheIpnwcvqZ1tbbu/lhdLAP7Iz44qc8fQZ5p4BRT0+Hh5sllBIJrnC5y/RLqxTSywGI+tck2CokKHjrMLL3OiJ2DpeNQobKfyej5Goggp4lxWN7Jep+PIXC91MheCUWTmpjR8dsSUZRrSf8npyOEXSaspCkW2q4VOx6hozy5L07jzIKOJNW0TeLu2as6NQs9isjwAgwAoxAVwIDsjO66ixQT9m2z6NOLwu4nfgOkBPSv8LpkR3LRC2XVJ68FW89PTIlpTJqbSpDqZUYwaRlY02Gpig3E+mwRfzoER0yynd38ZYamoakZIkjAh3BIweK5xxIGs6diwBu00I0HhhJyogTXCD58QLqZongVJ6PijxHiF+Lhps2Gb9g7hhIl59FVSEZMi4fWXE+yvMF8Fx+B7xJGoMrAtdxpGjECiPACDACjICpCZjEkEHgiwD3EpzVZQInKXc/cUepkD41vDc9Mq6iViG8w4Ihou9jXF640TIJeWeVqA8ZAedber+S7fgAOBxNRdor1XAKEsEhyBNuse4Q6KdqtBBCoDdbyRPZwUJWj2bKKC6soP9fq0bRS9spvW3H4lKvyYjfUiGFQuAM547J5Ls2zDIeL/+cj5e77mFbGAFGgBFgBIwkYBpDRn6Qs68fnCQar8zOKxju3WRyN7JNdJg1BELOsjjA3kmAlhO/4kJZLbyCnWFlTdutBLDT+6QksLEFSAJAwU1tGjBkoKS349aNQl1WBeryKlH1dQ7Kz8Yi+jnKZN9TAzn7xHmHWo/TQuiL8A13wIUFmPREjG1nBBgBRmDICBjxVcnItqi9MjIFA/XGericTo/MzsEOVio5rrbLQEF+9Spdl/TIDBkxXd18IZxiQuD7yGTELCBBITJoXBL4ttJK0uYV7fOkzZUNaHFwhC3XPZJY4MtrUVveQ0Nps5WXi8FjdGc3Xi5HOWWAZoURYAQYAUagfwRMZ8jUXpk/6d0MxBvj9MjSUVRWiZraWtTVXkZp9jm1HpmLSPNBymKED0bya1GcV4waGYlq1hSioLyBJLA84WiEIWs+kYoLxyogo8ALJUUMSs7WosWJjFQH31SJmr2pqCqToZnEKIt+kUIQ6wsHzgMTB8M7VI7KT39FeW495DX1qM8oRNEndLxOucWfjgnWHFOZR8fUylCflkORkvUdR4kL9nhkCu5+huQM+jd+7CxGgBFgBG56AiaaWtRyFIgx2n8gTA3rkcHSDSFjSVnxfDGyfjuPFgsBnNzGYGyQ4UAPrmW3WKtQ/8sZVOySoaWVB4F4FIIXUyCG/jQh6eO4RylQtnEfZNd4EMbEIeI+kTaQRAjPp5MALrT+kwMo0obwO4QHk4HV9Z2OWUTH7EpF+b8PoIC8PZ67O4XfBw4EDjuXEWAEGAFGoBsCTI+sMxT1OjIpvNclwXMA8Sqdq2W/MwKMACPACAwOARNOLQ5OA1mtjAAjwAgwAoxAbwSYIeuNDtvHCDACjAAjYPYE2NSi2Q8RayAjwAgwAoxAbwSYR9YbHbaPEWAEGAFGwOwJmDZq0ey7ayYNrMzAmTWZaFYnAnGB76vTIe5vOi8z6RJrBiPACDAC14uA2RkyQ3pkdXmH8XsZl3y3U7H1x4T40bA3Yi1Z51OH/HfPcYjdPA6QZOLsmrLBvXxDHjJW5ML277MQNKClEYPbTFY7I8AIMAL9JWB2hsyQHpmDOBYTPLh8UdryhwzlWemQuo4cHkasvyPFzmMEGAFGgBHoloDZGTJDemQWNkLYq5MFa0t9JaQKB3h6alPRd9tNE29sqMCF7am4dL4eSlpUrdYam5sA35D2VdXKrAwU7CmEtJK8RzsXuEyJRtA97voiLgYbZbgOkpBJ/g0XjlSiUaqChTNdJykaIZNp8XZNDs6uSoVMm2mrbv12VHJXtHRH0Ovta+RainOQtyMX0nKunaTNNpHOv89Lr50ylK7fh6rAeHgr8lD2G2mwtVrCdkoCYme5t/dB0YAayvPFdxLBnkmrGRxbdgAjwAiYjoBJDNlQ6pF17HoraioqoHDwg3tXLRbTUepQkwo1u4+jrDEQoS8lwYGnRHNJBUiNjY7SGLLWwlRkfFIB2/+JQ9QYEm+RlKBoWwpybadj3CTjGmpMHbL9ycj8CRj54GQEB1MiyCsSVOQ2oQUi8FzDELM5DOhtarHhAvI+yEDz2FiMfcodliRRk0ftzLGdicgk/XaqcPVEJmqSYjFmvQjWzaTXVtExK3TNnueQ+FoqZmzMxHpKasIKI8AIMAJDRcAkhmwo9cg6gGmhB3fVNbiQqGaPmetNTlIJZa0KVu4j4eIpoLRVAjIa5Mm0XUeJy4fy0DJ+MkInu2vSWrmOQcDEC0j77SLkk8KMaKsRdVyrQNkv9bCfPhPBt2mNjiuJfYYY32El5YiUwhOhDwXCkfOiRNEIyLuIjONFkCWN66jTRooGITqPki9q02Iz/mrsSEaAEWAEBoeASQzZkOuRaVkoL5Xhyi0ijBmpLyY2OKDaaxXA+TZPlG5PwekKdzj5u8AxwhfuEY4ao6Wqh6xSBWVGMo4d69QW0VUoyXETGJJ/MaaOK1I0KyjPZIhxHl53VOQSynI8IgC2elOBwlFU34k6XL1G2mttWC3Bp7DK3pR5XOdtQ9a87q7CtjECjAAjMLgETGPIhlCPrB2HDBWVtaQaE4sRhgyDiRkK4iZhQkg1pFkS1OaWoWRzDi7NuAsxM1y0V7KEcM5MxEzrv5HhpikHXofpOn6L9RBDNl3TWU2MACNwgxMw3YLoIdIjaxuPulJUyvjw8DQu672px9HCWQTXiWMQ9PR0hCcI0ExGTb0owNIRQk/gaqEEJCjde1HbBhX+IO+nQzGmjhEu5EnJ0Zin047p4VIW3EXIDdQL9NQdKXAjQ6v27NrPlV3kvDQn2PTVyZVXo7yiGo36um49NIltZgQYAUbAlARMZ8iGSI9M03kuyIMMh9AHnhRLMbRFjirSKivPoOi9WjnkZRdQlSenb2YkuKluCA8jpwbCOicVOXsuoL6aNM3KJKg6dAa5h6o7NpWL8BPKUJ1CwSJUl1IXYmhMHdZe8JniiMYDKSg4VU3n03WKL+DCwbKOBlQghEBA0Y1pZFgVKrTqGU1eVCB926tEyQ5NO2VpqSg6JYcw3rfj9zEjANfsXYa775qCNZ2nU404lx3CCDACjMBACJhoalHbhKHQI+MuRYEO5RTk4RTgBbuB9L5f51rCihSky3Ylo0SqRCtPAGHEOIQ96KXVKwMsQii67xkeiveeRVayHK1WAtiMGglR56lGa3f4PhyCnK9ScOYweU0+YxC7chxsqV3G1CGckYQx1hR+//1hnP2cC7+noBOKLOwwqBRu7/OgHxp3H8bJZLqGfvi9gy9CFzUj7+uzOPcK+ZMCOj8xAYFTh/ztoF8jwU5iBBgBRoAjwJIGs/uAEWAEGAFGYFgTMOHU4rDmwBrPCDACjAAjMEwJMEM2TAeONZsRYAQYAUZAQ8C038gYVUagE4GaGnViLFYYgZuawJIlS7B9+9c3NYPB7DzzyAaTLqubEWAEGAFGYNAJMEM26Ih7v0D9rj04tpFSWvV+2MD2ZvyK40uOoqbzerWB1drnsws+fBjTlu+HgZVvfa6XnWDmBGTJeGnaw9iSY+btHEDzUv41DYmJiep/9647NYCa2Kn9IWB2U4uG9Mi4Tsol2cgprkS9nJ7MlgI4iPwRGCKGk9n1xvCQ8HxHwdVRm97K8OFdjqj7725kXhmH+OcCO4bd6x/pIoJoPGBznV9bhKMTcOcI315TXXXp4E26Ifvdh/GCZD6+XTejz2v6zA4ZzwNR0xIwor+rOur34+9ztyPova+wqA+5RIeSQ8K/DuEIXTDltWnYMJQXZtdSEzC7R78hPTLICnEupwyWPlGY4O0Ei6sVyMvMxrl8Ae4Ic2tbyzVcxlcQG43QwW6sTwiC5w/2RQzX75G4CC8aPowdcaMR4IVj3rLwG61XrD9mRMDsDJkhPbLWxjo0/eGMEL+RsONaL/CH94gipDfJoICbEZnlzYO+bM8+nD1Yr2lMaCxuXxLS6a1CBdmxMyj84SIaKds+7ASwj4hA8IJA9YJp6WdfI/OULgnWKRz/i2Y6gzcpCfGPaHXCck/h5MZCTaYPvg/C35oE106ppwzrkWmaqGik9FPNfNiPdNBmMDGeY+mnC7Dg81LNCRNexPfrO3oZ0m//jof2eGBh4hUcOJiFSzJ7RMx9EaufiG7zRqQntmDNB/uRRclRxBMfQ4JyK3YKVuP7FXFtDeGmLp8tnIXVEy/ii+0/oYDwCscuxDtvzoOYjlJWpGDrB1vxU1opZJYeCJr4IJb8bTaCdNIJqktI+XgTth5MRSmtDxeKghD94BKs/p8g7TWUKD24CZu2H0WWRAmeowcpDzyGF5clwUPXiopkbHp9M/ZT6jBh4J14LOoSthwJwjufL0I4ly2M9m/58DukZBfgCte+UdG4c8HzWJSoqeHU+nvx0kHd5OsbuDfxDXXNHvd/gK/+pjMGMmTv2ojNu0+hoJraQXXMfuofWHibC2Tfv4T7vw7CB58tRFCn9JjS/yPOB6Lw8UePwf70VmykxNdZJZcgVfIgHnsnHnxmEWYEUmpoVQG2PvksTiV9jI8f5chpivTgS3jo0xFY/eWLiOstg7TuBFUKVt2zCinq29QD8zaTR0XKQm2lcCsWLE5F3DMRpN33E/KpLyPGP4aVK+ZpxkSyE88+ugXZWk291L8kYid3smU0Xvz2bczQengGx5VO6e3esDd4/2l4bz2QivwKKZTkYQbdNguLn52H8P56mXoY2I8DJ2B2hqxDl1oVqCurRN0tQvg4aJ7AFo4ucLAoQTVlbvfwFpJHdhnVdSrYe7gOGyPG9VE4ayYmzQK4b2TnKroZyGoSvNxZAZu5kzF+rBB/NEhRl9f+kcvlzw9i0p+BXqcWQ+MQ/xE96LlvZJ9pnwb6lzJajww49soULPk5Gq8e3YY57Zo13TS86ybxE9tw5Antw6Sk635ui7LiKE7bvoMPdpHRSNuCZ5dvws7bt2EhN5VU8R3WvLYfivtX4uOZHrjyMxm1T+npOLVrXcrzO7HV8TEs+eh5BPGuoCDtkmYqs/4UNi3dgPwJi/DaR9FwURbgwKYNWP7OCHy+IkFtMGWHNmHNQWDhv7bhTm+gsTwblP2rvVA7NryTCo+/rce228jwSPORmkayProjOAPwygYcHbEQr39CU2nle7BhXSqUjjpDyF2kEcqg6Xh+fgTElGNaevoLrFn3Enje1NdAIG759ziyHOhtarF0x3Is32OPeX97Byv9eZD+ztWxHLz3PsZj4eHwqM5GPtnCoA4PWSXyz+dDOHq+2qiXUlYa8V2LMC9cDA+eDKm7N2DD/9sEDzJS0bwgJCWJsTM5GQUP6QyiFEd/TsWIie8YZ8Q4JpYJWH3oCPWZvpHdv1UPpN6Pqmz8dG463vnkW4hlKVizeA02fp+AD+YSX/d5+OBnklTobWrRiHHVXa3He4MO6PX+oxG+Ih+BiU+8hkWkdiGUl+LAB2vU986OfyUN/6nf7kdmWG29zl9NemB1rQxnfzmA5F9+xu8XrpFEygQE2GuPtfXH2DFeaClKwS8/0zG/pqHOJQpR/g49VDZMN0tJ8qVVCMdwEQTOAtiKveA5zVftjZmq6PTI/Dg9MpEQwijSI4sToJ7TIzPVRYyshyechAfvD1I/FIRjkxAnuoTsAk0rSo8cQJbLDCx+Ig5idzGi6eE6Y1QPFdPb+mMvzEa4Cyl3Cz0QTorXnK9z6ecv8JNgNlb+bQbCR3nAIzABC5++E/wTyaD0kupypfoK4EJe2FgPuIg8II5KwrxpekZIKsEluCB8AhkLFxeqIw4zSBm8zWfJSUbyRTEZmHmIpmuIb1uIhVN1UhKPlgAAIABJREFUigja9obMxvOPz0AcfdP1EIkRfu9jmD7qElLPSXvoUKfNqlR8/XUpop9aicduC4IH8Qi/dzHmjy5F8uECYFQQIgT5yKEfyVxh/ztvYGcOZ2ovoaBAieDwYHWF4nsWYeG9cQj3o756keGaPwsR9VlIu6i5nnjqdERIUpBcqL2+5CiSz3kg6S5TTxF64M6HZ0DMeXguCUiK4qHgvLrxRhVjxrWtoh7uDW5/b/cfNQwJjy/C7InhCPLi7p04PHY/vSCeS0N+N++HRjWcHWRSAubpkVEOwrBbHdHSIoe0sgAl+Vmwt4+BFzcFdLUS+XnkwnhGYrw7GS+5BBfyzyGteDxi/Z2H3TeyHkfT35c8zkIU/e8+XAkRQejrDtc4Xzia0F4br0cGJL2diaweG2uCHeRpt8nxWPIgpLFWyBupYiEulV6iJ28QxLqpMksxgtRPvq6FRw/yoG7Uc0oLSqEsycaCqV90PMkyHI3cDC9dT5xID+/dm/DC46mIjopAeDgFp0wNB9lETQlJwuzAn7DlyQU4Nj4a4aPDkTA1CUFaWyUrL8UVQTAZW90lePClceT9rndJWQG++3AL9pzIUntFuhKk7msno6d3WtuPkgJcqKeprtfuJUXujgcI3akOywiEBcmwJ4+YuaXgwKGfIONNxzwyltkVZPRGa+AoLybTNOtO/ERTnNK2txYyvlqjDvdJmDp2C7b/mE0BFuG4dIS8s1FJ+EeHYItSfPGXp7A1T9MP3vjnsePN2cb0or3hli5w1+s2j0ewZRovt/sR7thnY8ZVd0ZP94Z6fy/3H7f70omt2LItGak0FUvN0xRB0pC/8On6wv7fkYB5GjJYQ6BWdXSAvZMALSd+xYWyWngFO6OxrBASeGF8oCecbqFD7AMRQhIix0tKIfV1hqt5+ph9v++sRfBdPgdu+ZWQFkhwJeUkyn8pR/jKO+DazYO67xcwszM6fc/pd+v4wh6/4fFuW4nv1yX1HDU5ajbe3hGH7NOp5CGdpumjZ/HFsRfxMUUOqr9gUdDCY+/tQMK5U0ilAKPTezbgi69PYfUnK5Fg1LcSJU59uBxbsifhH2+tRoKfkNpyCTv/sgBcPmejCxnyxzZrp127OSmCpgu3FGTjkmM2cO9seGSnkjcmRakwApTbWv0N7IuVG5AS9Dxe++xOhIs447G/0/SfCyZNi6PveQeQ+pQQ2eTtBd21st37VF9XjNmvfkzfK7WNEIzomxFTn6an6qqtpq//Mziuugp7uTdI/q/nUrFTPbVtv4CmtjeSh8+9UJ9Yg3s7vUj0XAHbM9gEhs1jX9Wi+T7Uov1/FzCtqsFdi9XlgkOwgTwT21BfeN8Xh3EvRcNJVonqC52uy+mNqfryFGw/vy96ZIo6jd6YYgi63fkSHmIyI6UFKNV1U1WKgtJ2b6bz8d39Lg6iCcCCNKTqPI7uDuK2CWg6MnEGHvvbany8PAn4/TSy9c+xFKqnHGc//jxe3/w84ugbzenzmsqE3mKMkF9AqURXuRIXii/oyerQ9N55GYKmP4gktRGjoqS+UOBIl8I9WLsbVgpA8RVyU5HkcfVQxGHB4FFf9/x+BdGTZ2GCbRoOHMtHY1A4grl6aQoxWzICCQ/SNCtnxLhy8WI7X229wtumI051Ege+pSn8ixFI0gak6F9WSFOb4lHafzQ9PVhFw6pr7UaPa9dTjd9SnI0CXjxmzdUaMTrz0kXyzLqpgfMolUq976bdHMM2mZ6AmRkyOSrOp6OIAjxqamtRV3sZpdnnKIKMT98snNW9tx8xAlZXy1BUchmNcjmaaoqRX05K0S5ucDGz3gxouIpzULD/AuoqZVA21KPuRCX94ThS1GDHWvkj6fWQeFXRw7D1Gj35unv49dCQvuiRHVs9BXdPX4bv63qobBA3q6f8pPuxedsplFbTFNmurdjfXYBML23wmDoPCfgJm9btxKnCS/QgKkDqoS/wxrv7ySfSlNKDWzURixIppDSF99OxbCi5B7VujivnO2z5MhnZF2m/lIzJoWPIJ+9oFAWGqEtYEpJGFWAnTdllU3RbKQVybD+i/7gbQdPFPJSS7tslbpxUUqR++gVSunkieniT8S44jaMkdErPxfZx5UXjwQeDULBtDTYdyiajeQmlmSk0XbkGX+imMIPCEFz9E/YXRyAqxIOmSRX46WABPMI13yAhpD45XkHW7zTdyrWbpjt3fkocOt87gmhMn0hroz7diUtRUzFJpOnmkP+XvnV6UHtTj6dCKicjoddOY8Z1wO31oO+Zcvp+mKMZKOXF/diym7zdbkrw6GD6dpZMUasUDUpztm0Sg90cyzaZjoCZTS1agM9T4VJZLsquKtDyhwV4dq7wDItEsEgTtWjlFo7I4PMovHgOZ0quoZUWRNu7BmNciE/PU0am42WamuSFyFx6CtK2P8gzFD5/huoWwvPFWQii6DXYWKIlJxO5P2keZFYiEdz+fDu8Oz1MBHHRGEVh9iVrvkYBOa3t4fcylK7fQx5Be5Oz/7pd/YvwvpmI4WKXh0KPTB2xtgZtKwWgCynvJhy7J7peFKTxTwnWvLsGT+2gQO6JCzF7Qip29jYd1LkuxwT8Y+NKfPHhF9jw3BZIibWHVwSip1MouvZYnkCGgu1v4Lt36W1bRZ5X+J14/tXH2sPYBTzIKELwn19vUH9XcuFC51esxDxuuo4rlkFY+Oo/IKPw+xce36oJv783AlnHOLlVrgiR9Ow/ULB+C56iKD574Qj1d7nZIWRUtVXo/ucylQJFft9A3+PuxRtkbfTD78UPrcc7vC3Yum05ntIuAxCPjcM89fwnFUf6vjdKiSz/KEQQI974CNh/egkRYdqwFDKGC1c8hjXvvID7d9OSClpGEDdnNuLO7e/UCh6i77oTI77fj6DESX2eNuRC3p/a0e45nlqsDZ/vZglGpwt3/JWCNB58ZgbyP6alBTsIhn74vRHj2mvdxuwMpCUBz1zChlcewr2W9hjhHo1ZcxKQuq3ryS730FKKc6uw9bmHsYmWNSS9dggr6WWAlcElwPTIBpfvTV/74CQNlmL/sofwddgH2PaEXlShGdIu/fwpPHVmOna818cgCDPpi+zIGjz0DvCPL+k74ODNHJpJbwevGSxp8OCx5Wq+kSbjBpcUq/06EqAovUNcxJiUIsZkuHTsC3ydLUZCgvkZsUun9yM5kwKPaApMVrIfXxwgT2hyXJ+9mesIW3Np4iytOEULy1NgT15jHDNi131IWAN6JmBmU4s9N5TtuZkJ0ILU8/R96oMNlPWDJuhoSnDGstXqBcRmV6Rp2PnOFmyopoY60pq3e1di5f/o5vzMrrU9Nqh0xwtYsK0UHlHz8CJlWDEmFL7HytgORmCQCbCpxUEGzKpnBBgBRoARGFwCbGpxcPmy2hkBRoARYAQGmQAzZIMMmFXPCDACjAAjMLgEzO4bmWE9smuUSDibwu+rUXf1GqxsKJvHqNEY7eNsfpo0gzt2rHZGgBFgBBgBImB238jkVYWovGoLB0q2Z32LEvWVeSi6bAG/W+8AJUNAa3U6fj13BY5BkQgU2eJaXSHyzlfBjvLiRbhp1pqxkWUEGAFGgBG4eQiYnUdmSI+svuYKlJSZIHDUCNhx4yQIRwBlJT9XKUGLm8/QeGUNFbiwnbIznK+nDPWUZd1dBA/Kgu4b0r5CV5mVQRpLhZT0mPIb2bnAZUo0gu5x14v+4hYs70NVYDy8FXko+00KeaslbKckIHYmJXVYdRjN02Zh3CSdWBbQvP8Azv7uhahXxqmzxLdSvqqiHZmoyqtHi4WAstdHIPCREDjqpa9Ty8SUBSA0qh6lP5ZB1kALZAPHYczfw9R1dNAj4wlgM8oPfk9Gw7VTcuKB6JHdPH9OrKeMACNwPQiYxJC1yq+gqq4Zqj/au2Bp7QhXkcPADEs3emTqa1Cy4PaPe/TTLRZobWpAI+1z5hIJD2pRoWb3cZQ1BiL0pSQ48JRoLqkA9Z6uqjFkrYWpyPikArb/E4eoMZRBQ1KCom0pyLWdToZJf0GOCldPZKImKRZj1otg3Uypjyoo0NnSEaIxAmSevQjlpBCt8atHVVo9bKLi1AYIsjLkvfUbmiMoC/tKd/Cv1aLyvyeR84UtYp/saNBbL+arE8YGLo+HvY0cDZRqR91SVTVKPs1A8+h4RD09EpYtMjTlkgBX51RFdOhA9MgGdThY5YwAI3DTEzCJIbNAPcrPnwfpW7YVO/EdIEelf4XTIzuWidpWOt3KAd56emROTo6wklRSzj0fjBbx0dJQjPIaSmWrukYprej4QTdklOuNFJut3EfCxVNABlUAnqsj2rUmlbh8KA8t4ycjdLK7xuC6jkHAxAtI++0i5JPCOgqAegUjROep8SkNlSalJJzGe4H/bhlqGkLgyXlHkou4IhFC9IRG80J+Kgc1ghBEPRwIodoqCREwS4KqD8gLVPjArUNScVf4PEaemtq5E8IpRmtMW0nzjDw0G1ISELpyK4UEEPR70Li6WWEEGAFGYOgJmMSQQeCLAPcSnK3Q5ka3coOfeADCWb3okVl5hiO8/iyyz/2McuJlwad8dSNHgHK4DoER4wZIAOfbPFFKGQ9OV7jDiRRjHSN8SfzTUWO0VPWQVaqgzEjGMcqx16GIyHCQsRe0zUBagi8Wdb/Y1M8Xzg7JqE6Tw5OmF5vPlqHZ3Rehnpoam8rq0VpZjbOLMztew1IEJSdtpWfILDxEsG+foWw/3nokPChlQ/b2fThzaiScfF3gHBMIV5+uy18HXY+sEyr2KyPACDACxhIwjSGjR7izrx+cJBqvzI68DPeuz0Jj20TH9axHxhkSUegdSAy5BrmiFXwBH/LiFJTQVOZQhXoI4iZhQkg1pFkS1OaWoWRzDi7NuIsS8eoUAi0hnEOJeacZzutzi3X7d7UOgMgguY0T4Bw3vXiHO6oz6mEbdXsHhWiLiDjEPxdoePqWrtH9VXhweWQmJkyswJXcy6jLyEXuoXy4Pz8TQXrf+/owcOxQRoARYASGnIDp1pGpvTJ67R+oN9YDAp0eWdtuCzJ2ZMQs/mhAZZUMVk4ucBj0acX2xlk4i+A6cQyCnp6O8ATymMioqWWr6PuWkLymq4USPR2qHjplYLPjraPAv1CGqsKLqKmkb44x7eqNdj7088UaNGidYANV9bqb5+MFj2nRCH0xCT6ectRmcZLJHcv11CPr3Bb2OyPACDAC+gRMZ8jUXpk/vEcNxBszrEdGUQ6QFBdDQtGLddJKFGWcRZncGWKx2xBlQJajam8qyjMoyrBWDnnZBYoalNM3M0ftbB4PI6cGwjonFTl7LqCecu41l9G3q0NnyNuhQIq+FG9fjHCupiCOIjR7+kDk3n6yIC4MrpYlyNtKwSJlMsg5Da1TJPvy30IKPDGyKCpQuiMHVcUUfdkgR3NGEepqLCHw6upJXk89MiN7ww5jBBiBm5SAiaYWtfQEYoz2HwhJw3pkXO0qWTmKSvOh/IMeuvYiBESFQ9z12TuQhvRyriWsWutRtisZJVISs6SQdWHEOISRhrzurcAihKIQn+GheO9ZZCXL0WrFhbWPhMiIqcYOF7Z0wcixQpQfqodwll+HaUUIfRCyNB4luzJR8EaGdhmAC5zixnX/za27HlnQ/G9dGS5syYKiiXSeaJmA05TbERI3oHnh7q7EtjECjAAjMGgEzG5B9KD1lFXMCDACjAAjcEMSMOHU4g3Jh3WKEWAEGAFGwMwJMENm5gPEmscIMAKMACPQOwFmyHrnw/YyAowAI8AImDkBZsjMfIBY8xgBRoARYAR6J8AMWe98BmevSoL8F79C5plukhoOzhVZrYwAI8AI3LAETBt+b2JMyqp0nDpXSVntI5E41rMtvL2VS5h7vhCXae1TK88BbqPCMXoU0yPrFn9DHjJW5ML277MQNKClEd3WzjYyAowAI3DdCZivR3a1ErmFMtjadmLUWov8jExctvBBRGwCon0FqC9Ixfmqa9cdJmsAI8AIMAKMwNATMFOPjMvwQRnkfSLhXnUSlKC9rbTWlEJy1QHiKEpuyxk5+7HwrfkZeUOpR2aqcaopQ9Hb6agslsNC5AO/p+Lh6anLiqiC7MQZFO6/iEbKtm/hQrkXZ8chSJe5ntrQq5ZYTQ7OrkqFTDt7Wbd+Oyq5dlu6I+j1JE1GfUN16PWT6ZGZatBZPYwAI2BqAiYxZKbWI5OXncOFVn9Eewtxpapjl5saGtBCGe+d2rK5W8PJQYjW8jrSI/MZAj0yUw2BCnW/lsD+wQTEzG1CxbZfUbTHHW6LNUmAW3PPIHO7BA4k2BlD2mRXT1OKq88Ow8J1JgLE1AZDWmKuYYjZHAb0NrVoqA69rjI9MlONO6uHEWAETE3AJIbMpHpksmJklwLeMWIIbuk6XdhyjbZZWcPqahkyzpzHNXE8xvIo732LEooh0SMz3RDYTBgH33FcxnwX+E0UQXKwVu1BOVmqID1+ES3B4xBEmmZcwijbGbHwTtuHyuMSMmSUdNEUWmKmqMN0OFhNjAAjwAj0i4BJDJnJ9Mgok31JbgluGTUB4u70s/S6aGHJA8+Gy7ZPU3F6ytT9otDnk4rw0bxZeC9bk3qeH78KP348H659qscSNm7t2ewthGSMrynAaYmC8ug3VanAD3LRy5voCDvSxlFW1aMF7mTLjdcS67FZfaiD6ZH1SJHtYAQYgetMwDSGzFR6ZC21kJIuSW1DCpILtGTURiodvxy+hIiEGNhZc97XNSjpIRx660j1QU3FnJdmC/6QybgE4JG39+BOyrOrLrYk6aL9sU//614kzMgqTKElZoo6jGwuO4wRYAQYgUEiYCJDRq1T65GV4uxl+/6rQ1t7Iix+BFo1bglVeg2S3JMotRyN2NFesOMe/A4OsCqtRd1VwFnttV1DXYMMFkIx7IfMkFGMiVcA7AdpUDjxUDs3SygqpKRpplOQrkeTRAmev2MHIU21lphaTywAF9YcQBWnJRaiE/ikBlpw0Gi+so1p10YbrINO4fTIqpsAkZdIX3y6a2VsCyPACDACQ0zAhOH3ptAjI7FMWyHshO3/+FwLrWxgZ0simvSjhasY7jYNKMstRI1MhrrybFy4Yg03b5puG2J4g3c5S7jEjYJVfi4KDkvQXFMP6cEzKCdxTbc4keayxmqJCYQkQKpEXRoJfSpUaNX/7GhsHXRFpkc2eKPNamYEGIGBETDts3/AemRGdMbCGcHjxuAPMmTnTucD1rQgOigao91oyvEGKhYRpGn2MIXf/5CCM7tUsOLC7/+cAD9/7XyksVpiFG7v86AfGncfxslk8sz0w++NreMG4sq6wggwAjceAaZHduONKesRI8AIMAI3FQETTi3eVNxYZxkBRoARYATMhAAzZGYyEKwZjAAjwAgwAv0jwAxZ/7ixsxgBRoARYATMhAAzZGYyEKwZjAAjwAgwAv0jwAxZ/7ixs8yVwLGXER+/FCl9lXpTncTaqcGIiND8W/ydfqpqc+2soXaV4z+PjsHcj4sMHcj2MwLDmoBZGzJOjywl+QB+IU2y9vW8CtQUn8XZ04dx5OcDSD5+HnVDnqJqWI+5mTae0n49MAbzPysfWPs8InHv9DhaRt7HYhmPl3/OR1bGTvzJi9/Hk831cAf4T7wPSUEO5tpAdbvS101BzF93odGsW8kaZ84ETLuOzJQ91dMj6/hu3IoWFQ8O7v5wqS9GEbv7TUl9+NcVOBcv/3P4d8M0PXBAwjNrkWCaylgtjIDZEjBTj0ynRxYO9y4vxwK4B41BkFhMemQDSlZotoNiVMOy1+PumHl4ZdNfMfeu2xF/xxTM/9c+FGvyGAO/rUZi4jwsfmIKTbXdg1c+34rlM8cjhrZ9lKE9yFAdRjVEgdydSzE3cQxiYqdg4YatWDtPfzqrAemfL8XCWdTGmGDExFM7/99WpNdpK1fl4L2Z3HTePXjvvALpb03RTu+NwfJkvQY07sPimNuxdt8hvLfoHk1dd9yDtUe0rzlcf7XTghGx3UwtmqSvQM2xzVgy73bEjKO+TJ2FJZ+dNN6TUB3CEo7RknlIjB2P+W9tx0d/JW8k9nYs3tk+/deYsR3LH6Vx43gl0jU+PIka/bFQlSP5radx3x1jEBEzBvH3zMOSnTl6R1Tjqyfap0m7Ti02YPdfxyBxyXqsfeoeJN4xHokzn8ZHv/VhOpWbiqUxX/z+drzyGLU1ltrxwFLsLul40/TGK+Wf49VjPf+/5VAcoSlh7fjdvS7NqDuPHcQI6AiYpSHT6ZGFkR4ZK70QaEnD0ZJJeGfvcZz8fi0i01fQQ0/vgdaoQOgzH+O1uxTY/V4KQl/fidW3luOrb062V2qojl4uz+1SnFyPFzbkwP/5nfi/Pe/j/uZ9+JYMUnuhqeBmNyT99X18uucX/N9nqzDh8hYsWr1PYwAsw/DcPprSyzqI50bzEbn0F/qZ+z0T65M6X7wB32/+Epj3Pg6dyMSPnyzHRN2bzq2rcIQ7b8tc2Pc0zzDQvmasxxP/2Af+/W9i14FfsGvNTCi3P4fl31R3bmjPv7fSseNewZblcSj6fCNyEz/G9hfCkbZ9H3K573p1+/DP59cjN+gFNa9dK+NRs+1pLKeHva407l2N5d8B9799EEcOHMSXr85HZAcldREe/pRj+AuWjevyJthWT82xk+A/tRNHfj2OTxcAX/19BfZ3sJg9d0OzR4HTP+Zi4pu/4OSvB7HM/Sje3KQdVzpAYYBXwmu/q8d6+yPe4CeuxUn1uOfjhxVRhi7M9jMCHQiYnyHT6ZGFcnpkbLR6J+CNexfMhTf3rHKKx58ejkbFgW+Qrgt0cArHrTEBmBgTCL57FCaMDsCEyEA0Sqr1vAgDdfTaAAWO7d2L6vgnsHJ2GLy9wjBj6WJM7PRQTXpmOR5OikKojze8Ryfi6UcmAamnkNPXgAwo4P0/q/BcIiVs5vPhSnUlkPEzvgykrw1I/mwXGqavwup58fD38oZ//EIsm+uN0wd+7Ogx9dYgC29ExochND4KAVY0HhMDEBodBhGphVfQeY3J+3CsZRr+tnymmpd/0nIsmy1C+rd7Uaytt/oyqc2ScOqEGG+4jqRjbp2JP80kEdU+Fv6tj+Ivt3Lfz/jwn/1n3Mk/im+P9MEo05mh9y9CEidCwffGtLuiocxNQ5F6XE3Eq499YoffnAR6ene9PjT6oEd2fRpoyquaQNPMygdePu1tcvX0Bq+mHEXNQCS32cpBnamezydpTvrHp5lYPo+2XFWQSaAM/upjeqnDYHr/apRfVEAUHdiuBGBPD2YKluAeyrpSfmQj3tyyF6cLy0FOoqYIZho/JddWkwPCwgP0au7jjwPpK03n5eY1oKZsAWJ2drquXw2q6eHtatRMNx/cENCggG9ho/2ZxqaFxqQFKC8tBMSPYrSeHl9AUCCwqwjFdA0u1ab/XQ8gcvtqPHHvSUyYEI3IcdMowCUKrn2x6dQEe7pf2obYku4DT0oOXcx5fsaGytDLxMj2Y+25+6xJQSaMisl49XGM2eE3JQHzMmRG6JG5G/WwGA5jaQpNM9Ky6c6r6W5bj9z6UEd/sJZtxUsv7oLDYpqOeyge3twD+shSxL/Yn8rICAxotnmgfaWpz38cxPbHvfvT+AGfwymFq4vffGz9KRHpNDV4+nfyojbQd8+f12LX++Sd9+Uqne+TXqR++lJt+7HXl1f/2szOGo4EzGtqUa1HloD4Cbp/8fAjEWULl9H05hkBkui6oQqnaebvp/03sh8h0i3lOJ/f/j2qvLAQSidvBBj0pPQwGlkHp0dWXlGt9uTaiwjeo/ioLils964ai5BboXdUXhpy+Yl46HGtEaOTy0vIM+sykuRO0PgqyDMZtGJUX6kd9FehUHZqh6U3QkOAotS0btretcWNl8tRXtOH4AltFd5i8r5Kc3Be3l5nUQHnpQXAW//+F9AU5bS5+MuK97HrtZnAyaPI0Duna4u6bqkpykHblzdFIUpKAS//TqZQrhn3Nk+6azXdb+kLL+51urNR7b5WtpUR6JaAeRkyGNYj43rRIm9AY0MtmpR09/9xFU0N9HujHDQzc5OVahz6cCOSacquPG073tyeA6/7aNqpTwbfuDq61yPjY+J9d0F08lO8+R09FCtysH/jZhyjqc224h0IL3kqfjuneagrSnZRO7uLSnOgb2x8FJ88gtw6mmYbFHtmRF/pARwZykfOj7uQXlaNGjJGmqY4IGnBfIiOvY4l7x9CbhkxP38SyZ+vpohQ/YhB6jlF9L37yBTc/cz2tu9axt6Y9okzMRGH8O56Cv6oKEcxNy37XTVCibO/tpLi7zbive9OopheLGqI+fc/p0HpGQj/NpfNyKud+xJv/jeNxq0IyZs24ntMwv2JHacVa/Yuw913TcGaY0bW2XaY8by8xTQ/nnsUh0qINQebGbW+wr7pjzevqUWjhqMVNQUnkFWlmweRI/dMJb1Fj0REYgzczcw0G9Wl/h5kFY85SQ346Ml7kNvkgMgZq7DxmT5+9B9gHfz4VXhn6Qqs2jQPdzeJMGHuo7h/dBHSdX0avQjrl5Zh1QsUom3pAJFnPB6ePw2nN3fuND34Fi9HyksbMX/SeihUfMzY2F3kYufzuN+5DBZT8GZG+77F4/apfwl9/iB2PRWg2WFUX6kdS1/Bsb+/joX3bISCFkq/enQb5jjRZ62o5fh0oz3e+PB1PEELt5U8Ebwi4jDjcWO/KXXX9k7bXGfitQ+qsGbd65g/nQIvnCkg5NH3sPpRbR/ocJ5dA3L//TL+u44821Za9DzuPqx4ZxFCdS8wXHaTRXoLjDPuQcQmOpG+S24+9RYStMe50re2gGO0dGI9XWdUPJ5+ex1muBrRRiMPMZaX6/QleO7kCrz5wHi8QobM+5GdLHLRSMbsMA0Bpkc2XO8Ebl3U4zl46mfNQ7Zf3TBFHV0uTEZl3j3Yn7Sn3YB0OeYlnrxAAAAZ8klEQVQ6bBiUvl6Hfpjkktw6stvxsefnzGCYhCer5HoTuJn8l+vNml2fEWAEGAFGYBAIMEM2CFBZlYwAI8AIMAJDR4BNLQ4da3YlRoARYAQYgUEgwDyyQYDKqmQEGAFGgBEYOgLMkA0da3YlRoARYAQYgUEgYNbh95we2SnSImtxi0TiWE9unSrQfBkFhcWoqpNBcU0FCxtHjBSHI8jbAWbdmUEYPKOqbMhDxopc2P59FoJ0C5GMOpEdxAgwAozA8CBgvs/+HvTIWuouoR7O8A4KgIPAEs3V+SjIOw2lZQLGefQx2dzwGCPWSkaAEWAEGIFeCJhpsAfpkaWfgmREJEZWnUS+tZ5H1qUzMhSdSkGpbQx5bSM1XluXY8xsg6oCuUtToLg1BJZ5JWioV8F6lB/8H4+Fa9uCVBVkJ86gcP9FNNaS5+kigtvsOATF6CUblBci88UM8B+JgeVvmZAU1qOVL8TI+dMR7FOIs6tSIeucJcHSHUGvJ8FTPyOWSoFGLoOFrQiufUlvZWZYWXMYAUbg5iRgEo+sVX6FpvqaofqjHaKltSNcRf2b7tPpkUWTHtkVUqzotfxxDa30sOYyvA+vD34q1Gc3I3zZHIxxkKPqswPI3WqHmOVh4FRQWnPPIHO7BA5zExAzRoCrp88g97PDsKDMDwFifSJKVO/Pg/sDCZjwrBCtkko0tFLqBpL5iNlMWT6MmVos2Yon5mxE4zyWUaHXe43tZAQYAbMkYJJnvwVN9pWfz0RuTvu/ElIA7peV7KMembyyCBXXRkA8ytksAffWKOFtY+DKNdtSALfpgbApK0IVZdviks1Jj19ES3Aogia7w9bVES4zYuHtXo+q45KOVZIV502IQ0CUI6ysLcHz8YGruE/JFntrItvHCDACjIDZEzCJIYPAFwE6pV6uy1Zu8BP3I5t7mx5ZOMR6ekw9UWyRZuNcQSM5H5EaeZCeDjTL7WR03PSmCUc4wgYyNF3m5gLlaKpSge/lgvY8sI6wc+dBWVXfMTmyBQ9Cf5IIGEgJXIxdGUyZdyAI2bmMACNw/Qj0y2nq2lwLOPv6wUlyHnX0HLbzCgY9c/te+qBH1lJ7Hmczq2ATHIcIt2Ea5KH//aqVcvf3Sw/KEpbWfUfNzmAEGAFG4EYhYCJDRjjUXlkpzl627583xhFV65GNQGvbA/0aJLknUWo5GrGjvWCnnTFrqctH+rkK2AROwDhPI1w3sxwtFeQV9dQyF03rLjWQHyaE20iukwLYkfiaokIKJan1at4J6tEkUYJH3lefBs2Cq48sZm9GUkXKxxKSWXHwZsEeZnmvsEYxAoxAbwRMM7WovgLnlfmT0GI/vTF1HYb1yFrrC5GeXoxrI0Mhtm8lXTJOm4z+ya/11k+z3Cc/kYoLWfWQSypwYXchFGJfuJHcPKcw6RI3Clb5uSg4LEFzTT2kB8+gvNIRbnF9lAwRCCEQKFGXJoFSoUJrd5hKtmPR9CmY/153OmFmiY41ihFgBBiBNgJ9erk3yE0gxuhBXnSrqJWgroXci/J0/F6u1yLncCTEiPW+KRls7XU+gIzVxJFo3PUjyqrpe1hgIEL/PEYdscgVi4hYjHmYwu9/SMGZXSpYceH3f06An38fAzko3N7nQT807j6Mk8nkmXUXfn+dSbDLMwKMACMwEAJmuo5sIF0aBudq15G1PvYgwmP6aJiGQfdYExkBRoARGEoCJpxaHMpms2sxAowAI8AIMAIaAsyQsTuBEWAEGAFGYFgTYFOLw3r4WOMZAUaAEWAEmEfG7gFGgBFgBBiBYU2AGbJhPXys8YwAI8AIMALMkLF74LoTqPnvAsTM2ojczpn6r3vLWAMYAUZgOBAwa0PGCWumJB/ALySu2ZaYorkMWb+nIOXID0j++QccOX4SWaVXOuYfHA7kWRv7TCB93RTE/HUXGns6s24XFsZMwZvZPR3AtjMCjMCNSMC0C6JNSagHYU3OoglcxAgWC2FDuZuu1V5AfmEqsqwSEOk1THMumpIbq4sRYAQYgZuMgJkaMhLWPJ+HFp9IuJOwJmUBbC9CHwToJY2Hoy2pRB9GSS3pxniNvHmGrywDZ9ZXwGmWCE1HSHyTsjXzwyIQsjAMjlp7rszIQMEPJNxZIYeSNMoE/qPgPTcWnj7cImw5yt/Yg0vW7kCZBC1eYfARS1B6WArryHiMedKXMj5SUUhRuYvSY6VJIVdwdfjB55FoeLh3WsitoHyNdQrwnUSw78/7BOV7zNm5FKv+fQjFTSJELliLjX+NB6fzmfLP8Vj8ne4ueBnxES+rx9n7Ea1+WsVWzJ++HunaqcnT84LxH+4Ay3i8enQb5jjRz9nrcffjqZjwuAg5B9JQ3sRHQNILWP3/ZsK/P+1Vt4AVRoARMAcCZjm1qBPWDCNhzd5LK+TVpaiWWcDeoR+yMb1Xbv57W6WoKXRA8D/nYOJrt8L+YgZKjsra2t3SpIJNXAzCXpqJW1+ZDF/3ahR9cAZShe4QFZQ2Pgh9NgKC4kxUysIQtSQMluk5qKrhjpGh8t/JKLkkgu+z09V1+LhJUPh+Kuo65Wys2fMcEqdOwZpj/cOmqNyLHflxePmzPdi6LAxFH6/Gf7RThAmv/Y6srHxsf8Qb/MS1OEk/c7//sCJKczGvhdhOMjRZv67FBL43/rRTsz8rQ2vEdE1qScPRkkl4Z+9xnPx+LSLTV2DJhzn9azA7ixFgBMyGgPkZMqOENWUo+e0AkpN/wPFzZYA4FuNGDdcs+AO5F4RwnRYCW86jcPaBKMQSjRdq274n2t4WjYBJPnD0pMTBIsrVeG8wHGTVoHSV2mIJu0B3CMXusHcibyvEE7Z+I2EvIA+OHFyU5qMizxHiJ6PhRln3uTo85o6Bi+wiqgoH0u5uzuXF4S/L5yLSLwCRDyzEve7lSM/t4It3c1JfN3nj3gVz4c3xcorHnx6ORsWBb9o8ub7Wxo5nBBgB8yBgXlOLbcKaEwwIawrhM+YOuCqv4Sr3jexCNgqEExA6XHXJ+nsvWAggaHNELdUK0ZC3h/61Vl5A0deZqCmup8z3uosIYKvnTd1iTR8aLZVqTTMLra7ZLbSp5Sr9IxHP5mvkxb20HUWd2uhSz12nfXrRdd42ZM3rb0cAvmsgvHQadpYOsKc5RUUzZ8hM6Glb+cDLp72Nrp7e4NWUo6gZiOTmMFlhBBiBYUnAvAxZH4Q1regJbk9OmL2jM6zkh3H2Qhl83QI133WG5VD0s9Fdcg6TQCdXVNUo2XwStaOiEfZqIBydOSNXiIwXM/BHH8LcLYS+CN9wB1y6XKef7e3ptMGuX31dss7d9b27bT21k21nBBgBsyNgXobMSGHNzhRVf9CWlha0cP+/pfPem/T3JikFgAjg/EQIGTEtg0u1UHBRn0YisfJyBF9egVqSy6FA0d6LvBrlUsDRtZ/BHr3XrtnL3a0GjI46bkPZQ2Ut5TifT67pSE10R3lhIZRO4Qhg3lgPwNhmRmB4EDCzb2SGhTUbL6Yjt7gM1TVXUFd3BZLiNORJFLBzpW87zIi133UCR9gK5WjKlWq+mZGhKd1Toj/zaPgOFQfDO1SOyk9/RXkuCYCSwGd9RiGKPklFVXtMibqemr3LcPdd/Q/2MNwYilIU07xg7lEcKmmAgpsq7WzU7L3h5VSN07+cRI1cAdIR7VSqcejDjUguLKcozO14c3sOvO57AJFD4g12bgv7nRFgBExFwLw8MiN6ZcWzhkJSiOxSBTh9TSu+EM6jYhAcoHM7jKjkZjiEwup9F4Qh78tknDxiCWuhI5wTQ+BU3JcoDSE8n04Cdqei4pMDKJITb2dHOIQH65yaISXpOn0Jnju5Am8+MB6vkCFrC7/XtYLC7RcsnYvcTU8j8TM6QD/8njvGKh5zkhrw0ZP3ILfJAZEzVmHjM2FD2gd2MUaAETA9AZb93vRMWY3mSEC9jiwHT/3cKSTfHNvK2sQIMAJ9ImBmU4t9ajs7mBFgBBgBRoARADNk7CZgBBgBRoARGNYE2NTisB4+1nhGgBFgBBgB5pGxe4ARYAQYAUZgWBNghmxYD98gN15VgdylXyHzbJc49kG+MKueEWAEGAHjCZh1+D2nR3aKtMha3CKRONaz6wc9eSnOns5GrYUPYiaOgTNbR2b8yN9oR3ILsr88g7IsKZRKS/BGusNtViwCxrUnnm6VXEDhF+moLpWhVegC17viEDTZBWb9R3CjjRPrDyMwCATM1yPT0yPrtt9/yFCaU4wWW2PzVHRbC9t4QxBQoebLwygqsYP4b7MQv/YuBITQQu6Pj6NcncWfCpczcsuvqLYOQOiKmRg7ww6Nuw6jIKOnNCA3BBjWCUbgpiBgpi+jveiRaYelqTQT5fwQhNkW4yylULrpikE9MhWqPvwaBYIE3L7AS4OnNg/p/8yF/YuzECA2Uo+Mzmwty0P291mQXlbByi8QAX+KhZuonbgyi3TP9hRCWkkrpu1c4DIlGkH3uEOXA5iTgyldvw9VgfHwVuSh7DfSNiN9NNspCYidRXpoutJfTTMVZRwpU0IQGQZPf40H5pbki8qULDRymf5dqQ85eaiqdoH3Xyl7P9d2z3j4pO9GYcpFtIwLZF5Z+yiwnxiBYUfALD0yQ3pkrQ2kN1XBQ0Cwp97DctixH3iDDeiRGb6AIT0yrgYV6o6VwW7OXRi/KgEe1iXI+ygTMu1ns1ZS58745CJwexyiVs9C1AIftPySQpmkOuWwonqunqBM/M7jMGb9g7j91ckQB3b0pvutaWZJWUv8BVDklaFOrfyihCy1Ek0OnhD5aig0l9aixUEERxcdFR4cSZqmtaKmrS+GebEjGAFGwBwJmJ8hM6RH1lqLopwK2PhHwL39ld8c2Q5Bm3rXIzPcAAN6ZNoKBKRr5htBemTuXvCdEwIbkoe5rPaClbh8iJS8x8cidLIXhK5CCCPGIGCiAA2/XSQN6k7FKxgh5KkJ+CQ540z6aFSnaYolXB5JQoD7RWS+uB1HF3+Nsz+RTN2z8aAmqUuLjKYQhTxYNVB6sxe/RnpyPazod8gUpJ5tmlawWhgBRuD6EDCvqUWDemStqC3IxCXbEMR5MH16GNAjM+aW6k2PTHM+CW56tbkxgLsjbCxkaK4il8y7HrJK8uoyknHsWKeria5CSYcI2hLyWoIvFvXqQfdf00yF+uRTKC1zRcCSBDgJlag/moriD34Fb/kkuLWl4bSAhSUf1s5k3WypYZ1Uro3hxY5hBBgB8yNgXobMoB5ZCOR1Mihl6Uj5Ob2dJhnAs4er4DV2KkLpe8hNVbpkbtfqkXULwYRh9G2+vCWEc2YiZlp7dGC3l6aNt3DCn4NRFGW4eFAK4SOT4RmqcdNt541DXdphlJ2RwY3apvG+yLja+SB4BWXRp9K8n/PShOCZ37zEYFBidTICNywB8zJkBvXI+GgdmwA3veexvDwV6ZftEBodApHdDTtO/eqYBTe611rVMi7qZ3UDPcj7PI2mgryChMagje6Q1ONqqxAubmSU6NuU0BOoKpRAOS2wV2/LqA70V9OsWQEV2e/OZtKSOt16VROVaCsmAdYfqlFPXXFSd4W8ttJ6WNB0p7DziUY1lh3ECDAC5kLAzN5FDeuRWQmEsKO3aN0/Afc6fQuPtLfYm3XHm4q+f/m6oLWwFFIuAEIlQ9VP3Xy3MuJOlJ/IwIUs0iOTSFC6Ow9XvX3hoXZqeBg5NRDWOanI2XMB9dU05VgmQdWhM8g9VG1EzR0P6bemmbM7nL2BuoO/obKQ2lktRdWeDFxuIoMboZkWtQgLgZuLFJU7Mim6kqIcj/1Ga854cE0YxSIW+zxS7ARGwLwImJdHZl5shn1rBBOjMSr/OPJWUhi+My0AnjgKjukUYdinYgmniZ5o2v0jfteG34c8NQa22josQmIx5hkeiveeRVayHK1WAtiMGgmREVONfWpGrwc7Qvx0Alq+yUDpu/tQ0ELBJCNFcP/z7fDz155oLULAX+PwxxdZyF6TATgQj7mTETTupo8Y6pUs28kIDAcCLGnwcBgl1kZGgBFgBBiBHgmY2dRij+1kOxgBRoARYAQYgW4JMEPWLRa2kRFgBBgBRmC4EGCGbLiMFGsnI8AIMAKMQLcEmCHrFgvbyAgwAowAIzBcCLCoxeEyUjdxO5WHf8TJHdpwftcQRK6OhSNb+3UT3xGs64xARwJmbci61SO7Wozfj59H3R96HbnFGUG3x0Nsw4Z3MAi0nj2K419YIvStO+B6HQwIb/JdmDSZljAfTcbpQ4PRQ6qzbhcWTloN+zcysXGa9hqqNLw5fR5SZh7Epy6rkbjuZA8X5yNh7QfweudJfKWTjel8pN9i7NqzBKJvFiDxtfZ6+E4BiEx6FM8tnY9I+84nsd8ZAUbAGALma8j09MjUCc31yy0CuIdFQmynfareQgupWerFzpTY7yYk4Dp9LfZGN0DB1Zm7FYv+lYZJ//s+HlKvU+PD3ssbNmP34H71AfVIXrsAH9ksx/al8bSXO0QEf7pdG9U/J+LlncsxwVKBhtxDeG/daixqcMS+t2dyijOsMAKMQB8JmKkhM6RHRglo7Zxh79DH3t5Ihxen4re3JbCfbEeSJZehbLKETdQ4hD4SCFvr9o7W79qDc2UkJhlVj9IfyyCjtwJeIEmp/D0MXHbEluIc5O3IhbSc0xJzpMXP0Qi5z0udbqr11GEc+6yirbLsxRc0P/uMQezKcdpF0SrITpxB4f6LaKxVwYLEvtxmk/JyTMfci3LSLCveW4g60ixr5QthPzYCwQuoreoajaujrSG9/KBorEZjMxmWkQ4aA9LLsX3a5eQNfyftGQo32FDtrv5hCB2tV4t9mNYQNSCHus8XuNH+sA7tUBsyC3uI/ALUhg1+YXi54gju+/cRpCtmIom9kPVpWNjBjABHwCwNmU6PLNpbiCtV3QzUH82oSPsJZSoSerRxhptfOII9hJp8gt0cfsNuIj0y6eUARP1rEmwVEhS8dRjZex0RO0dP9ZI633oxH6XCCAQuj4e9jRwNOTJNXsKGC8j7IAPNY2Mx9il3WJbnI29bCnJsZ9J0F/GMm4xJcXR+L1OLrblnkLldAoe5CYgZI8DV05Se6rPDsHCdSeKdGvKteXTMhyXgJd2KiKdcwbtajytHpbhKOTO5JPTG1GHsGB57ZQqW/ByNV49uwxyd4TH25Ot0HI9P1qtVAUWf82BepwazyzICZkbA/AyZTo8sRgzBLd3obFg5wp0MF5+kOKy5xK8VeaRPdhotVgmIEOm5ImYGenCaI6DM7iEaD8zaHeIEF0h+vIC6WSI4dfiW5Qqfx0LgqNaxFMJJ6y0pM0jVGZ4IfSgQjpwnIIpGQN5FZBwvgixpnNpj672oID1OCsvB4xA0WaMIbTsjFt5p+1B5XEKGjFN/5jTLCqEIi0XkLF9tYmEhvOdrVavJGzNcR++tMN1eBZL/HoyIThXqslyZ7jrtNTUW7sN7X6WBH7YK4zrqjA7G5VidjMANScC8DJlBPTIaA6sR8PYf0TYYTs4OaG0+jJIKCVpEPubpYg7WrWMhhKAdBXiU/t9CVo9mSvjupPdQtPAQwb6bh6RcQirOIwJgqzedJRxF5utEHa7SO4TQ4HuBHE2kS8YPctHLfO8IO1I8VVbVowXusFKRZpmEPK9JGkPXFYURdXQ9qcctSW9nIqvHvYZ28DFh6U4si9cep8rGf559GbmGTuvrfvk+LBm3r+0s+/C5WL1uPijvMSuMACPQDwLmZcgM6pHFwL1L1JwA9nbWaCWlX+47u3l1qB8jMpBTOHkbbnqqs+wY6YB1wTaQ69zA59p76X33UikgIiNvckNGwR7LvlyOBKqbR2n7vZ3Yh7Eb+JZiXRsCAub13DeoR9YdEXqjb74GC/rOcNM9Dlrr0VhBVstZY6aaKxvQ4iCCbTfeV3fkBG7kfZ2SguS82rwy2UXOS/ODjb43xi2bb6XrcEayg0UUwI50yRSkV6YkvTJNHvl6NEmU4Pk7al4qOM0ymmGU9KhZZkQd2sZbcMKcJDutv/Kic78UddWobqJZUi+R+d4PFOzhHaQN9ujcAfY7I8AI9JmAmWX2MKxH1lSeidziMlTX1KKu9jJKc86iqIEPDy+axupz94f7CUrU7E1FVRnpgBXmoOgXKQSxvnAw0v3iRQXCCZUo2aHREpOlpaLolBzCeN8O38csXJ1gQ95ydZYMLddUapumKZZwiSM9r/xcFByWoLmmHtKDZ1Be6Qi3OF3ACWmWJQWCn5OB3L1las0yeaUEl3bnoE5djzF1aK5m5eMCmyY694wU8gY5WtSh7h3LsdVTcPf0Zfi+rvMe9jsjwAjcqASG3bPfgh7STZfO41LJNXIQLMCzo0CG8EgE3HSBHnRLWpDmVpQCZRv3QXaNB2FMHCLuExkfvengi9BFzcj7+izOvULh9wIKv09MQOBUx473u08wAqZWo3DbHhynw6AXfm8RQXpkD1P4/Q8pOLOLoki58Ps/J5AOWLs1tQjVaZb9hnM/cNfRht9rDzGmDnWDfEIRNEOK/B0H8BtVw5uUhPhHuIASVhgBRuBmJsD0yIbr6KvXkUnhvS4JnjfzerrhOn6s3YwAI2AyAmY2tWiyfrGKGAFGgBFgBG4SAsyQ3SQDzbrJCDACjMCNSoBNLd6oI8v6xQgwAozATUKAeWQ3yUCzbjICjAAjcKMSYIbsRh1Z1i9GgBFgBG4SAmYdft+tHhk3MC0NKC/IRWlVLeS0Foln4wrxmPEQMz2nm+S2Zd1kBBgBRqCdgPkash71yOQoP3ca+Vdd4BcSC2cS07zWTNkojFwEzAafEWAEGAFG4MYiYKaGrBc9srpilNYLERAXA7EuFZOTXubcG2t8WG8YAUaAEWAEDBD4/7CNBiZ8qJ3bAAAAAElFTkSuQmCC;" vertex="1" parent="1">
          <mxGeometry x="40" y="80" width="330" height="314.03" as="geometry" />
        </mxCell>
        <mxCell id="zKgIJX_qSR_OyIrzCmwO-9" style="edgeStyle=orthogonalEdgeStyle;rounded=0;orthogonalLoop=1;jettySize=auto;html=1;exitX=0;exitY=0.5;exitDx=0;exitDy=0;" edge="1" parent="1" source="zKgIJX_qSR_OyIrzCmwO-3">
          <mxGeometry relative="1" as="geometry">
            <mxPoint x="460" y="236" as="targetPoint" />
          </mxGeometry>
        </mxCell>
        <mxCell id="zKgIJX_qSR_OyIrzCmwO-3" value="" style="shape=image;verticalLabelPosition=bottom;labelBackgroundColor=default;verticalAlign=top;aspect=fixed;imageAspect=0;image=data:image/png,iVBORw0KGgoAAAANSUhEUgAAAZkAAAGvCAYAAACJhqh+AAAABHNCSVQICAgIfAhkiAAAIABJREFUeF7svQtclFX+P/5mBmYcHK4ygDDcUQJxuUlCrtdINwu/7pq1mr/sauXmrrvaWtbWZun+3fS77tra1cy+liXZupqaZnkhAzVBUiGUm3IRGeQ6MAwyw//zzAWGYZh5BgFBz3llwPOc8zmf8z7Pcz7nfM55Pm+HdkpgiSHAEGAIMAQYAv2AgKAfZDKRDAGGAEOAIcAQ0CHgaAuHpqbrtrKw+wwBhgBDgCHAELCIAFvJWISFXWQIMAQYAgyBvkCAGZm+QJHJYAgwBBgCDAGLCDAjYxEWdpEhwBBgCDAE+gIBZmT6AkUmgyHAEGAIMAQsIsCMjEVY2EWGAEOAIcAQ6AsEhoyRqU/bhfQN+Wjri1b3p4yc73F86VFUs0N5/YmyTvahP49Fwp8O2q6ncQ8WJ0zDuhzbWfszR976aUh4Ng2N/VnJgLS1DB89PBZz3y/sz5b0Xvb5DZiVsBDbq3svgpXsOwSGjJERBQfCK8oNXRQuOoWTi3eh8FJXQLTnMnF88R6UVPQdULwlecogG+eLYUMGWd4t65qxLg1PcAP3+V6WH8hiIjnuTJ2BSM+BrLR7XS5jZ+D+5HCIut/id+XQMiQkv4RjGivZB6StrgidOAspo1ytKMLzljoDq2eMw+IvFDwLUDZ1Nrb/ZREWpI5DQvRoJP/lCP+yduY8s4YmBs/1cmIwgHra2awBzW7zO5kB1cZKZZLEeESa3w8KgLtrPupylUCQtONuY14l2mRklHzMCwzA3wERGL1gAOphVfBHQByHR/8axz9/P+WUT1+B1/pJdofYAWmrKyY9sxqT+qAt1fu24CvMwoZUGX9prS1Qi6KQsvAeRH72EpUfpGmo6NnP8PWrkWnNycHFr4vRUK5Cq1YISWgg5HMT4Rcg1DerKAsn/7cSLlOHQ5l1Fa1NQgyLi0Hk/HA4O+mzKHftwen99fo/IhMxYWlE5xekQhm8IkS4ml+J1nuNM0Ql6i4qIYkMgNRQDdQ1qEg7hbLsGqjUnB4hCJgfj5G+xgwknnNzbdYgZJEnru28gLqrrRB4+CF0+WSM9ADainKR/1keaspUgEiCYYEhCHkyHl7GyVxeJjI2FKCV01QcgDHrJ8PL0AZjH3aRMdwN7hPjETHLXz+z1VTiwguHoZoQD1E+1UOYYUQAQp5Khp+fiZ6cMHUDquvUELvL4CI2Suf3s/rThZixXY4lMxT48j9ZKG9wRezC1djwXDJcDCLUpQexce0/8NWJQjQ6yhGZ8jheWrkAkRLKUL4ZC2auxRnDbPrEQ6PxEVdOmIzXjm7F9EOLMGVrFLbtWopIM7WrP6e6vxyPtM8XI7Q6A++uWYvt6bmohgyxVMfylU8g1qgEJzP9JST/qR7L/zcK6f/8BOkXGyDym47lH63HnG4TiAac+OcjWLovDC9/uB73+VN5zUEsvfM5HFJzwuR49JPvsDyG+92Qfia3ysMZmLQsHnnbdyO3Ug3ZhGex9m9P6NvKZVPlYvuqlXj3IGHhFY95D4dRPedx367P8WiAiSwrvxa9dS9mvWNwLU1cjYy353ZgrS+mRtF/VmH1ewdwpkINkYccUVMW47W/ppLW1N17FuGuF49A1wxKi2PS9L/csRS7vyAsub9stZWyNOZswxt//xDHfi5Dq0sUJv52BV5+Jhleemk8/q/A9scnYPVJfdbIP+xH2lNhXcvx6VdjCQ1huzUDYb/dj/GG57j6i0WY8b4cm/e9gljj86M6iBX3rIT6le+wYTq9cC7JePQvySSF9NnX0wvQgvJ9L2HB1t3Io2c88ldLserluQjtyN6AMx+/hnWfHEUe9bsoJBnzl67Gkil6Y3fsL7S6+k+DQVN6DqNf0v0un/85vl7JTVj05Td+mYncUgVaaQUZOeVhLF9Bz7C7oRgvPY1g3Lo/+9Wp09akwbCkBES9kIo7X52KYF8FCv99CjXGt4XDVVuDmqu+GPPXBzHhjQlwLTmF87s7l87S2amY/O4CGoSkXV1luj4Rwv0XPhCUlKPBKFNZiboKCdxjjL4RJSreO4TiKzIE/26mTo8A70oUvJWFOvN9k7aruLS3CV6Pp2LCP+cgbl4onLkHXaNA8Yc5aA5MQNyqORj3wiSExA2j6yYPRmQSkknPyYuD4WgJ1YYS5P+bZPjH4BevzUbcfH+0fncMuYdoFdaRNKj7sRayJ6j+9akI8axA4a7ibvtQ1buWYMrd0/BGuklRO35VXz6A9OFL8cm3P+LIv2dAsWUVPjK6veqOYM2TK3HC53Fs2PEd/rvlBYwv2YBnVx3U7yX4P4FtORdw7vvVNDDQwP05/X6O/uVsxRx6uVxiY+FfmYvcbhsPauSeOw+X6DgaFMuw/c+L8NHVZLy8/Tt8/dELCMujOl7dQwbHLLVmYuN71bjnjf344eRxfPLKDIR1G1c4A/MUln5tYmA4McLp2HCadMtYj0ndyhjqacvGVz+G4qUvjiNj/xpEkh6r08oMN9U4se45rDsThiUf7sd///kAGnenIc/OjcHQ5/brMEp7TA6LapRuwytvZMDriffx32+/Q9o7KzCTRkPdhIWSOPU9nOYw3pAKsctcbOLw5/42Ghguk6221u3BX/6wFnmj/ogPd1EdLyejeusirPjU2FZDZVZ/yDDvQ65uzlhbaokd/Ur1NB7ejJ3V0/HoA5wp1SevKfdgfM0R7P2pUxH18QM4hsnkarTDPUf9un2vGI/+m/rtg2fhdXIVFv8zu8NQF215Cs9+0oiJL36M/+7bhbcXuGDvi0/h3QJ9vZNe/1GH8bb51GdTaGLA4U3/9AaGy6NGdbM3Up57S4fnf7e8gvFX36b3ZE//7rl1wjJkfrM0HPaZ8s53xSNscgDc/KSQyGTwvn80XJUK1FaaViGB9/QI/cpF6ougSZ5oOVWCOmt+Z5PigqgguGqrUVOiv6i9WA6l2Ade4YZp0KULKM93QxCtOrxD3XR6jJw7Fp7Ky6gyPFCd4oQYMTsRIwNEEDiJ4BxNunPPtbYFrTSpGRbuB6mXBBJfWkFNjYIXrXD4ptacAtTADyG/DYebTAppHGGTJEH98UKYmhnphGh4eZHuTlJ4J9Cs6nItlDyx4KuL2GUGFs6P0s2mXRJSMcm7DGfy9LO2sn1v4yvJAqxdORexIXLI75iOJX+ahWFHduMYLa5sppAoxA0/j5/yuJyF2Pn6S/goh5sBlCEvT42o2DFA8W58mSPDnOUrkBJOdYxJxcrnpgNHv8DRblbGFff8aQXuu8MVYjHtBSRP75wp6pSpxzGdgZHj5Q8MKxibSppmkOP+JwwzXK/puO9OMfLO5eozqI/iy30KjF/0KubEcFikYvnjky0bCrvqNMtcXU7o0GpuYhzkXjKqZwrmPDJdv0K5EbkmZRsP7UF623T8fkUqIgPkCE1ZgeW/luHMl7tR1Ed12NevZdi59SBc5z6BFNPVq9cU3D1OgfT92Qat1Ej/9ihw1wxMNM1nU2cZ7n+Onq87qN9iFuDlx+Oh2PeFfgWuycDWrYUY/4d1eHpKFOT+YYh94AU8FV2IvV8b+p6H/JRnVmBeSpwOT67PFs2fDGTRyqaP31ebqgzyDP3qLtNWlKBwx1lUF9WjtWP1IoGz6QpCQAZoRCdKItlwCJT1aKZpnDvnnrGVJD4YEdpKhqQGiPBEQx6NUhF3wt3gqmorJ1nXaQX1wjYa8romz3ruaTDx6Qg84RJs5uPhijj5YGSSFOe37cGpTB+4B3vCIyEcXmSM+CZVJZmSEWFwNpkASgNpH+mHOrQQHlKduReSq6Sz0QIxXbyuhtasEq+HtuLcQ3xrtpDPgw4nGHteKIbLcJqXNXNGxhVFeYVQF2RjVsymrgWFcWggiMG5oawlYTx+EdmAz87RDNn3AP6zezcaxA/g0dAy5FwKQ0w0We0yblANB9nbjiSOiEIYPkFxOV0y9d84RiH2DkuzZn1Rdfoq/PFberjumIxQ/n6fzoodZfA3KScWUV2Nat2MV1xVivJWGvxHd86gXUaHw9/Rjk1qa1gZ70WlYt4du7Fuzr04dFcyYmm1lzKTjEFv2tNDfWWXaEYV9DDuMHmnwkZRB6QVooheg1ALj30Ponq+bEe/qk9+iM8KkvHUuigzeTJMn56MNe/swZkVcYhtzcA3tGKf9Fc7jTu5eUM6fWPwCgmDSyO1tRYYTy7Qwlpyd/15HKL/3LV6F3+Da77nVnbcKTuyAeve3o0TBWXcI6NPklS2kjHDrv+MDOdi2pSB2sB4RL1Gs3cPeopVBch5Pgft1iw9d48bVa3l6dIICTyiPVGYXQkVlam7qIHrDHKhmeQRSIMx5u+/hKetF0kggNDi2k4Ez/mpGD+xHNfyrqIuJw95By/A9w+pGBVhS6gZ4rb+7GNxFquzUYd4ynr88Ba5ZiwWtnXRFXExYViXl40yjzPA3AWQ52TQKqYaRa7xWBhI5e3x0AjEEFuz5Z7TsfZ/p+Cb36/EK+8kY9sf4uzUm9yeNzvRZv3TH3+He04fxYmsbKRvpz2grUewYed6pBj9+/2oozV4+6daBb76eDcwcyPu77a3RqvrqeQy+/vb5DJ7BZH1e3Sustcn9O5p7FF/xzA8/el+LKGFda9S6Wa88HwaXBevQ9pvkyHnjPeRZUh+vlfSbulCFofUPmlxUw0a68gApEToDQwn9Eot1ObTcm09Gss7LUpzRQPaXN3gzGcVY1BUEuMH53Ia/CtoP6bWEyOiOl8bR383iFW1qLVnYOsBAFGAP0ZOp1Nuz6cgwE+F2nP8Zz0Sb1q1XKtBs8l+lPIyt7pxxzCzAwI9VN95WaWgxYCic/ZkswD/DKGRYQAdYjjBwzWme+2NGwcmVYTGjIGYZHz2QxXGz3gYE51P4MtD51EfGYcozsDJ/WlDuwDFJn4adT7NLhEAf1srJbOmiMfMQAq5217+yyw0frwSG7NNN/z4t9tiTm/SR6RA0QXjBjAtci4UoNzSnoyGDmOUl6G6216URcndLwrJFXgnrWieeQWbtr+CSXVHkX7WLBtNCUUg12330javyINo1XIpFz+b9GvhRW51Ewa52aRDXad/vuxGkm+//vwJtp4Iw28fTbY8IXCfgfsSGshldgTpBzKBiamYaMd4oAOjrYyer84WVBfTwQ0XchNyLm5vWjW7lOHEaR6DAjcNtzThzc9GnngKfvuIwcBQtrJiWtHY7InbL0P/GRkJGQqpCk15NXp3Dw2Ml2gTm1ttdE2tqN6dhapSJZoLaKD5rgaSxGC42phtd5Eh88cIrxpUH6hAU2BA54kvLlPQaMgjVaj48HuU5dVDVV2PetofKfyA6jTdDDFXy/RvdTkufZaLKs7t16BCc04h6qrplJp/57Fpa8W5e6K4cLijAsWflaBeoYQyOwuFmSpIk4PBX4q+lurdy/GrGb3f+Lemq3wm+cixG2te3Kw7hVRWnIsTezbh1TVpXRcg9ML6uytw4rsMVKvIvWTar5GxiKrajZ0X43FntBzj72zBV//JJd+4fh8IIbPwmxgFdv59LQ6Rq6Hs/B6seYs+qpz4AO7ppYvIZcoKrExVY/vKtTjRV2+6eDJ+M1OGE++9hp3nyYAUHMS/ttKgZykVb8OzM6dhwUbjXoKlTD1co1Nf694n91CxAtXVNPjt/ga5gjCEBJvllwdA1korncNlUKtpAO32LvUgny67TKGBGqT/2j3II2NYxLl6/qNA5KwZ3fZ+0ldNw69mLsdXdT3Ls3iHV7824NCHaWiY+gTmBFiUQhfpiPSMJNQfXIt/HQGmzzA3RrTpTs9l3s/nUd1EODTSft/PuSgq75wMcCfPDr6zQf98cafqPsyCbOYD+hNr4mQsXBiFvLeXYfWebCpHeGQfxPb1y/BuRled5PSZBPKO4mBxA2FO94yYy8ltqqLTsT/p61QXp2HdNvO+56NnTxjcOtf7z13m5Itg6sj8Tw4h44iQ9rHd4DElAu5FZrvtAhl849Qo3bAHyusiSBOSED1Lpnd3kXvt7LJM1HS8TKdw/OlThL4Ufs/PBudS1ifaI6Hzspe+VUA6O8nsYzfKuygF2EnHdT/Yh0KayTl6uMF1zGj48F2BC2hlVFeKkrfPQd1E88jhnnCfNgERScYVkxKX1u5CicnM/Pxz23SqSWelIuE+N3pvghH5bDPyd5zGT6+SEmSE3adMQvjddG8wJffpWEVHhN9bvwmv/L+1dNrLFfKgeIz/zbPooikdWV64bC7y/klHlrfQ22c4wsydMIN7PGJC1MgelaR7qcV0AMTtrTLEkhtNn+SY9/eNqH5jA96Yt1l3hDly6lK8vTLVjuO05qDRwLRsNX7z4CK8+vdJSHt9CsroC/u5Wzpnq8ceNhy3tniM2Fwe97cY45e/heWv0grpkWlY45VMR5hnIbSAjuLxnZ5xX+BPWYZjHZNq43FYkyPVw8VozNiEpVtX6lZCXnSc9v6/re9+RDqcjsg+ko01f7kXCdwmgMkRZi6agNW2eqXi9X9X4Y01/x8dQac9JY8wjH94I1bRkWzeiTtSbhqxIOdeRP+TStM+xKZMOsEn5NGvpWn46LAr5nw03ewYd1ctXKbMwPhVy3Bo+FwsTzZ7UTVZePdJ+qL/qqHM+VWYe4h+T16NI+/P1T9DjnGYM6MBHz15L8400TH9X9EK0cSVGvrY+9gsXouNm57CXMOx8bD4KXi086CbTrjXzKVYkrES6x4Yh1cJ8o4jzHfQUfdlpXjlj9OQTKtQmR89Gwum44TpViYfPXmDP3QzOtiiX+5X0jLddzI1kK9JgZ8dpxOHLtxM8yGPQPYqTFlUheePvYX77HXhDPnG32gD6Ej46/diacWz2EPfCvVy0XqjSrDyA4wA3/nYAKvFqmMIDBIEig9i56FclNHHr+rqbHy0+QC59WZgEjMwveggBdTyB/DyslnMwPQCvaFapP/cZUMVEaY3Q8AUgeZSfPsWfRlOX3U3kms3cip9pEpuPbs+2WCIGhCQY9JjixkatxkCN9dddpuBzZrLEGAIMARuNwSYu+x263HWXoYAQ4AhMIAIMCMzgGCzqhgCDAGGwO2GQL8amdajh5D+QiaPOGTcEeDtOL2X/8eNPXYURTO++MJ25KT35pO1HqWyGwwBhgBDgCHQCwT61cjw10cEl8gQjJAPfIAL3jo25lKwx4WYNYXYGBPG4VcPPYeNR3h8MWxWwQ2RIPFWlmVkCDAEGAKDA4FBcrqMYoPNSoLn4MCkuxbEe/HR4kewsXEylr/+OcaPVEORl4F9PxdAPaWH8O3dpbArDAGGAEPgtkNgQI1Ma3YmzmxVwP2xFIyO4T40UKHszZ0oNAQB6Pg63tgNvIi8VKjZnYnCo5Vo0UjgOiWkk9TMrDsbq+mcvqMrvNz5fuqvF9C4bxPezSVOkV3rMc8QCiM0PA7jTeRXp9PX6xzpFIVJqW4VIzR+Fn0RvwJzDBGEbZMgcXDQamndWmw9kIUilRhykrFkJYW5DyE++xcn4A3xRhz5a7JZq9Q49KcJWOf7Pr7+c5iOiKlHIiUylhvnPIRj9+3qQjZV/R8iinpLhn/sI7ZD+6C57V4Y1mCGAEPAPgQGzF3W3cBwikogf56Ivt6djeAeY41bJ/JqzcxEHhF/uc2fQWRiSRhRUYDqWgtBnYhD4l8PTcCUJzfbyZ9BXymnZ6KReFVSeoy1RDx51WqE/c8KbPi//Tiy62M8HZKFNb9bhROGcCK2SZAoltfzT2FjcRx+T0RLX5OMJYFZeOP3G3BGLUYs8bA0UmTjbtwfZDjOEHfLHdFcyHQbRErCKNx3XxiK9lL8qg6IFPhmXwZkdz/ADIx97w7LzRBgCPBAYECMjOpMJnK6rGB4aGaSpWciLxWqfyAGtF/EIjzBk8jEfCF/MBJu9gTXtKmKAoorDRD7UHBCXV6ifH1qLKKjRyM6YRF2GoIxhv56BZY8MAWxRMLlFUCD+aKHEVtHYXOKbVagz8BFps0Ix9N/W4oUjiCLk7F8MSZV78beHIqhRBwj/pcpKCBX39WDWPfiJhzjfq89j7xqIl3SMRXKYItIKZQLElh+AHt/NujF/Z4lx33/E8dTUZaNIcAQYAjwR6Df3WXahmIUbNFA6+iLkX69icVhhchLo0TTNaJ4jvTojFdIwS+dhwvJEWeWKIDjS99egJ6p2/ymPX8T495fdyE24x94/G+dJ9jUxXuw8e+b8dUZ4qzviAJMocW7KWK5rsa8XJSrM7D67tFY3SWLGCm0SkJMLCKFxFdOS5lJF7+gUCfnobj7CaJAzkOhZzyW+OoL2SRS8p+BmePW4v3/ZmP5mDiUHaRVTUgqVvWWV8Nyc9hVhgBDgCGgQ6D/VzLEfOn7zAyMCq5B8Ue5aLbgybLZF1ZXJkIIu9y3mtlmVd0zEIvkSFeoFaW0htEnF6JrjeR4aoyZyWX1HpFmHXJ5GBt2ndXzr2dw+xsdoXe7i7V0xd2Ev93AKX7u3FlsmEk1iccgNlKBvPOFxINRhekLklB0kvZuzp+HekwUGSASaCBSav3VaqR9b+CBJ/KxriFQiHkwdTLqv/2COGP0dLORsyiysCV92DWGAEOAIXCDCPS7kRFIaZCOlMFvQTxcK3OQ97WBX+YGFdcVF0oxnHxYqmoTYhiVEqrupDW67I1Xibuk2pRzgo8StB+SHA9x7jGkc9TAllJtFs5UkKtq4VzEGvkDiopQZIncils7WjC0LpFROn6KnIuWKuCuEQ0wcbPk/vgF0ovG4O6Hp8D//DfkSitDWKyBDZInkZLLVNp/0RzBl9u+wN6ieNw3wyy+eU8qsOsMAYYAQ8BOBPrdyHTo4xWO0XN80bI/E8WXLIyydiquzy6BV5IvtNl5qFBwMltRd+ACGq5bEMZt/M8nMqZntnXfPLeQ3fQSxymxKDwL//rTS9iZQeRIBdnYe/h8JwueSxhCicDrzA+FOm540Dc1H71FJF8WmtkjCdIdD2BhsgIfvfAStp8sJObLQpxJT8PGF4nYy0AeFRoTD6Rvw1H/yYjzSsJE193Y/iNxZYw1GAleREqknyQZv7mbTqy9tRnl4+/HPT42AGC3GQIMAYZALxHo9z0ZU70kdyUh9Kd9KPgwByNWxsP95+9xfFMJOib8RXtwlKi/IQ7AmPWT4cXDBIqSJmDMteO4+PedKBaKMDzaH+6u9Xo2zl6C0q2YOApPv/sxXDdswNbnH8KrHLHUKCIpen0F7tf5opLx+789ixWvP4Ipn4jh5h6AiQsWYFJWWjdRPZIgESHxnDc/Bv5Bdfx5NlbXUh1+UYgltsgUw1aWOJoYJ7W7iQQsjlxgMmKcDIP6R4oMfIehGj5ESrqsRMZFLjLZF2m4Y8YMFna9Wy+xCwwBhkBfIcCiMPcVkkNMTuPBZZi+Cnh9/3qksLj1Q6z3mLoMgaGDwICuZIYOLLewpuoGVFdl4aP3DsJtxnuYyAzMLdzZrGkMgZuPADMyN78PBlSDoi2PYNbbhZDf+QReW5LceUJuQLVglTEEGAK3CwLMXXa79DRrJ0OAIcAQuAkI8NhavwlasSoZAgwBhgBD4JZA4LY0Mjqem5dOod7CEeNboldZIxgCDAGGwCBBYEgYGe3po0hf+j2qb7JRqPt0J9I3FnQeuR4kncjUYAgwBBgCgxWBIWFkBit4TC+GAEOAIcAQsI5A/23852Ui48N6SL2VqCsXwWtmMLTHzqFG5YmA36V0hPbXKkpQ+NlZVOXXo00ggTQuGuHzI+BG4bq0mYeRvsVCLJeAsUh8OQbOXNuo/MW0XNQW1lM4GcBRJoP3/YkIS3TrCMympfD/Bf+Xg6uXWuEoD4DfqCZcPuOJX6xK1EdstiGjZssOnM3sTucsmpyC5Pn6yJStOTm4+HUxGspVaNUKIQkNhHxuIvwCzGKpadRopNA2amcZvNjxYetPJ7vLEGAIDHkEeBkZreoaquqaoWnvbK/QyQ1eMtceCcLAGZmNCnj/YRLcyFicPyVB8PNJEB04hCKnJCQ/5g+BshR5b2SgOToeYSm+EF+vRcWnGagakYzEJwM6ZHPusuP/J0Tk+l/Cyzz+ZVEuLp4TYUS0DBJXYlQ5fwYX0how4vlUhAWRvhoFClcdQJVXPCLnBsKxPA/5W/OhdIlArNHI2JJhaDbnLjt7LQbJS8K7tbv5hyxcuU6GY5QHRE4qNH6TifyfZBjzGjF+mhKBFWzC3Dkb0PjQ5/h6JQuvP+TfINYAhgBDwCoCvL6TEaAeZT//jDqTPZHhQb+Er55gpecKKHqlR7gb3GtpVVHkhhFyNwhDpdD+pNTta2gyKSy+JAJx88Ih1RkPKcJmV6Lq3wWoUQfAmw9LY2gURoV2qiCZHAvv9H2ou0hBM4OkQEEJqhSe8HsuCu6cvr7xCDl3GWcvmKhtS0bPLey443wXGcqOv6SQ3D8aV364gFqiu/HkjB1LDAGGAEPgNkSAl5GBJBhhvsU4XW4IXe/ojZAgWjbYSiKh3mUlpK0fJ/qdDImQfuK6RheIuKmUYoxVKHB68dmukoQytHKcLHyMjEqBih1ZKPupBiplpxV0jtP/3lZVj1aRK4Z7GqsgV5a/FAJTI2NDhq1mcve1FeT223EW1UVUX0eEfwmczYN1hi9GWs5iPiJZHoYAQ4AhMOQR4GdkyFR4BIfAvVK/mhnuPxq+IjvabuV4gSCaXGcW3E/8pGtQs+MYCkv8EbF0EjFSSkjTelxasw9VJqsuzriZqtCVf4afDKv6kEuueFMGagPjEfVaONw8qEJVAXKez0H7TT4RZ1VvdpMhwBBgCPQzAlaGf7OadasZCgfMdxXDQ/HhAW7A5Wo02OL24rTU0mitNReqRENJK5yTo+GtMzCUKDZXM7FlGpPjSDc4qlvQ0tRZVnVVZSLKtoyOkpy10liwGk01aKyTwCOFDixwBoZLV2qh7qYvXddQ7LDyMhP2zE692G8MAYYAQ+BWQ4C/kdGtZkIhD7RzFWMFMUlSFG3kFyPa+CiWAAAgAElEQVR/M7mZSolsrLIGNZlnkfdpAZpNygm83DGsrRaKc7SXQ642zt7oE7mjfIRoyS+HinNLaVSo2U2yTCmPQ8LgPUKB8gOVun0graIAl0+bkJyBhwxDbWIfMrKlFaiqbIWW9OggH5MQ5bNUhaY8AyEbud8u7SqGRe604m14duY0LNiYbQUZdoshwBBgCNwaCPB0lxkaKwnCHSab7DcMgTQAEcuSUZx2FhffzKGjvyKIfD3hnhSDLt64gNEIu1uBgq27cJwzIB1HmEXwfiAZ9R+fRtbz5yCQiugINBlBeT0MPF+0CeSJkGcTodl6HCeW0daQhyedRPNEXceeDA8ZxuYnxSOQTs0Vv7EDF8modRxhdvJF8MIo5H9yCBlHhHCSusFjSgTciwpuGCImgCHAEGAIDGUEeB1hHsoNZLozBBgCDAGGwM1DwA532c1TktXMEGAIMAQYAkMTAWZkhma/Ma0ZAgwBhsCQQIAZmSHRTUxJhgBDgCEwNBFgRmZo9hvTmiHAEGAIDAkEmJEZhN1Un7YL6RvyGaXAIOwbphJDgCFgHwLMyNiBV1/wyfCRIQoOhFdUZxRpO1RkWRkCDAGGwKBCwL7vZAaV6reuMpJEihh96zaPtYwhwBC4jRAY5N/JtKLu4EmUHL+KpmsUCsZRCudo+jDztxRRmQIsc0l16AB+POKGwHEqVB2vRItaBJdpSYie7a8Px6+pxIUXDkM1IR6i/DzUEN8LRgQg5Klk+PkZQsDQp/vKH06hYO9lNNZqIPAkTppfJ2FUgr6SvuCT4SNDuWsPTu+v1zcsMhETlkaYUQpY1xN825pObf1a31YMl8AlOhqjF4br+XmMDz/jvbmNhgHWVIZA/yHAayXTKz6ZPtFZg9YWMbxmTUB4oBTCFuKb+SwD57c5I/GZ4I6oANqay6gTpyDuzalA/ilkbzyFS3H+ej4ZnR4a1P1YizFLUxHppkLFO/tQSGFfvBfreWG0eadwdlslXOdOQsJYCVpOnELelsMQeOk5aTwfexCTHwOs8cm0NWkwLCkBclM+mX+fwjADnwwfGdLZqZg8G+D2ZH6ywNVmS0895NbbCkUu8j8vx7C5UzHuF1K0N9SgLt88VDRJKt6MxxnvTZ88xUwIQ+B2RoDXnoyeT4ZiiuV2/iumuC28LNQNoSuB96xEyBN8IZURR0sArUCm+UB7sRImUf0BiR/8Uzx1+jiGB8PdXQVliWkAM2KqmRANL47xzEkK7wQilrlca5BBUZiPX0bb6EiMmuoLZy83eN5HdfrW61ZGfJOOT2ZyANz8SE8dO+douCoVOj6Zvkn89ey5raRJTQuF75HCbQyRvHlQ3LYgf/hND+66iukbhZkUhgBDgCHA0070lk+mDwBWZeeQG6sADZUqCo5pECgOgJaLcGzwdgmkzhhmNJcUx9/JCWhXm0ZLFkJEA6oxCcSU+braEImZAlsSL4B4lKdJvDQ3DCcug1biommDLy+QePPJ9BoTvnpaaytVHhqMkfICFP5tD65FyCAN9oVXUjDczOmBGO9Nr3uKFWQIMAQ6EeC5GLlBPpneIs65djbnw+G+SYif5gsJkZhps7/H8S0UidlemcbtF3vL8ck/2PhkrLXVSYbgFXPgfaECNbQivHYsA2XflWHMy0Rtbdjn4tNklochwBBgCPBBgJe7TCeoH/hkbCmovaxAoyPnCtMbGC5/S2WDfhVjqzDv+xIM9xZCXV6D1o4y9WiicP4ib+KiMZXTF3wyPcmwqa8detqSJRTBOTIY8llJiHkhHu7KCihKzAox3htbKLL7DAGGAA8E+BuZfuCTsaWfwFvPI1N7ST/8ayvyUXi0xlYxO+8L4ZkUCMcLebh4uBLN1fWo2X8KZRVu8E6ivRuT1Bd8Mj3KsKk1fz2tiirKxcW9JairUKK1gSgRfqiAEm5w8TErxXhvrMLIbjIEGAL8EODpLjMI62s+GVs6BtDR2tl1uPAu8cjQ7NvJwwt+tLnesN9WQfvuC6ITMXYed6z3GE6laeDIHWF+bBJCQrv6nSR9wCfTowyiaz67LBM1HVtJp3D86VPUECn8np+NUeFEIc1TT6utHyZEG3eA4xsyMmS7HblDCo9NgLyrPbUqgt1kCDAEGAJ8ERjk38nwbQbLxxBgCDAEGAKDEQE73GWDUX2mE0OAIcAQYAgMZgSYkRnMvcN0YwgwBBgCQxwBZmSGeAcy9RkCDAGGwGBGgBmZwdw7TDeGAEOAITDEEWBGZrB0IBfc8vntOHvKNFKBncpV5ODU4m04+jT9W7wPlxR2lu+r7KWkx3MHUFbbVwJ7I0eDqve267EgPI5/UGr/B7y9qZaVucUQKMNHD4/F3PcLb7F2DVxzmJGxA2s+XDB2iOv7rH4xSNy0AJNfi4F0iPWs6vAhpL90CnUWYnX2DighvBfNw+R352FMorUQCL2TzkrdLgi4InTiLKSMMo+7dLu0/8bbad93MjdeH5PAEOiOwHUFyr5VwGVqEtwp7hxLDIHBg4ArJj2zGpMGj0JDTpNb3shwHC3Z56Rwb1Ggrl2GwKkSVH1VjFaPcET+ORGehriZredycHFXAWoqKHrzcE94TovHqHt9dUEzu3LBZNJHkpm6jhZNTkHyfF/d7605VP7rYjQQX02rVghJaCDkcxPhF2DnLLq6FIX/ewYVRSoIZOa8N1SPFT1tPn3XS3D2j2egiRJB9bMSoonRGFGZh9J8wHVOCmKmutkUocugUaLqy0yUZCqgIrgcPdzgnpKEMVM9u5RX5+fg7P581JHbTkycNRFPRMGN4s+Zp7Yz51ClDkDERLPgaTkUp26zBiGLPHFt5wXUXW2FwMMPocsnY6QHSVHXoCKNojNk10Cl5jAPQcD8eIz05Y+5luLpFH52FlX5FAxVIIE0Lhrh8yM69OTTr20URSH/M+IqKiMwRBIMCwxByJPx8DJOfm9UTz48QdSOi2m5qC2s1/eJLhJ4IsISOYZVFcre3IUrTvSsllaizT8KAUGVuHS4Bk6xyRj7ZDD0r4Gev6nwaAWaOV4lmS98Z5OMOLN+uQGuobItD+F//ivHvLFlOJReiHqhHJOeWINV86PAPRpFb92LuekBGN+chey2JDz9/7yxd1MaynwXYO2WFZjkAtiSYf58df9bjb1/Goc3Xd/Dkb8m629Xb8MTMz5B7Mf7sWQMd0mB7Y9PwOqT+tuRf9iPtKfCuotiV2wiMMScKjbbYzGDViXByMWT4CcqJwI0EUa9MAmy6wUozzGEqynIQs4Hl4EJSYhbNRtxCwPQ9t0x5B1V6uTpuGDeXYCYyRL66j4JE+h37m+jgeHyGPlkol5IxZ2vTkWwrwKFxCdTo7aoUg8XiQvm+2II7yZemxW/hLeQDA7x3rQZcmtt6NmDULPLNBCGUISDuTK0HD6HxtipiJvtBuW39MLz3A5qJb6dfLKzPotmInl1KmIWjIbU3Hhoa1CZ3gqfhTMQtzgCogs5KDbg2VWhepQdqCSDFwUvcxk6YK/i0t4meD2eign/nIO4eaFw1tkQJSreO4TiKxTw83czdZgHeFei4K0s/i43ZSny159Eg0ckBQidjTufvxPuVTnI/b/SDsxt9isXHPXDHDQHJtCzMwfj6NkKiRvGURgZUh/oqZOk5wmSPUE4rE9FiGdFl2cDjc2AfDTCOSxWzcSYaU6o3XoMxZeMehA307AARP4uGpKis6hQRiFuaRSEZ3JRVa3Po9x/COe/uw6vB1IwTidDgGtbjqGkwijD8JPjGpo+AQs2Zpvd4PenuuAg8gJfxX+P/Igj/5qO8o1PYU26yYvSIMNv/rURc4YfxLovXfHS/23E/ept+PJIQ0cFNmXwU8VKLhnmfXgB5859h+Uxlh5MK0XZrS4I3BZGRuDvC08/X3gEiuAY7AN3X1+4yynYJrFt0toAVw/mo21cIiKn+kNKoYil0WMRNlGChpOXaQ7IL/UVn8yw8TEIjvGEM8edM9GU96Zv9OTC1LhEU4j/SB+iR3CDR6QnpBTyX6RsxHWeoa3bqsn4Sj0xItyNKBQIr8hwBN3VdRVDU3rI7o+Hd6gb4RkNeTTQWFLbbfNdm3MWV6p9IZ9iXt6IuxAjaDY9MkAEgRMF9owmzh5uhXDpAsrz3RBEKwauDo7DZ+TcsfBUXkZVAb8+U2XmoloSgYh54fRM6PmKwmaHAD/RitYw5tnsVy3x89DYNyzcj54dCSS+MnhNJYPJrbS41Ad6GltjlScoNAqjZoXDk8OCOJHcJ8fC21eJxov6iRLHizE8nHiZgnzh4k6rvgg/OIf4wEVCK2/ihsL1clR8p6QV7QQExXkaZNwJeXA9FCf7OF6gy3TMe0S/chGPeQKPJqtxcM9RdJiZiCRMDEnGnZGu8Ioej1j6PXYUUF5pcpLFlgx+jwDLNQAI3PLuMg5DgaPBfeIkhICLgsxd435ep+mmph7KCprl5dDGc7oZ4jIaQCiLhIf3pW/4ZIQYRpGfjUkgpQ0KI+9NH+kJareQ2/cg3h0h/S7g/IFtNNcggh6eNgbO48LgepTcGa8q4D5KBtdRfvBOpEjZpvspAqLKlhmBE8JxGFXUYL5Uoln+t6UQJk2FT0/7qgJPuAR374C28no0015O4QvbYH7ux1O3JOtexqx30VRaD22FAqcXn+16SyhDayNd4qglKsidtuMsqovq0doxChLZm/GAgpMPRiZJia11D05l0gQm2BMeCeHwIqPIJb56arOP4vj7dAJOpzqtvJfMAfHomSQbPEEqBSp2ZKHsJ3IdmjD6Ocd1YuFARhrCVl3/Cwx95UCX2lqomroaNDa1QvnBDhz9wLRecoeOMJtq3SDXkNgnAKEdiwMx/IMI7x9KyUGlTyKRWOc6E9PPYUJaFdJfYkcx1OrO1Y41GTR/pPakYfHdL+GYoUjkc+Tueiasa8PYXwOCwG1hZMgprUtdlm3cHx1jnhDSOalImN5LQpW+5JOxOjbeoJ5WHikdHHytjF8UYtYEou5cOVE3V6BqRy7KTicifkmEwbdvqKhbW4yOP/19bVEeKko84feIb9e+MdVTICBjaFlxgTQYY/7+S3h2q8dyfktXOfdn8hI9DXe3+7z6VQTP+akYP7Ec1/Kuoi4nD3kHL8D3D6kYFaFXjI+egqg7kfBKbAdwjiO6aWPFbhJr6o5jKCzxR8TSSWTgyK2Lelxasw/Ex8c/0cRAvmK2CW05/6L25tRxChr7rY2nT9msLVZluM/Aql3xaDA8ciKPrgammwPMHpzsbextnr+H1/c2QkVI7hw/cp0VVJrwyfTQ/p64YJpoFlgngUcKbRh7GN6cK7VQWxq0Na1oJXdTq8rOp9oePXUqaNB+I8eBbekppsMUCREInj8VCbSHBTI2dTzHCj26nPuvGBraaPf16gFvK5cd/d0gVtWitsxKJt0tAoNWbdq27ngPD6BV4+VqNPSktx39Kgrwx8jp8Yh8PgUBfirUnqvX1c5bTzGtjnzdDP+kENl1yk6JhpJWOCdHw1tnYCipG9B8rXubdUpZSu7koiXXWWO+0b1mKZPh2g1yDanLC1DErRR1qQG5xQqIggJgTyBw2zLI1RYQhtAQ/T+5u2l7xBCJu66MUFvdsZIyzcl+v3EEmJGhvQOfu8PhlJuF3F0lqFco0UwncKoOnqIZadevGXvkgpHQ4CAleuS8Gr3LiVwXl2jD3qIduZqHnFd24fR/7P1Skr+ecJfBRaqE4lg5nRIin7uJ+4T3I2NFz+YfslCSXg5lNcmuVqDydC3a3AkDe9bFxA1UcY7cQjP8edFbd9M7aDTkkSpUfPg9yvLoRBXxANXnEK30B1moMhsnhweTMblYTCf2OA6dThpvSRLtnQiLiX2V3GGlSqgqa1CTSTQInxaAttHJT8qjX9XluPQZbZ5z7jSS3ZxTiLpq2vPwN6yK7dCzWxt5XyAD5SNES345VNzEQqNCzW5qE98NRa4eJ38ETHND475juPiDgniVlFAWlKIs7ShK8swUuVGuodajeHf9HuSVlyHvP2uxNcMV01OTdC4y3ukGZYSODUNr1h4c4g49aMqwd+tuFHVdaPNWhWW0joA9w4J1SUP4riCCTls9I0LR7tM4d0gFrSN3DNUHMjP3WY9cMHQ0NHhhFPI/OYSMI0I4SWlDfUoE3It47kDzxI6vnuD0mReB3O3Ej3OYZrMBY5H4cgycedZjK5uDkwb1351CeZoSbVoRJEGBGL04Bm683Vbk3jlwAS1RMfCjVWTvEvHsLEoBdmah/IN9KKQBlTtK7TpmNHzMRivJL+kY7sXjKF63C4UaIbwWPYgxCaSslI5NL0tGcdpZXHwzh46eiyDy9YR7Uozu6LoOR1v9ym1q1ZWi5O1zUNOeBnf83X3aBEQk6fdkdHxAPPXsHQ5cKRG8H0hG/cenkfX8OQikIjqKPRq+ciKls0Oo9N4UjHU6iZJ9h3F6G9cWOiQyKhB+vVhpWqtWPGou7pNsw7Ozl6FxeBRSlr2P5RN72pSzLOlGZch//SqWnFyGv9w7Duv8x2DigzMQe/BIZ2XpLyH52TR0LLhy7kX0P+m2JBWbMtdjEu9n3bL+t9NVxidzO/X2YGlrdT7OrMrD8N/TvkU4e1sHS7cMhB66b1z2TkbaF4sR2ssK+0JGL6tmxXqBAFvJ9AI0VuTGEGhrEMJ9Fn2oygzMjQHJSjMEhgACzMgMgU661VR0DA1HcG+nsbcaGKw9DIFbHAHmLrvFO5g1jyHAEGAI3EwE2Omym4k+q5shwBBgCNziCDB32WDpYEMQRPWDD2Jsb0PTc3wyb5xFs+5DN08EvzYT9DH1wCeOT2ZtJUa+PgNyY3iVAdeC45PZgbzT+m9FHBMnI/nJgJ4/+hxw/ViFDIHbAwG2krGjnxmfjB1g2ZmV8cnYCRjLzhAYIggwIzNEOuqWVrODTyaS8cnc0h3NGnc7InDLu8sYn4zJY32d8cmYv+SMT8Y+Phmr3DmacuQtOwb1nREQ5hO3EgUqdSJundBHEuFl/KDTKu9NZ++oiDepaHcB6ojfSUshjFx+EY3RC8M7Pijmxat0A7w3OL8Wv3okC+MfkSF3XzbKmsQIS/kjVr2Yqg/ueXIVpvz5PKJCFcjOE2P6sw+gJe1tHGoMw6J/foyndfQAahT9ZxVWv3cAZyrUFLFcjqgpi/HaX1OhC+J5m6Rb3shw/ajjk/ndJDi/f4j4ZCi4I3F+VL11jPhkYuBJX2breVrK4fw/xCczlkKQVBajkLg48pxnEoeMVM8n8xh92P3pTpy9FmMxoKKRd0Q+yoPiTlEMqG8ykU98MsNeS4In73gZej4ZlweJT2ZuE8q3fk+cIb7wXqwP4GhLT37PLMcnMwFjx55Dznbik5mXgrhI4tPh+GQmxfP6at/IJxNIfDIjvYVorazEtVqz2nV8Mp4YRXwyIc0lKPiA45MJRGy3IKRGPpkZVvhkxAgmPpkxxLnVkn8V13Xfbxp4WlrCMep3SXBxIcKtA5k6PhnJq4n8VkQGPpnm6Hjik/GF+HotKj7NID4ZZyTS/g33ctjsVyOfzB3JiFvkA2GbksILUcigjrBhfaCnDlo9n8yYpamIdKNwOu9QlAMKXWR8Njr4ZH4lg4Q+nlefP4MLHJ+Md6oh4KWeTybmd14o+N8cVIyYTHwyNcjbwPHJBCOIjICOT+aoBPKHUigGmlAvg/hkhD4zEcxFZrDZVr2e9eebMWb5HIx1VaFqyz7kbR5O/EhRegNh5L3pUU96X/NP4ew7xRCl3Inop7wgaqnHtaM1aCFMOS4h3u8Bx3szZwMaH/ocX6+M06FoV2rLxtHi1di2+y3IVRlY9+giLH0nDLv/EKUX06hG5DPv4zf7nsLSjcew/KPPMWnrI3jziwwyMlOIIG4bXnkjA/4vvo//TiGzUn0eJ05S7EK7lBj6mW8LdxnjkzF9UBmfjBENxidjJ5+MLe4cA7DSu8bq+XSIssB7ZjiGlRaiqsJw0ybvDRc4tQDqqHhEzQ6Gm4zj+fGHfAFxBekmF33Fq8Rn8Jbj/oVzIecmie7JeHRePMr3fYEzxgmE+xjcmRCGiUTtIPaNw/g7wjA+NhyNxHujC0dTXY4yCvsZOzEOci8Z5HdMwZxHpvc60gEfjQdjnttiJcP4ZEwePcYn0wEG45MB7OKTscGdoweWeG+8TSgzRrhhGK06m67SyOxHVsIq7w1J4HiTKmnFMllPfd5t0LSHV+kGeW/gGAD/gE4NvPzkEFWXoZCip+pIGRxd9bw3YopTR//E1DyOAwctah0Bm0tUKubdsRvr5tyLQ3cR8Vp0HFJm0kq0j2PBdcNokF24LYwM45Ox/dRxS1rGJ2OGE+OTMQPENneOrkCHq5B+11Jo4w7Kiz7ivSH6hhvif7L9OhhyEJubaVuM5SxdsxSCTxyHpz/+DvecPooTWdlI374S7249gg071yOlC/UAb4WGZMbbwl1mtWfs4WlhfDKdUDI+mS6P1e3EJ9NTW/WAaKAi1tKOdKWBKMylGE5UBNw+mk3eG+59pL235p74nex5X2+Q9wZtZfj5QifZUFlBAVqJtz3MxeqI0vWm0BWhd9KK5plXsGn7K5hUdxTpZkSsdkgbklmZkWF8MpYfXMYnw/hkzPlkbHHnGJ4kFcc3RKRtqspylOyk/ZWgYHjrKB348N4Qb1IK7XHk5iBvd6mO30lVUYkrO3NRp1tB2MGrdKO8N0RjdvCdDThUUIay7G1Yty0X/rMeQKylVYultyiHyry/B2eIlK2a3Gwndn+DXEEYQoItZb51r90e7jIb/ceXp4XxyeiBZHwyJjxBtxOfjM22cs+HEJ4TfdCYdgClCg3E4eGIfGys4egxP94bQaSR3+kkfvqaTkNKDEeYDYM73/fVxmtv+7ZjMuakNODdJ+9FXpMrYu97BRueMZwss12a+HjEaMzYhKVbV6KaTgJ4hSTj/r+tx6Mm+zx8xAz1PCxA5lDvwaGoP+OTGYq9Zltnw3cy2v9nIIWzXWLw5tB9J5OLp77dijm30f5Jf3QIW8n0B6pMplUEGJ+MVXjYTYbALYUAMzK3VHcOjcYwPpmh0U9MS4ZAXyDA3GV9gSKTwRBgCDAEGAIWEWCnyyzCwi4yBBgCDAGGQF8gwIxMX6BoKiPnexxfehTV1/tasH3y6tN2IX1DPuhTOJYYAgwBhsBNQ4DtydgBvbUAmR1iPGWQjQOG9bH5Vh06gJNpFHixh+T52DyMTeo8wC8KDoSXm9tNJenihVcP7Rk8l9sgKF5Fx2ifgXbEZYou/CPaRz1HkYENGqrPw6EyHYImLijmdbQ7BQHe90LrqfswRJ80FXAo/xKChiqK40Jf8rlPh2ZkDIyd49BwGA7VZ+Cgoiij7U5U12i0+8yCVirRl2+n8pd3G+qgI70CYqJzn0gy6EGz5zlryYGg7CCFPamFg9AP7bLfQOtloqfqRwiu/giHZgo01taGdvkqaocdQ4S2AoIr1JbGy8B1OrMrlKHdbRq0Jm0FRfVyuLobDtfy4aChKZAj6eFJePmEUdsLIcjdTNd76H3RRGgj7kW7A8FYvx8OV0jX64S5OIJC1lBbjHhRcYc6us+1pZXDi5jzXKmsXxLa+X7jcj0Twp93k04mujgEQnvHM7ou0qUbxctmvyoguPgPei6649Hu+QS0csKs4XMISnJAkHRL7QHUfx66MK/Wn+FuJfv2gh1PUN9WfMtKC4jA6AV93zpJ0gQkROjjt2pKziJ3ey3cH5uEAPo6mktCr65vjyQxHpF9rwaTaI5AUz6N82E0kE6lwFWONPgdAco3Q+CwlF5w7tNwFRwqtkLQTANU8EM0Zv0MweXP6WsSD2j8A/XSGvKp7Di0j6ABV9gCB8U+OJRshcNoGtAoLJYuOUWg3X8qDXBkeNRU55UvIdS6QEPPG6+kvUwyP6dvGe9Be1g02lXfQVBOejmRnm5GY0aDPtWj9Q2ie+m8xHbJ1EbGRS1Bu/cs0pva3noGggpqa7sUGm5A5FLNDggUDdQWMtqcUWg4SHk+hUC0nPAKIt3IgOvC0KjoOhkc3EPGgdrOXRKQTG40bTkMQemPgOdvoBnhQQaaBtpLJHf0Qmg5A0D3HcrIwIx4kO6TEeX04Iz0FVmnHpw8W8nBgwztw50TCgfS13TEbL9BvLj6rfarDNrA57qEtnFoo4nC5TNkNGkywyXpTGjDJ5q0hAzKtc/h0OCJ9uGDY3gfHFrY6Gxb3BLgXFSbNQhZ5IlrOy+g7morTV78ELp8MkZy9L/qGlSknaKvdmugUgshCQ1BwPx4jPQ1DMw2OC5qtuzA2UxjgO5MHH86U6exaHIKkucbRvm8TGRsoLAT3A1xAMasnwwv44zH0L4uXBzD3WgyGo+IWf70DTMlA/2yakI8RPl5qCmn6cuIAIQ8lQw/LrCgVMr9p09qZxqkGiDy9YTU7MMujj/n9H5DWA/6qG3C0ojO9+I6Pz4ZWxwr0ChR9WUmSjIVUJGajh7UlpQkjJnqqdPPNl4Ulv/gSaJduIqma8QX4iiFc/RohP02Cu5cG/noyYe7xAAX1A2orlND7C6DC2/aBWNhGz+5gU7fbF3GdmdXCBpp9tlAA67HGOpXWunUq9A+8jdo1820aXbvRdcUGXAYGYh2Wom0y8mYmFTTPqwRwjwaFJUqkk1lHMj4+NE/Yx5nMlgqGjgbiuDQTgOwpWmsudqNVN91GnBDyFBxGEjIENT/DQ415wE3WhFxyTkJWmf6qc1Be7m5AB5/i6h8qGk+Ts/zpCe1tz1MvwJpptWcmPLR+6lLnrTCUNDAya3i6Fr7MOPKijAjbBwENFg6m6y2qIhDDRkYx3Fk2Alfanv7yJloryOjXEsyvOmFV9HKr52w9SYDzL3itAJqdzkCBzVdpwmBKdbQ0IpLS8MgZ7y7JUfCiurmMLGU+OKlpZeEW7UJyUiarjz59CtXv2lS0OrKcQy1xzB0c4bX2STOjYoMbH2L/gPR8M0AACAASURBVHkzTlAs6T6A1wa9kbHFLdGBVdtVXNrbS94RGxwXno89iMk2+GQQmYTkd5OgM3hbLKz3G0qIXyYHzb9IxC+e8oWw7ALyie8j1zkVsSlG62GDM4THgyGdnYrJswFuT+YniwMFPfDW+GRUpchffxLWOFZs8cnYxou4TVrE8Jo1AeGBUgjJfVPxWQbObyMel2eC9UaXZrJW9dRhoYFV7hIDXtW7lmDK61m4b8NZrE3hAaJZlnYnmi0LacZAM1nud6uDeju5b2gm7uBoePF1A543zSo7BzHdoKktpEGPBkhLY5uW29Cjurg6LaUWGrQbG6ksDaR8DAwng9PDkVZcHQOPhAyKN4TXOP1ID75yLOnT4zUaWLkAmSaYtZOBbK+jlVgTGRoOkyZy9bQRpq7ePUrpeoOMQjMZE9O2C0gmZ4upjWSpaNClFaLD9/QSkAuT3Ne4Tq65JsLUw8zAkBvJoexNMoJB0EY+gXbz0bCd3IrFr0NAfQonws6bjJkHybM31X4KYfkltAe9QqtG80pMhNnqV3KvoaYC7e40QbDUX3RfUH6YJjNzyLXLza47k13PsL3ts5HfSottlByQ20ZuiUTEEreE/v2QEreEv4XahRgxOxEjiWyJS87Rhin+pQsoz3dD0OvxukkOlyRzx6JmxWlUFRC5VSRd4DguTGZgksmx8E7fh7qLSiDIJGy5vniv/t+aU4Aa+CHyt+Fw42aSsniE5V9GzvFCKFNiKISgPkknRBOLINcGKbwTZCjcXQsl2Sz3rt6wXulgqAEu0TJIJT60b9QKj0haDalkEH1Vh+s0OBo5VuLmhUOqq1OKsNmVqPo36a8OgDfp3lZNuEj9MSLcDSLKI/KgvHZpRDwjsxJNSkgRMq2ICMMqqa3B0C8MDLw3PehpnBF2cJfQoMxxl1xaw3GXROlJtuzSqafMNJuV/9Ew+yX3RQTtpVhJDjXf0J4CDUgygyusjWMW4QyGAg4F75B7ivZafFxIXg8Rfjn32lVaKQ+jQdi16+vpUE4DopEdzuVecpXRTJ5nctBQfTSTbr9Oq4YC2hORPQMNN3vXkn7c1N7SoMVTdo/ZVLRXVc/hpwuMr0+08mtvI9dW0eu6RQY4l9TIJ8l1xncoInci504TDiNXG7kMSy9BG7KE/qby3D4Ql8S0XxXUAuHlf9DgTn+T9Wgf8RA0PmarAn1uy/+nfS8tuf0wnCYIHDtMDbn1yj6gfiT3oqulmYFlMXyu8u7XpkwIaDXabrrfZ1pB1Ze0B0XuzmDzZ9S+Z5iPzvbk4duz9sjsu7y2uCVMa6JltUtw95G4jSLCNhOHfOEL21Boppkn0cPq1tO2OC76oEWqShqYR4TB2cRdI6VZPH6oQwtNlKS6ZTRxcXh0PsACMV28ru6MlN4HesAGnwwfjhXncWFwPZqF7FcVcB8lg+soP3gn+kLSw8Tbktqq7BwU7C1AQ6UKbcaTeORm1PvjqYQNPfUybXCXGCr2emgrzj1kSYs+vqakzeZKcgdx7i9zV4UD7dfQjB6Ow6yM6TSzvkpuHyUNJGH3dBv4232eJPcZGSFyQTlcPQJhVRA0vgZjxjWlnvY/LucYjAYZlJAXafA2a6OAXnkRDezcz96kNsOGuG7fhKrypj0UXwuD93Vyk136ngZE2idxN3HnNJLbigJ5tfvRxjWtZByUZIiufER7MrRH42Ln4M25ipxoSmJuILm6y8ml5kn7Ke60Qmo9R/tiZJAcaR+si6GhwTdolcVo/hDSqsfHBCAp9UnBm3Rg4QLth5gP4jaAHPEE7Q31nMdmv+qKUr9fI9emMx2SMH+2dLcPQ6ggXAMsrMh6rnpA7vTySRsQ3eyrRCCA0NTfaVJaIA3GmL//0sCsZy62rzguzOX28u/udrKXguwrxkHH8clwPwXR5Ppboqd8tijFjyis1wSi7lw56vIrULUjF2WnExG/JILm7DySIhf5m8mFcd8kxE8j40SGV5utdzMaxq4ehRj17PBtm3omu3CX9Ciif24ov4Hw0jn9rNzNZFDVuc3I7UIuIW3Qc/q6ldR2ovLqetKJ3EoKMjDXnMg40AEBSwMJDZK0AUauIRrwHKpolk4b4DIaxI3PjMtMaEZNM7SPMyadTW3nZv60/+AgnEobxYYV0FVySXIn1cwHaWsIOcZAO4oGYMPGhs5wmqc2cocVfUmsXQ/Spr2JEeROllVl0HUa/GnCxaX2YeT6aaS9IaImhothb8hcXpe/CTd6CHQrM+k90IzmbtIAzO15OBlwrz5ITYol40d7F1zbJFPJ0BDmVem0giNsexgnrFZLbrh2MRnFlhrr2Xpz11a/cjK5FSi36PS3sHrlTvWVHaa9NcLVeIijN3r0U5lewd1PunQXa4tbonuJblcc/d0gpk3F2rJutwwXeHBcGIv2xCfTk2iT6xKOLfBaDZo76SmgvMytbtwxzI4VAI+qbijL8AA34HI1Gkz0tCiQD59MD3hpLxM9LR1d9U/RGxhOfktlQ+cqxmKFli5a4y4xyU8r1bJyqtNWmyxVwedaM2dg6GizL7l9PM0GXYNBQBMN6IakOyIsIEPRsaqlAbL6E1qZUIbghWREeM792mlz3NQqczP7YWQ0dP9ID9O3m9ODTn85dHy/Rae3uE142mi36N/vsd3k+hMb66BDDJybyjRxBqZwBxyG05Fif9p475LIyNDR6K6JjCpnCDgjwStRGyXUNhW1xbiDz52c4+ClNnLJgWiiLSbuNJh5aqMJQKvBzWZ+r8vftA/EHYd2NDnlYTW/yU1ySTq0UnlbMyhjEfN+5a5zhx0EZDS7GRFuckJuMg0ZVTqFNxjT4DYyHHeEVW4JHpAGjYY8UoWKD79HWR5xXFTXo572Rwo/yEIVjfGcv9yZCJVa8suh4l5AjQo1u8+iunNM6KhE7EPz9FKauVe2QnudptAW9vd70kgUFw53VKD4sxIdR4YyOwuFmUTnlBxs535GTzX0zXVJUhS8hMW00iAMSonLo7IGNZlnkfdpAYh1VpeaOb6Q9HIoCaTWagUqT9eizd0NzmbjTU94CbzJsNLLXXupVSdPW5GPwqO9myH2zF1iUJZ+VO9ejl/NmIY30juv9dlvTeSmKE6nl582hSX00HAGhPvHDUhcEtLAQD58BzoV5NBMG9HkHnKovqzjjO+YUdeQgSE3W/tIOq4LGviNMowDspJWLGXc/gYdFmiiAZX2fQSVnOuEZPOdoLhQfU6kF8lxaKH9oRrSR0kGY4TJzJjbn+Hqptk6N+47XDe0pZth6AE9DX3nUvQJDcTc6TEyBMZ2cCfHdIk7AEGHKOpJ/1rCoJX0uMbpQbdc9SubHiR3udw+glY8bfRNTyUd/eZOjF2hfTDQKTuuTkrt0lDae6L7VXSfG9wbqc3XqL7hlKfLiEfuyfJ/QJBPRtHc/hA+um+G6JsfByW5J8s+IaNMq5kRuqWTPvHFq5b2oH6mehrNKuHbr9z3NLXUF650zN18xG6mZ0NRS3qRC4+w6MDc8K1Tp7I37zeeU6abp6AtbgnbmknhtygF2JmF8g/2oZCbjNCRW9cxo+Gjm0ny47jgcvbIJ0OMf5fW7kJJUac255/bpvtDOisVCffR6sA1GJHPNiN/x2n89CopIaFjv1MmIfxuutdXSVWAs8syUdNh/E7RcetTnBbwe342RgXxqIjOREcsS0Zx2llcfDMHreQA5o5KuyfFdHhf+PLJ9IhXQDRGz67DhXd34bhQRIePvOA3OQAN+3no1yWLNe4Se2X1Mn8TDfY0C3eooW8TTO2kdBY0oXTakNv09yeXFvcxZtE/6G8aCD1oE5qOL+sTrSjotBU3y3Uoe0e/GW640+7zRzokQKsGzuXWmkn3aTDlXILcx4W08a/1m8hfae4EFn2n41BOG9gXCWjuY8yRpJfpzFhNG8uFdATWuEK4SvpcpUHbqIet2tQX6MQc6ddOMkhOR6IZuDbqYd0+ULvfo9RUGsArPqDvfCgvp4cXuXlk1E6+aRi5/ALoAMCVHRBSaI12ERmPIFo5GQ2uG7ng/Gh/TEH3q+hdM+Llz8cdp1fCgayOQy3J4MpzHwGI6TBHALXBdNP/RvHi26+N3IY/rRpHmLoeDXo20cSDOyJ9hfumqGvi3W98ce9lPhYgs5fAsWI3GYFbibvkJkPJqmcI9CcC5ouv/qyLyWYIMAQYAgyB2wwBZmRusw5nzWUIMAQYAgOJAHOXDSTarC6GAEOAIXCbIcBWMrdZh7PmMgQYAgyBgUSAGZmBRJtnXYwLhidQLBtDgCEw6BEY9EeYBz2CdirIh2NlMHDB9NysVtQfzsLl45VooA+N2uiIrjQqHCEPxcD8O8SeZbA7DAGGwO2CADMyg7CnBzUXDMWTqz2ngjghGhHBbnCkD+qufJmDs/8CEl6mQJ83KSzOIOxGphJDgCFACAz6jX9tZQEKtubgKn0d7ignHpiIehRneeIXqxLhZhjQWs/l4OIuihJcQR8lDfeE57R4jLrXlx9Pi+ExsCqDy8N96Ph8DsTzEyA8eRaVBfVEZiSFz4KZGB0nQmsO6fB1MRqIB6aVgklJQgMhn5sIP0NU6K4cK53PniknjVUuGF0RDZQ/nKLAkpfRWKuBgMKYe/86CaMSDFEQbXHSdFZLXwf3HceK9vRR4vNpQuArMxFkoNcxrYr9zhBgCNy+CAzulYymBsXvnoLCLRpjXgmB6MoFMjgKit7aGT9IW5CFnA/K4fw/SYgbS1/PVxajkHha8pxnImayMQStdZ4WfjK4h6QVir358H1gEsb/TgptZQUaDNEJ25o0FJ09AfJRHhA5qdD4TSbxx5zCsNeS4EmRBWxzrNB3+Ta4YLR5p3B2WyVc505CwlgJWk6cQt4WCivhlYqwjq/5rbfV+KjfKMeK6SujVdPn6o4SiMwj/t6+7xVrOUOAIWBAYHBv/BcTN8hVN8h/OxaevsQMGReDwHGmcX45vpl8tI1LRORUf0i9KE/0WIRNlKDh5GWO9qojdfC0OOl5WnBZz9PCGQ6+MqDVQDQ+CWFx5CZyojDzAQHwCtIvp5zvIn4YCo3i5ieFhEJkeN8/Gq5KBWor++pZo2jRxy+jbXQkRk31hbOXGzzvS4Tctx5VtD9imnpua1/pYiJHrUDxN5VEdhgJH2Zk+gFgJpIhMLQRGNQrmbYr9WgTuWJ4R1gjIXFlSSHIM4DO8c1UEMtiziGkmwc/lLWglWJ46U2SFZ4WPjKM+wwCEaShlmONaStKULiDgkoW1aO1I9ovBd/siHp7ow+KCk1VGohHeZpEcHfDcF9y1VURTvA10CxbaauJCn3CsULYVWw+hiqXGMTM9e0S9PdGW8vKMwQYArcGAoPayPCDmAzPHApCOb2HabQxWKTVDWkbMjoUEcIiI66GZvObMlAbGI+o14j50oMqoz2cHNrDabcjUjO/9vLIZbWtPMrzyaJRUky+wyhuDMeY30dByjcaMB/ZLA9DgCFwyyAwqN1ljiO500sNaOqIbksb3+XKTloGjm+GKCRaCirJ6dXL1BcySMHGOgk8UiL0BoZT5UotuK2KbqkHjpVu+bpdkBATrBDq8hqTttajiWgHRN6EU7f8Ni7cCMcKGZiqLYdQVB1IBiYG7ryYymzow24zBBgCtyQCg9rIICQM3j7kkvksF3UKFZrpBNflbNOdFuKbuTscTrlZyN2l52lpLiU++oO0IX6QuDt4pT6QQWH7naXkzsqr0RtAGsAv7SqGysIqpieOFduqUlj7pEA4XsjDxcOVaCZenJr9p1BW4QbvJDvCpBsq6j3HigpVHx9Cfr4bgn4dDMfqGihLuX+mbkLbrWE5GAIMgdsDAbsnwAMKi9ATIU8nQkNHmM++SvSjdIQ56C4ZGrM7/UGCiESMfUaEot2nce6QClo65TQs0AeyntxnFhpwwzKcfInQMAr5nxxCxhEhnKRu8JgSAfeigm619cixYosLJpyjRaa2zqMjzF8fw6k0DZH00QGDxyYhJHQg/GOGptCJv2s5tJpUKVG4odykfRKM/NMcjB6c5Hzd+oFdYAgwBAYGgUH/nYw5DMrde5CdF4ZxK6L48cmbC2B/MwQYAgwBhsCAITC43WUEg+pcAarow8dWtQZtpQW4dEIJl4RAZmAG7BFhFTEEGAIMgd4jMLjdZdSu9tpyXNqbhfwG2trnKIsnTkLE1B5OkvUeB1aSIcAQYAgwBPoBgSHnLusHDJhIhgBDgCHAEOgnBAa9u6yf2s3EMgQYAgwBhsAAIDC43WUVOTj1xlk0c0eB6aRZ8GsUgNHe07qacuT9+Rja5j+IsQm9O4XVevgAMj4zHIn2ikCsSXDOAegjVgVDgCHAEBiyCAxuI+MXg8RNMRT08ixOv1F600AWTZ2ByVMpytnRQzhx8KapwSpmCDAEGAJDDgHmLhtyXcYUZggwBBgCQweBwb2S4YOjogQX03JRW1gPFQUDcNRFQE5EWKJbl4CN2tJ8nP/qHGqu0keMIeEIezQR3iauN5t8MrZ04UKtfJmJkkyFXg8POgmXkoQxUztpCXQiNGo0VjdA7SyDl4stoew+Q4AhwBAY2gjwMjJa1TVU1TVD097ZWKGTG7xkrvbHzOprvBqbAflohP9KBokrcXGdP4MLxCdT7G3GsZJeiqDHZiDUS4mrnx1H/rvD4PziWB2TI38+mZ6VbyVul/xMIHDRTIykGGOtlZW4Vmshf/FmPD5nAxof+hxfr4yzkIFdYggwBBgCtw4CvIyMAPUo+/ln1JnE4hoe9Ev42rsJ3x+4hUZhVGinYMnkWHin70PdRSUQ1Pk9jYT4XoKjuTD9bgieEwHF30pwtYyMTJCRT2YqcdIYwtV7cZw0JcjmOGkm84ss0FZN9Un9MSLcDSIyXCKPcLCvefqjw5lMhgBDYCghwMvIQBKMMN9inC43EKU4eiMkiJYNgyFRMMqKHVko+6kGKmWnFXSOM41OSXTI/iZuK183DBMo0Uz8LJDz4KThcSjNeVwYXI9mIftVBdxHyeA6yg/eib6QmIfAD1+MtJzFgwE5pgNDgCHAEOh3BPgZGdrd8AgOgXulfjUz3H80iCtrECRii9xxDIUl/ohYOgleARLStB6X1uwDZz9spo5jD3z5ZKxI9ItCzJpA1J0rR11+Bap25KLsdCLil0SwEDhWYGO3GAIMgVsbAf6ny3SrGSIOuRmrGN1KQoP2biyTSjSUtMI5ORreOgNDSd2A5mvmFkYDFfGwdKTKerRopXCmvRPYwScjIMpljm7TZGuq69MhlsI9IQLB86ciYWEAQMamroMl05BV04Dq8jJUN3Ytyv5iCDAEGAK3IgL8jYxuNRMKeeBNWMW4y+AiVUJxrBzNtSq0drjFiN7YR4iW/HKoOAOkUaFmN1Egm1LOGHpN9UMOSs7RCTTakL/0/7N3JQBVVmn7YZHrRTYREFlkVWMxBCTlN9dIU9Mxl0zHydK0cmzGJmd0tNGydMZJJxsdzcxKh1a0TNNGY8plzC1ZUiGUTbkgCiKbwEWW//nuwr1cLtyLYoKdM2Pc+33nO+c9z/nuec/7nnPeZ2caqrx80YN6gKsnZnPSWHs7o/ONfFw+RddcaSVq9BRIxfcJyD6Si3JWXl1YgPzT11HjRJ4ZQ1sxKxbPjxmBGesT78X3SbRJICAQEAg0QsBwCGwZHrkP7tNbZG85cxvelfhapvVBysfkUfmOVop3X0S9HAZbKgi3ydEo2X4aCX88C0s7G9iFUwlynaW4UfVWDKzpgRs79+MHzRbmPnP68nl1MptPxjsIvcYW4fwn+3CSisxmaAyip7urCrHoVIuSb08hN64cNXU2kPv0RO95YXA0Yz2nDZESRQkEBAICgXaFgAiQ2a66QwgjEBAICATuLQRa4S67txouWiMQEAgIBAQCdx4BoWTuPMaiBoGAQEAg8ItFQCiZX2zXi4YLBAQCAoE7j4BQMnceY1GDQEAgIBD4xSIglMzP1fW1+biw+GMkfWdkf7WZMlQe2I8jryaDAWxEag0Clek4M38XLqS35iGRV0WxMX8fLmqolEwiInE3vfQxzpw2PKdm8sl2l6Hw05kIDe2t/jd6NZI6fpPuGsZCydw16O/9ios/2okj69NRc7ebau2IrlGesJNC191ukoj0OPBm591uQeL5O4VA0qoRCJ28EZl6FZTtmIvQyPmIN1NZuEzdhrNnz+PYK8Mgu1OC/kLKbd05mV8IKKKZ9xgCnVzhNbMtornWonB/OqpDI+HlcY9hJJojELhDCPwClEw1ig+cRPbRK7hxrRJ11gwnQzM44IlgOGnCJFd+vQ8/HO8CD98buJZSjpuMNuY0aiD6xLiqqQwyE3DyH/mwH94F5QlXUH3DCp3DwxA0PRC2hgEwze0oZREu/iseeZah6PvbYNhZ5uP84u+gfJw00VHqE5x1pw/h6EdWCPn7g3DWHuqsq8S1uHikHMmHknQLEmdN0GiNnFLdLDcv7hQUiYxKoGRgUH8/eE+PQA93vVOhyf/D0a218JvrjGs7z6P4SjUsu3rAf+FQ9CjnTH11LpwmuOLGwUsoY+htWXAo+swOhmPDlE6NacahPEZgqIWlqzvcJ5DDJ1wNaNH7n+HM8WoNEsdx9FlyIDDpH141LWctyo+cQvp/KAPrQBc57END0XsmMTcX45vZOPP7/6FINXu1g8cfJ6BXYOOHazJTkPZJKooUdGN2IZ6DI9BnvCeP+RpJhWnE1QpuC7w1FBeVULyxC5d5WBg5+ajxDIa3DyNKfFeETv2i0fcZX75JZrx/8TwkfNARPftX4urRfFQpbWA/YiBCJ3hq6jFdBuMdoXjvUVz4ls/X8v0dEQDr78+ieuwkhA1Wt6aO3EsZn5zB1bQS1FjKeXA5FIHT++j6VVkAxbbjuPhjCersXOE+1BF1RmAwdalZ7qbaImSs2I+iB8YgaqzOrKw+QsbZ3XYIWTUQznq/pzJGzlBaO8DF6U7YEqVI2v4q1nx4CKn5Stj4RWP6gpV4YZiZk5GTKzDsT+cQ7F+AxFQZRj4/GVVxmxBfFoC5b23Hs2F3QmZTyLfP+78Ad1ktqqtkcBk/CGHLJ6D/S5Fwun4W52Kz+bPUpbr8PJS5DUT/Nx7HgPk9cXP3YVw4q2db1xWR8MwdIa88jkGvD4JD9imc222us9qg8w0VTCsUVV1+Fq6U+KLPXybg/imuqNp7GGmntS0pR9478ci67Arf347BA8uHw9stH+kbElBsGPet5gou7r0Bl1njMOitSQif5g/bBkVWhMJ0B/T+yyQMfu0B2F9KRtYh3UpQ+dfxOPftTbhMjkH/FWMQMsIS194/3OBCcn76cQzdPANhQxlPLnQgBvGz9F0bHQFcVTIpZwEH/09z0WnkcPRfOQGR80ky16OVc6JOvui7kXWvazx4NfRGaTbS/pWMCs8w3P/qBIRP90T1t4eREm9s1asWxfHnUeYbBC9//TAOfL86eyPot6GQZ55BXnkwwhcEwyopBVcLpZrMfP+KLqFYFobwN6Yh+rd8/+JP4eJFraSmy6g+dQznvi6H45RR6L90ELrlZeBqqd77W56DtLUnUdo1CCEvT8ADf3wATleTkfLvHI07k8FmP2Gw2Utd4fcH/k7mBqDmeBYqWq1liBO5m7pMohzLhqBHpyxyN52BKhKUlTN6POCIqpPZ6u+q5lWi8FQBrMN94aT/O6g9hn9OHYRhz2xt5PZq6Lvb/JD5/hw8/2EZBv95O77ctwubZthj75/nYHNr1u3KlAh6bgteG6XEzvWHEfS3T7HiAQU+3nHsNqW7tx7/BSgZOdzGR8Er0h12rnaQe3vDb0R31F3I13vR2alyD3jFOKuCbFr7hMIjtBqF3+fpzeRYzsg+asvFzh0+Q5xRdSq7EceOWa9GlYEF0woFoypf5g7vJwLhyLY4DoyAD+UsOpGnHigunkdumiN8nomAm78j5GQJ7TGlL5zLL+Fqkx+PFbrR+ujhbQPLTja07rzh2MDeYAcXqa3SZKyrN1z7WKEs+7oai5u5yPu2HA6TBsEn3BlyF87+hz4AL98SFJzUC0LaEhjmyFlUhWoGMXUMIRldV8ao8/GEx0hf862YlurX3KtOTkcRPOCnwdMuPAIBA+UoOZrRdHNFaRZyjtcSl0CDqNpW6BLId8vHHfZOtBz7eMDWrzvs5Yxhp4ptZP7758n3T1Kj1oEccJ0qUZ6t3SRiqgwO1Ee5SNSvHwIHsk/Y7x5Te5M5SZcqj6egUN4HfaYFwsld/TsImOAH/EgMpBh8yjxcTqymBR8JD3/e9w9Er9EafiUzsNTPouVukrt7qribOudJ3E3qHLYDfGF/LQuXtQq0MAtXM9m+QbdWV7Oi/bQO47UL9/wb/cpBXVYqsG3bMjDg92vw7LBgeHkGoN/kxZgTmoG9/0lptsgmN5xC8EBkAAZHBvJnGY4B9wVgQL9AlOUXQMS/1aHVyqlhE5g7xIXKxGSk701HaT6DWmpn9DJv1EmzNM2k1LKrEzo3WLhWkHVjxOm0YlTBWz2wWfKH103XXBvXLrAsL0EFjQgnZjUv1aLs68MoqamF/EEG22ytgmEllg4MutlQH5WDB11UiYwqzXudcynPzQJkLI5FhoFAziWqqaTuqqUz7H31Z+R6D9CVIrGMqpMVrKXo05WaWXFxEcpuVKP83c9w6N3GlVh3M2/nXI05cvozgKlXOjL+ugfX+rjCztcdLgN99RShQQNv4WtlPi2WbgFqZap53q4n8fye/c73xE6vf8oPpqLYpTciQ5tiZkElDatqWDG/peYZC16qkTqFyaz3z86WHEcaIays0Inl1Ct1lkiLZVAl3qBR3Tm4q45y3MEZtl2saCeo040cusDyCnB63hnNFW1drqiWRsR6trlaDgdP3ctsTQ6mzpa5jfOXpiF5yakGy9h2LF1f4/UpxlvgbvIhdi5+cAtMxsXj+Qjwd1dN1Mpc/RDo07gaWEVj6X/Pcz9NIAAAIABJREFUY6nBZbO/es/AujWT4anprtL4VzH7fc3TeSnIuE532Z/6I/RPjUu09ywxuwrQlScNGTIZO5v/ZKxLZsMrVUpIeluwq6uhvPeVjOR22ZoGi7FDEDGCJGJ8B+oSuSbxfm1jf3Mdf9D64zAVkEoJNZekvNJ93TjQXM5G1y17ReD+4aVIe/s4LoSMQVCYUe+/+hl9LWhW6Rzk7Hwbr+E095ylJaxasmObjKV6e8SocL0WTUCA4cDQXF1GrpuUk4v1vosmwe18HopodV47fAyKbxV09TwIF81ampFi78ylyhzkHKmE0+O07lpbg7nvX0vltkUZLF9yXUa/EGicMl3y/PJ9sNTv9ybvAPM4+KH3y+4NdBcWdmZ2RsO7prZasnbSCzBJjtLTJaTqGNL2LLJdXOAfEgx/Da5lZw22FloH4NmPvsYLIS0B34p7xrBqxeP3ctaWhpl7ot11l2i6WnvAM0atYKRGVeWXNlEgdddLUNYwEa9GBa0eSzdaN1oU6ng/V6dRKvJKUdPIqlBnrCsvRyXD/RvXT3SthPaEY2gEeg+1QuHHJ1FYqq3ACtLst65KV4eypLpJOXWltFb05czjbNyVTJ8sxtrTEbLK67iucU3ckQ504gyZrqCyNGPrFgY1SiNWbVMtbLacVrTUgnzhNX4gwhZHwKk8D1y7Nki1qLlOzEv1V9gM8xj/LnfjAHmtCBV6lA3llyTrhv2uZ8VUHqWrSRaInv1amBAYrwLmvn/NPK66bLIMKzt04Xp11SWNS1N6qJTtuqHDvos3B9lLhSg15DfSVuzENltXoqpQ90zdlTK6LA0lY4RxMsvaav7J7QxH1xa4mzRFWd8fCOebl3CZa1wFV53RPcq4oiqjj02h+4EYCnLr392CEWCvwInTZvxQJFOlWm2Z3HqFv+wn73klo1IUNRx4L6oHobq8NGQcMrJ2UJMPRVw6SgrKUfL9SeSk2cBlQHed+4HbBAp3J+BqDmmb02luf1sEeZQvHBr9xrjF9aM9OLnsKKjHWkikHpgwEB5yLsZ+pNmAIJGneXJJPClL7ZkqzYXiqAk5jyfg4lnKGe2hnp369IZXUCXy3vsfFKnkziksQQnXHTLepdxm6IQWBNbd6uQJ7xGOKNvHjRHfF6CisBzl6TnE7hCyUxuXIOtO10sOWULzqSxvcvDSjl/myMldXxf2crZLJVpNxVrM9TEua8O+u4GUtQXIXL0LJ/+ZigqzGqDLZBPO9QnkIeuTbFW/lycmION4JeyifXUz65t8L7hbzOEhrnHcinvT3PevBdlNv8NyuAzinuqkJKSf5q5C7srK465B/XUB+cBguFhxEX4r+Zb4DlfmcyPL8TNI/ShdjVsnD/QIt0HxtykoV63RFCHnO+2mgBaEM3Kree4mTWaZB7qHc5K1l7xOvQLg1tVIIdLC//QReOS52LZf+JdFY+bMYKRuegkr9yQikySCmYkH8PHal7DZYM3ePigYnsUHsW9/BgqJq24iakRmcckoAve+u8yb214nFOP85l04yplxp64u8BjqjdKvG+Nh2Z2+YlkGUl47jhpuDXaeMAS99F1ZltzSGa5Ezro9KL9J3ppIbjEd76qnhIzi2/xFuoP8ngpG0RsnkXbEBX0H26HHxCgUbU7ADy+dhaxHd3iEczH0kIGc9F+7yXVyOo2nnBwc1InbdOfGADsTkPvuPmTQ4rHu6giHkN7o3rDe1LxI5t6xGx2Dvp24LXzfdzgdS+XdxQ72vXrCw6VxCXJuTOiZehxZr3+GC1zj0G1hNkPOzlaoSeEg+A2VDKuw5mK229OD4GXmDlNJkpK4XUjS3yn2RixVClNQFAYt6EOXui+Cnq9A2men8eNygiXnJoZhQxD4kN722lOppPL2Q9D/GZ9tm8TMzPevxXLMKMMmKhohV4/i/L/34TJVpLSF2cXhLGq4vqNKdt7o81I0suLO4MIbybRQbGDj7gyngWGa7dpWcH5iOHz+fRxnlnC20NkODv24iSHzRouiNb3ZMneTOj/rGtgT8u/TOVHraXy7eNOC2/SK/9NbsFW2Gus3zsGUPG5h7uqFgIhheMrLoJrAWVjxXAoWvzYaO6m1vaZ/iv8sCW9TWe71wgSfDHtYdU7mtCciVURoRpLqnEwRvFbFwKNhQdxIPnHp3kKA5zqyX9+Pa/3HIFLvXEeHaKQyB+cWnUSnZyahd2j7k7iGZ8BOfAT0en0oJ03tTz4hUdshcM+7y9oOKlHSLw4B7qKz5rbmQLoH233irsKrhyT6b7omleUo+joFxV084dKrnUl+sxrVBbnI+joPluF94CIUTDvroLYX5953l7U9ZqLEXwoCDu7cdKCm1273TebuyLKTp3BhJ+m/a6xg48PzYM9FwbkN3aRtgUHF1/tx6j/lsAnkmZ0JbXw2pi0EFGW0OQLCXdbmkIoCBQICAYGAQECLgHCXiXdBICAQEAgIBO4YAkLJ3DFoTRXM7c7vfoyj7+Y0OQtj6kncMj9KLa6+8zEOPRur+mde3bchp8mGiAwCAYHAvY6AWJNpNz0sKYDPkGqE8Mn56WnoO1DvQI6GH4VHa1qZGEF47jS48cBKIcPCpLXyaZFdICAQEAi0FgGhZFqL2J3O7xOMvr/2hY2ejWnlYnCqus34Ue50Y0T5AgGBwC8dgXatZMp37UHiWR4sqypAcb0reg6X4+pXWajuGoigP3HnjLT9kXFGLsSl4HoGT7hLhw+lQ3uPktskylF9UJK0xxJPS+WgCNikkTckl5m6cefNnGh4eGgGb1NlsJrK5ASc/ywNxSVWsL0/FK41yci1eRDRz3hrDmS2zLEivWiViadwfkcWeIAdne8PgrMUDswwUknnLozo69zksupFNYMfxTRPi6qkFpNJOWvLcfXz48g+XqDGnAc+JV6bkOH6gRJZRa0SZQwLorR1hYuIFtgi5uKmQOBeRcCsNZm6KkYvvksI1FXK0WPeEHjY5JJ4zAa9Fg+B68105CZrYlWVMZiIV28ESvwpKm6TTri+7TCyGrg4JMHJcfHDdbjOJnfK2nHwc85Dxq4sXZtMlaEKUEga4YgHEfnKKAR4Miy6PtcMazDFsYJ8lvF+FuqjBqnLcL+CfIMyTELcyQQ/ijk8LaYqMUPO6hOnkEYesu5zxyB65TiEzegNO2NbZbO2YtbIQZixPrFprfW8xH/1UqgZxsfS/tX/rLqmyde0AHFFICAQ6AgImGXJ3FCcwukrtvD06w0/Hnk366E2ar2lpzucPbifvqcN8i27kwvDHdUM/XCRLJcqM8A/GL20oVZ5RT60H9yO7EPxBQbr8tGFArEbFAoXldvJDm6RrsjYfV3FJ0MKEJNlVJBkqcTeD/0meEMVD/AR8rWc3Id8bRu1HCuPx5BjRW2ayCWOldO7kEuOFd8Jzqg4naEuY5ynihzMdmwE3PXL0JaVdgrHnj2lQ88hEH3/RtItA4+ZLoPeJy1Py2uUTxMPSk4+maJFp8knEwWnIKNPNbpojpw1jFcmBVrrFugIG8plQ8uyVUFXJOUiKRbGyKKxAwvpM69Z8sWS/koBsS0t+JlTICsqLwvpnzQd4jWRBAICgY6FgNn6oqbyKi6mXEVOlhu8f0ZlY2mtGV3JaWKpiUOu+isFXJRSJYMBfpYAxY8MDKii31Mn23DdZ4lHxYbEV9pkKeOIdVOp29XVYhm1qLhcAkv33iA9hzpxxd2+h5VOyZjkWJHK4MDs3rVxGXTXNSgqrXCGazJWJOwyR8HwebN4WhpQMPbBPDlt+wfA4VACEpcXwKmXKxx6ecAtilGuDQNIBs5DXPK8JhWpFAnnCNVXLXCzwEKlVOppKrOpKj1SQ+PUgmVZ8O3s5FIPmVs9LBnvx0IomSZYigsCgfaOgNlKRtuQOknZ/FSCGzVRuL+nw60HiDQXGY1Dr5FfT/qi0iGkjP2MlLHZnuizYAhcvEn3ixJcXLWPQQ0NKmh2oG5FGS3J3CLHiloYSTc2aYdhmS2tyRjmNfLdJE+LkWcML5mU0yMYYat6ovhsLorTGGX5sxQoTkch4oU+BqyRhiXzu2TFUKHUllpAeckCVdmWOPVpPZzH0KCk9SXpkdpiC3z/FeNaPVEHXx8LWEvKx6ZepXiENWMEU3FJINCOEWidkrGUwamHHwL8fNG1gcbvbrauHKXZ1SQ9CoUbFYwqKUtRcc1Qw7Qko6kyuNDfwxF1x65DoudwlJRVLbllLvOLt6ZcFcfKWTXHip6LTlerugz8cEMVVl3tWmK49SKW4daSbK27p+ZpyVXxyTj7tPQsG8HovHV6zIvq3K2QU8YNGZF9VP96Bh3Csa15KFZSyeivzdSWolDiPHDw0i38S1pEcoVZ1KO20hLxbwBn+P0+KpV0zSaIuup6VOVa4MQbFpi2ph6hkmbSPNdSq8Q9gYBAoP0h0Ghi3ax4knLxvA+R0cPRP8i/nSgYSVq6krpboSotF5USrXJtJYp2ky9DWq4xO5kuw/YB0v6S4z1rTy4qSJBVfCAZV6/pVWAGx4pUhsRtnpOoFq46ObWB99xsUU1lNIenRVNGF18esrmQhbxMia9FR0ttjpwV3ycg+4gUjJE89uTYyD99HTVOJLIynLJkxeL5MSMaL/xrFvIt6ixomdRj0OR6eLlYIOoxYOQU4GHpHz/7uNZjAD/7SYqHecUGAFOdL+4LBNonAobDglEp7f0HoL/RO3f7og3cJkejZPtpJPzxLKmHyfMS3hvuXiS5Mls0M8pwDUafp6uQtuMwTsWrtzD3CM5HLvmLtVraJMeKpozzO/fg6EdcI/L0g1OgFSTWW3OTSX4U2kjm8snIH+Q27wtHkbVmFzJqreAy93GERNLCMUNOi061KPn2FHLjGIyRvCRyn57oPS9MbeWZagz1hYXkNuxSTwyAriOAqcFAmX09bDV8NHWFdJ09x91rjE3ZicrGinmlZ4SrzBS44r5AoP0hIAJk3lKfkH3yH9w55j8KUdw5JlIrEZAW/rkuU0ffYV0FF/7ruLBPDWLRWVqw4f+reY27Ayy40i8pGGnRX9p5JpRMK3EW2QUC7QABsyyZdiDnXRahkvS/uajz9YSDqxWqf+RBzGw7OE8SCuaWOobWjKQ0LHhA08q2nusz/Kzaw6wpjUqn4RotGNWuMumfSAIBgUCHQ0AoGTO7rDr7PLJ3nlKfcHdmVIHfDIFfi4vrZhb8S80mKRaN8miiP6hsGq41uflLBUy0WyDQMREQ7rKO2W9CaoGAQEAg0CEQMG93WYdoihBSICAQEAgIBNobAkLJtLceEfIIBAQCAoF7CAGhZO6hzhRNEQgIBAQC7Q0BoWTaW490FHmK4zA7cgTWnOsoAgs5BQICgbuBgFAydwN1UadAQCAgEPiFINC+d5e1AeGYWcRn7Ozqs8m4sCsdRXkM+9LFGc4jItBrtHtj8rDbIeE6txqPPJmAAU+6ImVfIhQ3ZAiIeREr/jwO/oz3lblhNKYc8caACkY3rhmIZ3/jhr0b46Bwn4HV7y/CEJ4pUbw/Fb/60gvT+ioQf4TUAVZeGDJ7FVZMD4YxOhfj73ApkrYswbJth5Bb64UBM8fB/otNKHvuKDY+5sDQPCnY+do6fHIsAZn5Sti4BDC8ywK8PGcYVEwJuVsxY8xqJBmGh7OKxquHtmGSk7pWZc4BrF/9Jr46kYEyay8ExczC0iUzEJS/EVMmH8LE3Z9iGk/8N0rp6zB+WiJmfsNyyvZgzdpYxCeloOA6YO8XjUfnLcPCkeR5YCrbNx8jV8nw2jdrEaMNsF2biDWPPomkaV8j9kl1PoMaxFeBgEDgZ0agA1gyt0k4RkBNEZ/VpScg+d1LwKCBCF8xAeEzvVHz7WGkHmJ4fv3UEgmXOR1Xk4hDWUPx5u6jOPbVSvRLWoIFb6fonix1xcR/rsekLgew5nMHLP33ejyqjMXnBxlkUpOU6QeQ2nM5vjz4Aw7+cyRy18/BqiMkZTEzle1bguffUWDAkk/x5WerMPj8DsTr8w3UMPinzQA89dp2fLnva3z4+jhUx72ARZ8y6qaUPGcjNvk8zv5vJQbIvPDUp/x8lv+SdQoGxQex6pklONF9FtZ99i2+fH8xBmSvw/MrDqCsZzj6OWUgKbWpzGVnUpDrGY5giUWT9KHK+yZjyb924csDu7Buhj3i/zwH639Si2E/fDKG4BC++k6HDX7cg/jCCDw2SigYM18HkU0gcMcR6ABKhlGLtYRjndSEY7ikJhxToSORlo0PhLO/I+QupAGWSMvcy1EmkZZpkpb4rCuJz6x91cRnThyHqlTEZ9W4ciANNf2jEDTcE3YudrAL7YuAwXKUnryEVsXaNNldXnh05hR4SWaHUzSemhaB3H07dFZBn4EYzBn7A0EOcAkdgH783K8XjYd8vQhn9iMx7Um15SILmY2nopU4sOcQmg7ZxoQpUOVFzAIsHBMML+9wTFs0C/30s8oo15LZGPsA73t6wT96NuY+5ICkk4lm1kGLa98mfCWnBbZkCtvgBa/7RuKFP4xH54O7cbg6BP36KpF6LkNVa9L2pVi5Q/055ew52PftB3/JYgqZgaXPTcGQkAB4dQ9Av8nz8JifAicSNFjIozExRoYT+/ajTFWSEie+3I+SQZMxsrt+g8RngYBA4G4i0AFO/N8O4Zga2haJzxi2vzyvFtXJ8ThyxKArXKtQTbeQXBr0pNQMCZfZHWjtDU8tPQAfcvHwgk2hAhmM4RXO7zY2MpXbS8a/na06S58gs5ZBqdSpEFl3b5V7TZ1k8PRxRfX3OapAm+r5ewY2T52A9efUz8iil2H/lhlQxZ6sVSArGwiYFqhzr9EdJvG45GqLZEkn3v8b1n92CKl5pWhgA4gmFsxjjlsuMzUDyvREjA/b2FCq6oNVOEqLHDA4LICMoedQRvdjfNxufG7riWmPjUfqT6UIeCxCXUdZCj5euxofH6TbrlDX/qAbkuXiqpJkAJ9xfOYrHCicgkn2x7DvoBJDlgyFZAiJJBAQCLQPBDqAkiFQ2kG+CWZmEo5p7LVGZpv0pWFdwQp2k8YhcmSrSISbSGP6QpVenXq5Ddc3DAsyuK8a+LWY1BjaMAGYzuCdD0saQUq2rmoFY1hmM9/L9ryKBe8UYPpfP8WmwQGwZz1Jfx+B2RckW4FrI808Z3hZNmwtvt8wzrhSComAa2wqEi8UIMlrBqaVJ+FEXiBSM73Qrx/XhVjT4bVzsCZpFFa8ux4xgQ4sR4EPpo7GXn0sQsdhrGcs9h1QYKTbHhzAKKweKj0vkkBAINBeEOgQ7rLmwWpMOKZqTGtJy0ilbOdB11l6vmqm3mKSSLhyFShU+2dazGr0Zo0CP53XKQVFejqq6bcLMHfklpqXm47MhvpLkZJVABsfb9XcXpvsPWmd+Gn+ddcbdLlRwM8XyEhN17m+CjOQyYV1bUo5k4jqyBl4aphawXBxBBmXCoy6ylRWjRHQ/IMCgNTjONGcrzEoHPdxg8ORz09AFv1rjB1QghMf03KSRSBMZekpkHq2FEETZ2GsSsEwKdORmmugUK2CMfZXAUjauwMffXUIjiMf5TpRQ1PEB4GAQKAdINDBlYxpwjHTGNug+0OB6JSSgJRd2SgpKEdFTj6uHjiF1AMGbC/GSLhMV6CXg2sib69DfLoCisRYrIlNgef4yejXrKVmpPDqQ9i8dg8HXA7EX6zGtmMOGDluoHGLocnjrsw7FIhfhzUHMqgwuZNs7YdI0svn6RtIMjMqCHK6SElxQKrD0FriDXsveDrRtfbtMZLEKXVuNd7yGjMbMdiNVX/eisM/sa1ZKTixZyOWr+JuOalQey7++2fg8z0l6Pd/3Hk2KAKZX+xGblA/hKuUhCu8esqQcfIYFJLlUst6NmxCvBHl7j+S+P20EeuPOCBmbLSZOEh1iCQQEAj8HAh0cCWjJhxzu5lK0rKdOLY8HrmWASQta82ozQjzfaLQ97k+VDSncfbVXTi99igunlVC7tHG7jPraEyKKcXmZ0bjkbmbUDh4GdY9R8auViRZrykYKyfj5AQyTr51DkEvbcHCwea7iOzHrMKmuV44wV10oybPx3/9JyNGWrDh2o+UvCYtw4rodLw+oT+GjRqNxfH+mDjOq+ngzS3LM1+aAtmBuRgW1ReRETOxU8sU5zQSKz5Yi7HYg2W/GYFHHn8Sy7dRlVGBkY9TqgX9QlyhdIjmRgd+DR6AcCslPOlGUxt1Dhi7aBUmKTdhytBBeOTROdhmPQ7TQo2YKZ6jMOYBXvcYj7GhqsJFEggIBNoRAu37nEw7Auq2RVGdk0nBnP/qbfVtZaGqczJ7hyJuxzz4t/LZZrMrD2DRsFfR+R9H8Wp0s7na8Q1udJg8AfExuxD3HN10IgkEBALtCoEObsm0Kyw7hjDKFOzdcRCpV7hzrJJbgrfQpeVAayCiY4ivL6WyuACpn76Jjy9G0NoSCqbj9aCQ+JeAQMfYXfZL6Imfq411JcjctxpvrOYGhmoZvO4fhYVvLep4C+a1B7Ds4fnYK+Pi/5K1TaMH/Fx4inoEAgKBFhEQ7rIW4RE3BQICAYGAQOB2EBDusttBTzwrEBAICAQEAi0iIJRMi/CImwIBgYBAQCBwOwgIJXM76IlnBQICAYGAQKBFBISSaREecVMgIBAQCAgEbgeB9r27rB3xydRkpiDtk1QUKRgrxUaOzj394PdMBFxU5yCrcXn9TmRbBaJbVS6u5Vajzs4Vnk8Mgm+Qjbp/bhYh76ME5KYWoaqUsVgcnOH0f2EIHOupC8DJnJXktcncnY5i8trUyexgf38oes8MhK2ml83ivWHeskKGgrFmNGcnIwcYW3pjTPDe4OQKDPvTOQT7FyAxVYaRz09GVZx0Gj8Ac9/ajmfD1PWVJW/F639/D4fPFqCa8dM8Q8dj4V/Ji6OK1CmSQEAg8EtBoANYMu2AT4ZhTbLeS0ZFz0jyzUxC/8VD4BfOKMmNAlcykvPZfFiMHYPotZMQPoKRjd89istaupO6Stzs1B0+M2MQydP2keSswZHDSPtOR0lQl3YKZ95Ow83gSIQun4D+C6JIFFaJKk09ZvPe1B7DP6cOwrBntiLzVt5kU7w3ZUoEPbcFr41SYuf6wwj626dY8YACH+84pq6NxGebF69D6n3L8d6+o9j/0Qb8LoYMZQaBPm9FNPGMQEAg0LEQ6ABKph3wydQxzD2VRedAD/LNyCF3Z2Tj4cFwYYj8Rql3b/j0kSwXK9g+GATXToyBlqiJEinzhM/0vnALcoYtOWtsg/rCO9wGZecLUacqROK1YeDK4AgET/CFo6sd5N6e8JrRF86qKDntiPfGKQQPRAZgcCQpA9zDMeA+smf2C0QZeW9U4cUYCLSAsc/8IwciyJNY+YUjZuoMDBE8L6qeFkkg8EtCoH27y1Q90Q74ZGiB9Bhoh3Oxe3DqOEnPfJ3RlQOsi7fGFaaVk6RpDVesqEiohIovS5aKxA9cieKvTyLjf1dQcZ3uNO2svo8SNbxrI/HakKHSdqgB5bP2bWwN7w3jii3973ks1T7b2r8t8N6oCM7ohpOcYjIZW8t/MipBiQMHVQyUyev2soEY+5gXXvwLKaX3DGScMiqiR8arQvaLJBAQCPyyEOgASoYd0my8y5+LT8YGztPHYcBgrrekXkFxciojNJ+H++/HoVcfnXB1tY39QbV636uPH8e5/ZVwf3oUwoIdYd0JKPlkF37Ma80L1w55b4z2jQPJw77G/okHceJkEk4e3IRF73+Iae/uwkJ1mOXWNFrkFQgIBDowAh3CXdY8vj8vn4wN3Vc9RkYg6I8x8PaoxPWzJXqi1aImv0RH13zzOiqu0QrroY7kXJFZhLoAutPC1ApGcn/dKODivrYEidfGHahojtemNbw3LLPsCkPsF2oXhJpH0OidNuC9kcp1uW8Yxj65AK++tx1zAxU4fDjDaHXiokBAIHDvItDBlczPxCejzMXFT1JwNbOEazOVqEjOQHGhFeSeBlQAF1ORHp+PisIiFO48g8Jad3QPl1xldCe5MW9uPopV434tKk+fhCJN3/Ihr00M1zhSkpG6O0fFa1OZl4/LO1NQrMrWCt4baeF/OkPsPxd7awv/pGC+Ld6bymP44O9bEZ/M+Gjc5ZZ5ZA+OXJLB319NEH3v/pxEywQCAgFDBDqGu8xQ6obvaj6Zku2nySdzFpZ2NrAL700+mRJoqU2afVTvhppPxoZbh8knE0/rwlraotwdrlo6ZkuuPRTnIHvTWShvcPtxF24/HjEIfQYarMlEcKvx2eM4/Xk5LJ094f3sQPTQLEPIhw5EYO5RXFj2GS50sSGbZQA8ouyQdU0niGWQxGsjyXESP/6HGwbkmi3MGpeUSTnNaaw5efR4b1JvOKDf2Fby3lhy513+AfzzD5uQK1lTLsEYPHM9Xh4n1mTMgV/kEQjcSwiIAJlt0puaczLdhiN6On1eHTm1Ae9NR26+kF0gIBBoWwQ6uLusbcEQpQkEBAICAYFA2yIglEzb4ilKEwgIBAQCAgE9BIS7TLwOAgGBgEBAIHDHEBCWzB2DVhQsEBAICAQEAkLJiHfg1hFI/h+OLjiEwpu3XoR4UiAgELi3EejgW5jv7c5p1LrMUzi5JhfdFk1AgI/uTh23TB/bWADPl8fB1+NnxsPZFa79GdOtHU9VLArehmVJP9QG9ITl+be5nfrPqOumPrtkkfsGLK9dbwqabDhqez8MWEi3KmFx5XNYXEuDRR3DNNj2R53XaNRrd68rf4BlzhFYKFkOT9bWd2IndBuDOteeunLLv4Pl5eOwqGJkN0vGGnIaidoeYfwsZSmA5YU3YaEJcacvTL3zbNYVoL5UmweL3M9hWXqVctkblKHOYlHyNSwu/wCLmzdRL+sDeExkNHB1W2GOnAxwZJm1glvnnyNGl2CV9gPqe81nNHB9qcRngUDrEBBKpnV43b3cPt5wckhDcQpjofnoDoGWpeajhgOay90QymhPAAAgAElEQVQIPundB71n3D1IbrfmerenUNtVzwyrv06F8SHH8BCNgmEN1z6DRUER4PkcajuXwSLvM1he6kylNVydp56Kxz4adW6uDH/EzzeOwDJ/GywtF3CgpjKooRK6+B0sHCahzqcn6qvTYKnYyUhJXVHrKSkiV9T1nN8oQrVFTTLrSCIdhHY2QUWXxzIreqLOdyrq8RPvf6pXBoupoiLL+QFwnojabl1hUfgp66WsvWdC0o3Ufi3LebtgiucFAs0g0AGUTDkurt6Dq4HR8FKmIedkESrrGOV4xBBETVCfSTHJsVKai+zYBFz+iSf263gQklGUe0wZAt+GuGO1KP/+FNL3XkLZ9VoepHSF22MD0StSM5jnJOPU6nz0eG0UvDSRl4tjd+JMaRgGzQtUT0gJcEkcY5HlBCAovAQX9+egnOcQbQLD0PcPwVCXVI3i+JPIPpiHsiLW09UZzjER6DPcVV2GkpwzcaegSGQblYwo4O8H7+kR6OHO05hWjGbMCM9X0vJRPTpQE4izHMUXyiEP8oadNoZYS2VoXwLJzbW1Fn5znXFt53kUX6mmLB7wXzgUPdi+lrlzWEgqrad16QyMwyTzRsjaoXCRBjK91KiMLo5wGsx2jvdUy20OT5C2LGUpCouVkDm5MvBm4zpu+1snKgZ9uW8kw6LGA/XOWpOQSud6Ggd7DtTER0r17jTdMmktVA5HvUTy0zkMdTx72pC60IopewMWNxiUrhutiXLJAvJBnUcY6qU+shlIKycNVvnHYNGDSkeyZmQGJmjBbgYhDUG9vebnWXsOFiWVqO8xEfUqy8QV9S68VqArw6KICsaaVlYPtYKs7zEG9cXbYHGdFpYbO9WUnHpNEB8FAm2JQAdQMlJza1H1PcO0xPBE/GpXdKooQlGu2l+h5ljJhe2vBiK8ryNPmmchY9thpNqOQdhQaWivZYiXo8gpC0TQ4hg42FSjIisXFSpyE/XIXJdKHpfYfDhQ8UT2laPqxCmkvs+Zocu4Rq4pc4Cvu3QeF+1CEbgoGvadK1FKy0M7/pfvjceZb4Dujw9H794cLK7lk8TsBp0Urhx8y5H3TjyyqgLR67cDYW9PhbT/ONI3JEC+PApOnazgdH93WP47F6VKRoCWBlyGbS7Ok8PpMWeNaKbK0GtBzRVc3CuD76xxCKGurkq7gpuSoFrunPuiET63O6xqynEjtaAxF0zQQERvHghIyup9IyQxpdlI+xf5d+6Pwv1z3GGlOI809kmK7Tj0i9FaYWqeoJAF4xDkWIm8t/chY1cW3Ki09V/Kwl0vYNhrCRi77gxWx5jTA43z1FvSmugkDcydOJnnDF+yNoymGg7ItB46U3lolUYdFUUVDRaNglE9JqdisKC1UlmGWluW3SixjFJaLpVsgaOb+k49/1hYqzxv0kdVsuT9ugK6tXjNUHHWs86iPNQ7jWc9mvyVdJXVu6G+i8b1JZVlS8VUl0E3HT/L6YaroDJRyaatg5+Z3YLPglZT42RETk2GBows5Cq8GsozKEF8FQiYi0AHUTJsjmdv9BmtCYMvo6Wh+t1oOVaGI2i4u9oacOmLgMHZSDx5CZVDgxlkvxrVtE6s3bvD2UPOPHLYMCS/UwNCjOR89BJqeoehF8uQVJft2Ch4Je5B3tF8KpnWnuB3gfdv+sBRNR7YwUlrDd3MRc63JbAfMw69/08z0LpQoXCyq0oXzyM3zRE+r0Vo2sYxY0pfFC06javpVDJBHJuCfeBQdxpF2Vxa4HN1F3JRLusO70CNGjOjDE1t/GOFbhOi0MNb/axtqLf61k197hwJDTV/ju4505+qk9NRBA8EPREIR2kQdY1AQNolJB/NQHlMmMaq0+MJ4hW3SFdk7L6OcuosJ61WNl2V6Rzdfk33kTpbvf+LuoHe8EmVtVBDa4EWh/ZeHd1j9daoZ5ghi8tcNynx4RoFLRnKV0+c6H/S5KTFk07rpYJfOTjD7RnUasmGukgusW/ovrrE6/xcmwHLIolKzpD0TlPUjeOwvKlvTfF6jcTSw0HfioopnWtMncajrrs95aQMKh1fRWuJf6xYZunnsMq5iDq/F/idP++bKoYfTWpBTlUOttVLixHdeH24biSSQOA2EeggSsYKMh9ptm+QzOJYkaPr/3ngYuxhnMh1h5O/MxxDfeEe6qhxc1XixtVayHo565XviC7uNqi+WkIrw73RzNpQBMPvlj3o1tFNOHW3rxWhQkmro492Jt/4yZrcElTcLEDG4lgYxip2LtFYXfLu6OZfTWXENYI+zihNLeTfB2jlqMsyqwxttZbOsPc1MpqbxZ1j2OrG3yvzuW7ULQC2erN0u55s9/fFqOLs3U614G2CJ0hTpMvUbTg7teX62uRuMV1g6I06J2OdR6Vi7UyDxNBy0dbclesqL3JA59qJtCZTsBOWnbl4Ls00bKK5yJ/HdZq3YcU1e5pFqHfl4F2ZZkTh8flr5zjLGQ16dZsmySKidQHrzqpntUZLo4wqy42WrdGbLcjZtDZxRSDQJgh0ECXD3wzdRcaTaY4V+cChGNCnAEWkR76emoOsjSm4PHYUIsdq3UzGS27pakOIfsNMlLM5SQ2zGn63tPNFyN8f1DBhGt6VvlNhhjojIzEfldQ7xRdq4TCKLjS9rKbL0GS2tISV0V1h5nHnGJOu1dduFahWV2TqAe7wKrpIE2qmeo1Em50Ddr0FXUs11IyuXJfhEg7qaPEQe4tO+gsxvG7Dm1QM9V2mou4md60VUGk5DqYy4E+sG685T1IpIUiKqmI3FQ7/Gv76bnLBn4ZHvSfXVfSTSrldpxxUEj7z1XektR5aQ6p1Hukv+9KilpaN3cPcGSddo8KqJR1eJwPF2KycjWoUXwQCbYaA0WGmzUq/0wW1gmPFsisXzgf3Ra+5YxAyRI4KKhz1rlE5urhZQZlbpF7IVslcghv51bBxI/eL9LWTJQfyWtRKtI+qVA1lKdkttV/N+duNtMuySpSlSUyZTZO1pyNklddxXdH0nv4VeZgHbHNJnEYagOLrzugWrJvymltGyzWo77bMndNyCXKJ1kBluenylV+SrBsndG5uSaS5IisLoMglrbNeWc1lveXrFVQIVfa0YgIaF2HJdQ/qkvoKurq0qfISXWgc7OXNWTXMKJkZHPDrG/xu/E4rBDZ8xpJKq5ibCTpx55ghFtLivSUX/NW+Vl2dcrrPLGgG3dDtc7ao4FoL5VOv6bBcOS0clWyax+r4WcrOZ5tNxuRsNrO4IRC4NQQ6tpIxi2OlEld3J0CRzB1b1ytRmZONq2mVXKPhoK7CzArOA3vC+nwqLnwnccGUoOhr7vDKc4TbQGnqykQFYS8vQeFpEo/xa01mKq78ZGTBW53b+H87MfT/CEeU7TuMC8cLuE5bjorMbGR/naNWbj694RXEBfD3/gdFKsnPKEcJ1zYy3k3AVX295OqJbi7kq9mfhxs9veGiHz3f3DKMS6i+ai53Tgtl2IQHcs0rD1mfZKt4ccoTE5BxvBJ20b4N6zEtPN7oVuHuhXhk1Ai8fsTcJ1qbj4P+NWnBvz+tEMNnqUy6cvGrZB93mXFQp4vLMp+KQM68Wq9aIc+uXKGSKuOgXsGF+CvcOlxMc8Sez2lcVhZFXJMp4b0KPs+tyBbXqYBcH2y8qM4FfwupDgeWbfirtKLiceC6EHedWVRwE0Y5z+VIazxO0Q1567txrUjaLp1PBaZkWZdZJ/qgvqtm0d8MOQ1bL74LBNoCAUODvS3K/FnLMM2xYgXruhLkxHHnVhGtDxs57ELDEPy4Z4ObyTKUu9amcQvzfw7jVBw3CUhbmJ8eAj9/jT9HUhBP+CHlk/04epBEab0C4HK/HGWqPbzmJ7uxMejbiVuYv/oOp7dLW5i5AYE75tSdYAePuTHAzgTkvsudVpJnhfcdQnqje6MdSM7oGmSFi/8tgN2EgQbrVOaW0YLMJrlzpC3lu5AtrV1r0rn5sapPduPH0QXJHX4Ovgh6vgJpn53Gj8vZEDnbOWwIAh/ivfaWNNuDIW1NNpa6PY76Gh7GzOOainTWRDqM6a05I8P8FtwUgGKegymQNglIazfcBeZCt1t3acFfk2q4JnOZWpIzlHrJgvHgIUvpDI1+KpMW/Lk1uZvecw33uejvSXeddBgz801epeLoOpVrPXp5uSuuzpsbAC5/BiuGYKi3oYLx4WFMjbVklpyNJRLfBAJtgoAIkNkmMIpCBAICAYGAQMAYAoaGubE84ppAQCAgEBAICARuCQGhZG4JNvGQQEAgIBAQCJiDgFAy5qAk8ggEBAICAYHALSEglMwtwSYeEggIBAQCAgFzELh3lExlOs7M34UL6aabXX0oHkeWnoLqIP3Plc6tw/jImfiYh/TvWKo9iOUP9sWCA62ooTYRa0b1xbwvGM3TrKTE3gV9GU/smFm5RaafBwHF9qmInLwRepv+fp6KRS06BLI2YkrkVHyQI0DRR+DeUTLWjuga5Qm7u7VLNj0OKxfMxPiH+iI0lIP2nls5PViKpO1LMWN0f0SG9UX0qAlYvqfx6czCg+swbxzvR3KgnzwfmxPNVQ7mv/iK+NWYN2EQZeiNyAdHYPYrcUjVnQM0v6AWc7bUVgU+mNqbODb9N+yV1ii3Apx4ez6mSH2iwnMqFr2fCP1oXi2K2OimEkl/H62SafanPKuiTYWxmE2cGska1nQyUXhkIxZMHYHoSDWmM9YebJCjUMJbuhfFciL745Ffs1+P6NVhvpDN58zZg+VzJuARTkJUWIyeiuUf6WFRFod5hu1Q4c9Jyz7du6zM2oOVs6R29EXkQyzj0xS05k032daDLyHaSL+HSpheab55je6Y0ydt8ns1Ux5mK4t/CcPYrsg/tGYGyAeVifj4L3MxQ/rN8/novxxsXGnOAaz/szTuaMaMcTOxckdzfdLMO2x+M24pZ4c/J9PQaoZt95qpOTx5S1Dc5kNK/tS8B2DmQ8H44mX1uZHWlpj5/hzMfkeJiQvWYOF9jlBeT4dCPwBY1lYs+CPLnrEGcRPdkPnvJVg0byFcdr2DSd1bW1sz+Tkbe3FRHGRPs44pIbDJ2481C5fieSsv7P9LtOYAazPPtuJyy231wqQ1uzDghl6B1w9g5fw4BDwUYXYthTuWYt6Wq5j410+xKcIBBUfexKJX5uAv3b/FujH6p1hNF1l2bDVWJjsgqNGZJc1z1pT3rxvwhL/2u0MDJYR0RZm4GrMW7Ibr9AVYvSQEDkoFMgr1ZkPWLgib+CKe8POCq6wESTvWYc2C+ZDt+BRP+ZmWzawcjDDj8cCvsfBJRvBmNKXC01uxZu0cLJJ/jY2P8XdjPwpLdobgBebTJuXJdXh+kw0e/j9Nozngrf/dEnzjtQDrPh0GWdJGLP7rHKzq/jVeHWYmnqbaOmAxPtwxu5HiSnmPdVwegsGtecdN9Ana4PdqFu5SpsI9eH2DAl6BZMkw+yFNxuoqKG2CETPzYQR9shRfGTxfduYQkhCOaS89jSBPGXIPvo03XnsSBbZN3/EW3+HWytWK/O1byWh4R5SPP46+UeqDkXWnD+HoR1a6GF83s3Hm9/8D6VmYeBjxjxPQi52pn+ry0pH+72RcuVgNay9vePRqxk92O9wlITOwVAo5VXsAR16J1QtRoy9JFXL30VLZthuppRywHlmAFS9Pgb/0G648iM3bMjD4L99iacMAGI4Beo+nfv4hklymIG7+MEjnRP1fWoBHD7yAL/YpMOlpr4ac1edjseidTYjPKoVr2BQsfHUZYry1t0s5u1+ClbGHkFvrigG/ntwQS1jKobyQQpdLBJbMZB3SecHuMzBx8DrEn08hhyM5fbTFlCVi84IV+OAILS2PaEz/00q8MNhMJW9GW+29gxGk13bF9leR6jYeC7UDnnSvMgU716zGtv0JyKyUwStiPF5Ysghj/dSDYkbqOSjvm4WZI4Phwuwu42fj4ff24JsLknUYrFe6iY/FB7Fm9TnErJyNzKfmo6nHUwYXf8p7n7FyCvDVO3wfJryDjS9plXQw+ulldRk2G8/qfQ/qXYYT+5bg5NlSKhkzB2/p+ZpcHF47E/M+SUBBlwAMnrkcrz0dru5fv3F4do5eJSGLofhmBDYnMCDnY8N4g4oxUB+TUux9OwGyYasQowlZrjy5AzsvBePZjbMxQHqfApfjhYODsGzHfiwcNqXRe6RXU6OPJtsqd4X/fXrvkfIgPjldigHPj9e9e7TK1qyNRXwS38nr1I9+0Xh03jIsHKn7DZCkp4U+oUhm/F6VkpWw+k18dSIDZVRaQTGzsHTJDARpoz3w/ft4+RJs/i/vu0Rg2hMGYYlULS/Aztc3omzGWjz23wlGlYxk5b7x9g4c/qkA1fZe6DdsHpa+Mg6qOQsJ8Z7i5E4q5+N9TWc49mNWYusYHcT9wtygODIa7xw5DowZqbth8h3WZW3rTx3fXdbJF303zsDQdQPhbBgLSkJL4kfZfBzXbIPQd9k49B0lQyFdEcbijqm4Sx66gyFMamj6ksPlqX99jS/ffR4uJ1dg3luJ6lnb+RNIvhGBoNpNKldVNN1UUxasw+FcbZcXIOUnBWR9w1UKRpVkEbifI3HqGX3zWInDn3wD/99vx5c73sFjsv1YtJC+eo1eLdyzBAu2KjBg2af48rO1GJy+A3sb6mCR5IrpZ3kOR/ZnqOW6chBHTgP9hgzT/chZdeH+D5H6wCrE7d6F14aV4KM/LcVOc90ZJtuqbbPmb20Kvvg8Bf6/mox+2rZLP94/zsH6rHD8jnj+Z9d2vNAzAa//bh2SNP6bgEgOsJmHEf+T2qVY9uMBHC4MwJAhxgYDgzobvhYgftUKZIxdjmfvMxYamRlrFPjoOcmF2R/DJszFmgMK3UxceQ4nz8gQFqDAGsnNFC25w17CByebcXMqC5AUt4ez0wCEBbVCwVAMZfpufF74KN78/GvE/ikEmRvm4/V4Y/UooTi2A/HpMgSHGszItO3OZVlHHfDwY0MbrNfcc+dQ5h6Cfg3h0DhRCguAMjUVKc3M25pDVXXdjLaW/XcHDiiHYuIoPcVTWsLJw2Qs+dcufHlgF9bNsEf8n/ku/KRXW0t90qJQmpsclFc9swQnus/Cus++xZfvL8aAbFp2Kw5o3Jz8na2egzVnAvDCdv6e//Eoyr6kW1nPEpRKUtCa3qKchSWP6StAnQDKk5KV+yEKoxfjvV2s591FiLHKQcGt4CkVywCL1Xz/XV306zPjHTYHk1vM0/GVjKmGpzNWWYEzPJ4IhpO7HewiI+AXqZ2KmHq4re+74tH5fInu84JX2Ay8PCsCBft2IEl6oQquoqA6AR9su4rBi7bgw3/xpS6IxYt/0C7mkiGSszZXMkRWH1lB3/oErE+WwZHWhrLsaqN1Bv8pi/Ds4AB4cYb37EtT4Jm+B3svSG0pwKHdh4CYBZz1BcPLm2b2H3/NgVvPq+49A+v+NQVl60ar1mRCH3oBSdFrsG6OwcAcOgsLp4fDyzMAMfNpUdkewxf/lSwEM5LJtjYuQ3maijAnGGPH6cnw04fYdiwQz/51AWLCiCctn7EL52FI4W7sTVY/7zJmFd57Xsb1nf5ch6A/+5nd8F+yBQvDm84Im5O6cM+rWHNxMpbOasbykQVgzIJlWP3mdsS+twbP9r2Kj//4JFYd0QzuZQUorOSA9M6HwLi1+PDfWzCnVwrW/35hY6UsrYlwvSY0chBmbLqKR9duwbPNjP/NyQo5+3vRFAR5c9Y9ZhF+N1SJ+K8O6b0bXOv6tXrN8JHn6BKduR3rphof/DL38L10H4+JkTqsCoq4TmTvAge6fxY8NAizP8qAQ1eSsxXz/TMYXJuVUbphdltpBX5xCLKYyRisH4VHskKem4IhIXzHuweg3+R5eMxPgRMJmnUsU33SonDqm4p9m/CVfAbdm1PQj25Mr/tG4oU/jEfng7txWFqfVB7C3v20sOYux6QQ3g+hx2C2TiGrSsmKxfItwEx6K7waJkf6lZfiq+2xKBi8GOvmj2S/0eUfOAzT/jIPA4zmNy24YvdG7LwejZkc77TJ5DtsutjbynHPK5kacsJU2zigC/3Q6kRaY0+7RuHxtXdU3CVnb42B0axeoMntp/KNqZOLXwDsyxTIpPJQ1nGgp7KRXtpp0cHwDxuJhQvHw/WnA/gm3aB0Owd4urvBpYuxWmXw99cbjDn4+oNrAJek8hXIoh4I6B2oW1txD0ZAV71Bt/AA1ry2G3hiA2J3fo24DQvgemghFmxpvJhoz/htDcOTLBD+DMmlyMjRCVSsGTQ1i7hT3s5ouNeqtqIUR3bsRsEDk/Gop674stQU5CqPYeVDeovuUfOxt6wUBYVqpVl2chOWUWk//Pqn2L1rF7b+KRypqzj7PKY3u29BTlyJw7J1Cjz26mwwXJzxRHfGpKc54IXTXRbGAeK1DXghVIGvdmoHd8pSQ/rohxZh4WO0QgPDMWnRi4jBMew7qLe4L62J7CDeH76DpaMYwu6vrzayMEGWoc1TJQWhbm/knNgmbjsZ+1Ll4lQlB/j3Zg8pOCtukJxrR3/fhd1c61n30kAUxC7BP7XKUL913HH48RcZ8GcsuibtlnCwsocrKcxdmuHDTvr7CN1GiMj5iDeclZtsq0aYrDh8nsCJGd15jaYFZXRTvcLF7mFaPEbTilFCeUPTryb7RL+xxj9nptKST9+I8fqbIX4TCwUDlJaSzglXc5BbTdeev87atKef3tNaUx7J6T5YtgmYtQzT9N7bRrUxTxYnfwERGpemcVHMvlpGq+jFtRkY+voaXZ3mvMNm13BrGbWQ3NrTd+OpOsnR1dwv3rhAlsyur02tWve48ULb+KrMyQ32Vq4I6KnnInHzhIv1fhRKLzUHDYlssaC4ADbhC7B1h3StFDu5VUpmz2dbI49B+230vqd+Qh80xiP2ec6spOuBAViSdwCPbPwQJ2atxBBzsXMahRW7IlCqmeHadA1okNB0W/UaU7gfn38HDF45SrWu0ig5TcHGQ83JxFnw29IscT0WjgtXDVL+fnR5HeMawoeH8Gz0ODVmLciJ1ONIvJKCwxzc12srlgbMVdx5F78M+7fMaCoTVW9QL1eubV0lYQQn/lLf0Mvm5eOtGyhtOPNlY1ILpEFR6wbimohq/SWAysobpZMnYPMnKRj7knZGGoDp/9iFh7VBWW05yDdGw6xv9rQ8pXfF/z4ObIpBmPd2HGYOnt3IFar8LhZfFUXgd+N1fSYV7srAsSguRGnXYVj64TBVfZncWAGnCNjrjSRBc7dj9xSNdWzNCVGTd8ZUW9VNSYrbgVTvyVgdpv6u/i+tQm5YWJPE9+vd9YgJdCCu0m7E0dhrqMwaHjPoE/3iWvgsG7YW328YZ3yzS470oAwy/RHU2kaXtyIBJ1O4u/FHKtxVmkpU8s1HaNRIrP7fBoxtw9G3LJGuvD/sp6W+nZsw9FyLt/QOtwDKLdxqw2beQu0mH7GCBX+gdVVS76jfVGWJxONibPHFeGHWPcgJoyxB1Q3e14zflVcqja7JQOIu4YDu6EJ2S/M9KsYrNnaVfuKsTP74uAtESoVZXDDkQp+/FI3dPwjB1ruhkCyO+zSVFxaisIaDicoKc0Uw3WzKg4lcX9EoAGUCfuR2laCZwXo/BCUyMyWrQTM45UgL+V54uCfL5A4xP1/gK4U0t9XYIbSkcoul8tWp9Hppky2pnSVSFWJYLSkMzYBRlpHBn7ZmnUaZjkxyfnnF6Pt3qBS9+U9XtO6TybbqsirotjnRZRTeHNp4fcI+KBielfuRzJngEKML7qUoLZUGOg4EDcXxE2cbygr69HlNrZhbkJN+8rg983SbOGqPYc20FSid+SlWTGEkbmNtIyqpGaWQubpBtX+MrpsgWq9f6GNecxUKyfXp2rhNjYqj9VNKOfWTVkEYrZYXlfnsa046glQL9aXIPE+zlRtdjG/HkCxbPnOjDNW6nxefo3LexW22g1bhUYPdXJ4hIbDfdA5JZCTo562uI/VcBtfxfo1gPUUic+I7reM3b05c3XUjbZU2wnyxrwD9Zo1XL4A35Ca+3BARNHEWxlLBqBLfv9RcjVIzWptBnxjN0/iifxAV7NbjOFE5DqSfaprcvOFpI3Edsd4Q9RumVPA3oXUb2o9vNMmS+uObZVPxjt0yxC0ZpRkCAuDXSwq8zq3kT3q1bqKoJ1FZ8kY8/8JuuLy0HavHNPgX1Dlu6R1u2tzbudK+3WUSKRlNzfKkLBUTJEpzoTiqmtabn+iScutWgNz9+aRSpsIqSMel0+VGn78t7hIuYip+SkHqTzn0T9N05w8+ld8VegO49AM+8DZ3aqUryG8Ti9ffS4DrGM1itssoTBwqQ/z6FdiZzPvpB7H+rTgU0Bf8sGYba9BErp/k8zzOhoPIpPKIX7sOXymj8ZjBi5UZtxqbj/GFzzqGzWvjkBs4DmNVA7Erho4ZCuWBrdipmonxrMo2WijSdk5NCo4eCJdLcViz5SBSc+jKO0k5tx2D/YCh6KeveH/8EGt4zkKRm4HDGyhHBeV4yPhw1gRsM9qqeka14J+owmiIodLnwu/M6AJ8sHgpPj7JtlKOpCNxPDOwGvEqzL0w4AEvblDgduAD7Afp/hcrsJlLUv0GRzejIAwkldFHzvfHv+GfeiCQuXIQ7a4e4DJ3rMDKLXE4fDIRqYkH6cbhGZcf6eKZNFQzaARg7ESuvUlrO5Icmn6Lr43GmAclvBTY+/el2LzjAE4k8p1JPMAyuDEgi301LKIJdC1eqJb6ew8HXA6q+1bjn4dkiHlULUfqR0ux8v04xB+jnOeOIf597jDcVQD/4SN1G0mkwnN244tjMgx5dGSTQU9Gl+Wknin4YPVWnKDfNemLV7H+iAMenTyqSV7jcprf1rJ4LvjfaPpuS++wFydMGSePQSGNCdzYc2IDd1LqHX4y3Sd8zsTv1WvMbLo0d2PVn7dy1xd/j1kpOF0gutIAACAASURBVLFnI5avimOPMcmkzQgO3GQTC2neCGUGPqaFrBODu9u89d8dTkrI5Qe5G/y59qJ+nYndkzPgeuRvWPD2AfYbx5CsROx8KxYnpLapkpKTUWksOYfCG6yIk0JpXMnMVbsGlT/xWMNvN0E5fjGeDSpV3dO/z9mOyXdYW9Od+tvOLRkb9JgYhaLNCfjhpbOQ9egOj3B3WHKg0KaSuF1IitdTGm/Eki6LKSgKgxb0gbWVM/yej0LttqM48RLJCLuSTZIUxsXn2xjSnDi8OHUdUrUvx1tTMeUtijGffvbnNG4Ha/rjR5Xig2dGI+mGA/o9sgwbf6925UhmVsyrG7Bw1d+w5bkRWF5Nn/oDU7D6tXm6QcBvNta9UYZlaxdiyntKbt0cirlvrTI4I8MB4okhyFw9Fb/KUaq2MK/+B8vQNNdl3Cqsy+cA85v+WC+554YN4/mDjIbZun3Mcmz6y2qs2baQC9B8kW3pahi2CJu4oKw/c3cZNRlB37+EKWtpFUlbmP+xshVndcxoK+VVnvyQW2YDMG1iuJHO4vrCG9uBN9dh258mYCUtAxcPbg0ePBkxqpmnDP1+vwWr+b/Nq3gK+zrxcgnGgDnr8fKTmv4wUmprLzlQ16RuW4fPNxRwOODA0msopq9djLmDdVaK19Q12HidSkYlB+Vknrn/4IKxylcvuUGr8Hnsq/hAYgBlv7v0iuC5m7XcEm6oWVuWTubHhXr7HXhxwksokAVj8O834OUYtRz2bjwn9P57eP0dBQoraMVx/WbAnHewcE7jDQ2pn3PB34VbwY3VLQvHC/9cBeVrb2LB5NWodgpHzJ+2YMmwFiyyRiKb21auaX3GH/ngtRjZxFx0wNhFq5D68t8wZeg6bnzhusgjkzEtlEpAU5c5fUKCqZZ/r04jseKDtXhn7UYs+81qrn/RxecTgQETn1dbqOzrAYs24HfcwjzrofcIKCc1MUPhn6BSQWYn2QOL8N46e25h/htmbVGgWs6NDDHcwqy1DGsTsPkZvYOo51ZgSjyLj16Jg1umoOoYJyfFVD7beeiYP4eGpLnfBD6zJWu7jIJPpu2wFCUJBAQCAgGBgAEC7dtdJrpLICAQEAgIBDo0AkLJdOjuE8ILBAQCAoH2jYBQMu27f4R0AgGBgECgQyMglEyH7j4hvEBAICAQaN8ICCXTvvtHSCcQEAgIBDo0AkLJdOjuE8ILBAQCAoH2jYBQMu27f4R0AgGBgECgQyNwZw9j1pbj6ufHkX28AJWMXGrd1RFOMQMRMlwVJ4WBjxjf5x/5sB/eBeUJV1B9wwqdw8MQND0QttrIMcoi5MWdgiKxCJVKBrf094P39Aj0cNeLYyHl2ZmA3NMFqGAeGwbv6zFpEHyDGodmLyvkgTnGUnJxat0htw7dw0J4gYBAQCBwFxEwS8nUVV7D1eIK1NbrJLXq5AgXxl5qqYDqE6eQRu6cnnPHoIebFarz83GNJ54bpboiFF0JQPgrQ2GrzMeFtd/h3G5HRE2SQm6UI++deGRVBaLXbwcy2GA1ivcfR/qGBMiXR8FJpYiYZ1M8Mq57wO+ZMejGx6rTGd6/UIrHradkGHfqn1N5crbrAkah1Z2AN5BGfBUICAQEAgKBNkSgJR3RUI0l48kqfvoJxQ3xdIAuPg+CBkOLqaaQ4V4YfKxboCOkSL82XQPJXWmY5HAb2UdtuXRyh88QZ+Tvz0bxBFc4Kc4jN80RPq9FwE0KIskkn9IXRYtO42o6lQwJuxgFEIrzcngsepBhHzR5XMI0oR8M6xLfBQICAYGAQODnRMAsJQO5LwLcs3BaG+nU2g1+PqbjFdn2D4DDoQQkLi+AE8OfO/TygFuUO+T6QZQt7SDvpmuyjWsXWJaXoIIhze1y+fdmATIWx5JNo3FyLpE0nhUZZ4uglHdFV4Pgo01AtIrG0v+ex9ImN8QFgYBAQCAgELhTCJinZBgfvauvH5zy1dZMF8/ecG+83GFcPgYsDFvVE8Vnc1GcloernzEK7ekoRLzQB8aiZ6sKkXSHRBmjsZos7XwR8vcH4ay3BGO8MnFVICAQEAgIBNobAubvLlNZM1QNZloxDQ2V2cEpsg98pw9H5ExvgMpGChrakOpKUJar88NV5JWixsERtlJVno6QVV7H9RYCm1p7OpvMo62r7ApDdhdq2PPaW08IeQQCAgGBwD2IgPlKRmXN+JPLwUwrhmBVfJ+A7CO5KOcifDV3duWfvo4aJyqQRvZTNQp3J5DNtBwV6SnI+LYI8ihfOEiWi09veAVVIu+9/0GRWoLKwhKUJKcj413m10b392ee3uo8eWnMc70cJeTlyD7emPAJ0sL/9BF45DnyP9yDHSmaJBAQCAgE2iMCZrrLNKLLfXCfv/nNsOhUi5JvTyE3rhw1dTaQ+/RE73lclNd3fVm6wj1ciZx1e1B+0wZ2kQMROt5VQ5dsB4+5MRJ1HHLf3YcMzTZoh5De6N6wC5l5nmeeuAQo3tmHC7SSbNzduYU50HxBRU6BgEBAICAQuCMI3F0+GdU5mSJ4rYqBh+l9BHcEAFGoQEAgIBAQCNw5BFrhLrtzQoiSBQICAYGAQODeREAomXuzX0WrBAICAYFAu0Dg7rrL2gUEQgiBgEBAICAQuFMICEvmTiEryhUICAQEAgKBFkOP3Rvw5CXj1OtnUKEKEOAM31fHwMdEOJx7o+GiFQIBgYBA4O4jcO9bMh5hiNo4A0NfDYPdnW5taRqS5+/CBXEQ5+6/2UICgYBAoF0gcKeH3XbRSCGEQEAgIBAQCNwdBFp3GPNuyFiai+zYBFz+qQTVPNCp4oqZMgS+fXQnOqvPJuPCrnQU5fG0ZhdnOI+IQK/R7vqB/k1KbroM0gzEn0T2wTyUFdXCsivriYlAn+E8OFqYgtPLElCuiY5TvDoWeVKNVu7o9TfdGaCazBSkfZKKIoUkJ7l1BvP58Z56cpbj4uo9uBoYDS9lGnJOkkOnzgq2I4YgaoK7rg3KUhQyNo/MyRX2ghrHZN+KDAIBgcDdQ8AsJXOrfDK336xaFO48ipyyQAQtjoGDTTUqsnJBZhtpBFcVX5eegOR3c2H7q4EI7+sI5GchY9thpNqOQdjQpsQCxmQyp4zyvfE48w3Q/fHh6N2bgdWu5SM39QZq4Aobl2BEbgwGJHfZklTY/mECehlGRijNRtq/klFxfxTun+MOK9IYpFHOFNtx6BejL2ctqr4/g8KYqP9v71zgoqzSP/5bQMbB4SI7gwSDAoMiiHHzApWIxmpquJaSq7lZmZau7t9NW1vb1c3ScleLXcsy19SWMiOLJDWN8kJKanJJhFAuKgMRTMhNcMhh/887M8Bwk3cQ5eJzPh8/De97znPO+Z7pfeZc3ueH4esV6FNNejsFTaORauKWIPylZEyJPov1FOyAExNgAkyguxIQ5WQ6qidz852uRe0VHaycB8DRRUqhZqT0QKcZQIPhWvx0KAvXR4yDzzhnQyga+XCoxlxEyqnLqBnr23a0Z3Ns/FKA/K/LYTs5EkPuMToEOQmpeYvvYS3FXCuFC3x+5wV7YfahCIIq6zLSjuegKoL2i0xNUZRr7/qZmETRoKUjvjbOyQSYABPoHgREOZmO6sncfBel6H+PCy7FHMPJAmc4eDrC3s8dzn72BoeiK0dVoQ61aQlITGxWm+IaamnCI21PIkCMjZ9LSdZZCgdvcTOj1vpdU0QRPX+tgo3J8pZsINk7UYZrv5B2ToPGjiUkdPztRkoK8pk7kT6ztVr4GhNgAkygexEQ52Q6qifTCX2VhozFaO8SlKYX4UpmPvI2Z+DHKRMRPMXRaN0SsumRCJ7QcQcgLL3dvI1O6KzRxK/6tOcZO68utsQEmAATuJUExJ8u66ieTCe03qK/AvIxwzF4wWQMC5OimhwObZ2Tb7CHzAW4ll0EEtK8cdI/t3X4H80amiQxNn7tSDOQGlRm1esLtFGVhVAJTZ8E0bVmSepETlA/I2q8UXVZmN04oK+pUmjzgq39XVMCdUEJKk11eVrLx9eYABNgAl1MQLyT6YCezM33rQbFpDWjTqNTVldqUJN/EcVZNbRHQ2JmeuPWGHC/F/pkJCMj7iLKS0iTJr8IxYdOI/NQSdPqhZNYsiqUHKODA2Srtv4omBgbfVzhNt4elfuP4cK3JVSe6sm9iIsH8ps6NylJSUvpFFoKOT2tDnUmDs060Iv2kgqR96GhnVUpycj5tgayUPem+zEioGn2LscDE8fj5eZLhCLKchYmwASYwO0kIHK5zNgkM/Vkbr4jlrAi5cz82ATkldaizloKmZ8/fB9xNerNABbedArrGWvk7j2D9IQa1FlJ0XfgACiaL5/1cYb7LG9k7DqG04dptuE2HCP/6g8baqQYG7IpERjeh44wf34YZ94TjjDTAQQ6AdYEIB1ZdnvEA5V7DiMpgeowPcJs5w6fhdXI+ugMvl9N8zAplQ8Pg9f9dCKOExNgAkyglxLgAJm9dGC5W0yACTCB7kDAjOWy7tBcbgMTYAJMgAn0JALsZHrSaHFbmQATYAI9jAA7mR42YNxcJsAEmEBPIsBOpieNFreVCTABJtDDCNxRTqY8Ng6J0RSG5lYOUto3OL70KDTN38e5lXW2Yjtz43gEL4xFZSv3+BITYAJM4HYRuKOcjLX7QMh9jSFpOkC47IM9SNyUfWMn5aiAYoQz+nYxWdvhE/FgqNcNw9N0AEGvLJK6jhzyYnbIvXJwuVNdTsC892S6vLk31wDpyCD43JyJ9ku7eWPInPaz3eocygkr8OKtroTtMwEmwATaIXBHvCdTFRePMwfKDSh8RuLepd7NdKd1qEo8jewvLqOSoj6jnxS2fn4YMtdL/7Jm6faPcPbbloFrrMdGIHS2Uecl81skRWcbIgBI3DBs41jIm4WLaV9PxtBEbSWFjKmWwHaAnTGyQTujaHI7941JmPp2juHKmLVIeisKtib3NR/MxcRdSiyZWIJPPk1GQYUdAuauRfTi0IZ8miPrsWJ9LFKLAc/7FyKiNho7pJuQ9Ep4gyVhOW7OD4/i9YhcvPPOXmSWAbZBS/Hu1nnwpFza/EPYtP51fH4yB5VWSvhEPIkXVs6BD6kk6JNOjYToNfj3p0nIpXdTbZ18Mfrx1YieSZIJ+qRF7qdrsPadg0gt1MK6vxK+4Yvw4t8joTTmQH481q58FZ9kVMB26FQ8PUqNDV/4YtvnKxAgRPih+xs2xiAhNQMlV6gOj1A8uGgVlk8wWDj2txFY9GlFvbWG/ypn78YXKwONf1cg9b0XseH9o8gsonaQjdlL12JJuAKVHy9A+E5fxMQthU+zcHOa3cT5k9GI3b0IdonReFnoR7YamloJPIOmYu6yFZg+lOJW6DKwafpMHJsSh9j5qoY2aD5dgIlvKPD6/rUIY82gFmPEF3oOgS5e1Lk9oGTTIjF2yxy9bkurHS4hMbHdBegzYRxGrJ1GSycj4XRX4yTP8YlH9OX9x5LcgF8I7qXPwt8NDkbohk8IQoXri9xh1Vol9Xoyrv64+8VpCJztitqvSU8moWU8tMTV4xE+YQk+pwe3uclz8QGkp59H7BPKNh2U9vJBJPZbive/+g5H3pyIku1rsOOcsab8GKx4LhbaBzYgdu9uLB98ErsOtx4kTZv+Ljad8cHy3d/hxJEDegehjx5ddgTrnlqJkwOeRPRHX+Oz7c9j9MVoLFxzqGGPqHLvGqz4FHj4tQM4sv8A3n+Rxkfw6PWJ2rHq5STI523FZ199jdi3V2Cyp6QxjI/wcP7TSnwpexKbPz6Ad+fbYd+HSeSaTFJFObRDZ2Dlm3H47FAcoufYIuEv87HpB0OesJe+07OKmU2swskh02fh70YHA+Run4+F71dizF/ew2f74/AW2dhHNrZkk9MKCIBrUQYyWmx8aZGRfo5+qATqHW6FRgvVb1cg+r/U17j38LRHMtb9YQ1OCo219MWUKSrk7otHplH0DijBl/uToLh/BjsY0/Hkzz2SQGuPwx7ZkZtqdCnJAtTJYD9MAWl/KWwGucJlgrt+FtNZqV5PxkPQk1HIIAskPZkQKcoFPZnOqkSkHYntRMyd7aufudgGRyLMSY3UTMMv+twvPkaqPArLF4fD01WF0U8uxXSPNgxbhuDpv5FzkEsgsVWSEydFT8qq3v8WPpfOwfqVUQjwUEI5dAKWPDsVfY/sxTF9ZFN6jP5E0yQSexsdrIR8gBKeoyLxeGT9LIYyaAqgJkG4gDGBUMoVZCMc0x+boH9o69P38diXp8LjK+dhNNXhGb4USyYr6u8a/jtsDl54Jgphw1RQDlAhYMYiPOShxsnkZnHtmpZq/EuXhJ07czD6/zbg6XBfKIlHwIznMd8vB/u+yAA8fBHY7xy+zxSK5GDPSy9gR5rgOdTIzNTCN2CY3pbnQyuwZEY4Aryor27kVBY8ioCyZJzKM1TlOXkGAgoOYp/R+UH4nKzElN/Wz6Yam8SfmEBPI3BH7cm0OTie7rhLmY2cV+Lxs7cCMndnyEPcYW/XZgmzb4jXkwEiXjuLdLNrMKMARbVW1I+8JS3L9aPFqWrBydhBnasGVL5Q1S//WKrgQzOI1pKEHrJDTdfijJlyM3OgzU7BVP/NTYtZBqKilC650oN3Ij1YY9bgyQeTMHp0EAL8J+DByYEgf2VIvpGYNXQvNkyfhIR7QhFAs4IIEo3zkRtuV17MQYl0GDwpCrchSaAa4gXJCZMqKzOwa+N67DqSjFyaTdQnn6tCX5s5JJNiDR8LM5BzhZbL/jwCfn9umsHWlZZfLYNwt08FPkwnZs4H8enevaiQzMDjnmqkXVLB38/wBdLmxWPTP7bhc1q20zTMesgxGh0uXCdi8oj12PpZCpYPC4T6EM1qPCKxxuCjWmsZX2MCPYYAOxlhqPoo4L5iOpzOF6L0QhF+PpYE9ddqDPvrfZDfjExNd/0aNNs/6HAz+9qhbxuFJeEbceKNyDaX7OAxB9u+DEdqYhJOfncUn/xjJrZ8tRaxb0QZ9lwkgXj6va/xmzNHaeaRgsRdK7Fl5xFE79mIiEZp1DZqFy5rcWzjfGxInYg1/9mECC9hf0uNHTMnYV/DstQNitffslLh6Q8OYEkbD/xAfxU2ZKZA3T8ViJoDZVoSzWI0yLULwtyBZISW9d7540ok+KxCdNxUBAwgL1oZi0Xh0SaVKzAhciztH32Mk3+yQyrNknymbmyctYloJmdhAt2VAC+X1Y+MpTVsfNyhnBoC/+eD4FBViJKLzYZN0IvRmfOEaixvjp6MtsygF9P6Tsit/SopPWnBK4d+wdd3U5eDzFzzWuLpQxvYdBDiZP0v9baaLKUltglReHrlG4h9KRJIOoo00zKWdvpltFnPrMLmXasQVnYUiWcNxmzdVVDUZCO3sN64Fjnns032ZGjJKr0CPg8/iSl6B0NJm43Mglb6IvzUam1Y6TCCypaW187QTKWN5Ok/DBLq64cnijF64qMYY3MSnyScQ7lPIHwFZ34lmQ4uKBAxl5YOBQcjpNxc5DZ7Wct2HO2/6I7gk5iPsS83CFMmNhxvaKNmvswEegYBdjL6/+kzcGHfRZQVVqGWNovLThTSPok9ne5qOoiSAXQ0Kr8QxUUkO/ALPZVaezC1Me7m6MkkrhmPByYv79DGfxvVi77s+QAtY2liseGtI8j9ifZq3ovGnnzRxfUZlZPnIQJ7se4v23DsBzXUeRk4Gb8Zq9fF0lzCkHI/jcYm4WQZia9pCjLw+VcpqHXxgme97nRaDDZsjUdqHt3X0IN+75fIsFDBw91o4O5ITPHIwI7125CaX4LcxLfwzkHTk2K0jzNQgpxTNCsVxklXgpNvvIWEFpv01N5BbuQUj+JQXgW0gg+qH1dJKObO9UXmW8uwNj6F2qpGbsohWoJbhi1Jxnb4BMC3eC/2XAjCKD8lRo+6hs8/zYDS37DnBVsVPB1KkHqClhCFIrSEt+MN4tD8uyMNxcP3AwlvbEPB6Afxm2bfPWNt/B8m0OMI9P7lMvq1e3bZtyht+J/6NI4/fZoGSgaX56ZhsBd97GuJ6xlnkfklORk6qWylUMDpiXuhbLZsLw0JwkD61Zr38ke4QG/0Nx5hrsKl9XG4mNs4/ucWx+j/kE0laegppBlzO/RkKuNpGWYZjjX8WH8BoX4vUCuUePz9r7HcX8T304027P9ZgBWvLEfUdto+uX8pZo1Jwg5zvikOE7Bmx0a8s3EzVv1+PTS016McFITRDy8k121I1v0qkPnOC/hgnRqVdTRj8Z+Kla8vbDwK3E+CyqTNWLpzpX4fQy4cP35lIx4nf6BPdCpryevrUEFHmOc9GG04whwVhNQEGJfo7DBlxTpk/vVVRI2Nhr2tAoIDneVHDq8ZBvlkOjSQtBIbZozAamJneoTZ84mt2CZZj02b5yPKeJRaFRSOx+snGg5B8PfQImVwiP7YtOSeINi/oaY9JprNCYkc1R9fWYgVLz2G8PclsHdww5g5cxCWHNusFRKMnjoVio9jMXTiRBi3nprl4T+ZQM8jcEe8J9PzhqU7tbgEe+aPx07/3di72OT0V3dqorEtuW9PQ9TxGTj43zk98iFdeWgZJqwBXjpA+06tHKjohsi5SUygXQK8XNYuojstA52mio/HyWx6IVRbAXXCW9iZqsJvIrqfg1EnxmJfSg40NVpUZsdiy6c0g5gU3vMcDHHW5B/BlncOwZ5O3Y1hB3On/U/Xq/trziJIrwbBnasnoIXmLO2HrF8JNS1T2Q4MwvQX38CSod2QkOZb7Hh5PVYV0V5Mf3qnZ8YGrJ/Z8zbMc7c/hqlv5UA5ah5eXBLa9om8bjgE3CQm0B4BXi5rjxDfZwJMgAkwgQ4T4OWyDqPjgkyACTABJtAeAXYy7RHi+0yACTABJtBhAuxkOoyOCzIBJsAEmEB7BNjJtEeI7zMBJsAEmECHCXT/02UVBbgYk4wffyinSMnWsHZW4K6oMLh7Nwbgqk1Pw4W4bJQWUkySfo5wHB+EwZOcTVQhhZcl41HsRVGCtVnIP1WKmjpL2IwPw0iKZnJh1WFUT5imD+Vfn6r37ceZ71wRuNqfXtsE6ijGTM6HZ1GcVY7rFlKKouwHr9nesDeJHSnIO3+fTwElA8tx6WA+qujQk7WXP4Y/66u30URPxlqKvgM94PFUEOTNAnHejJ5Mh78JXJAJMAEmcAsIiHIydTU/o7isGrr/NbbAso895Aq7ZuJfnd1CHTR7jiO/0gs+z0fAzroW1XkFoJZQRQYnU5edjLT/FMDmtyEIHE7vkxflIWfnMWTaTCanYRrdUodrJ85CEzESw9cr0Ke6FKUFFMPE0h6K4VKcPXMZtWO9jY6pHMUp5egbGKJ3DqjKR9bGU6j2C6Kgmc6Q/HIFhR8kIeO/Nhj5lFsTBnWXz+OSjBzQChIB61uDiowqQ0sprEneu2moHhqKwAUDYHm9ClczKeR88/AiVJ2gJ7P0qyC8eHQnposKBtnZ3NkeE2ACTKBzCIhyMhYoh/qHH1Bm8kDsN+g+0KTiFqda1JJSpZXzADi6kGAYpLCW26PxuVuLnw5l4fqIcfAZ52wQJJMPh2rMRaScuoyasb5UwiS5DoF3/QxHQqFj+hvuOYxwheTf+dBUeMNFmFUUXcbPRTIonnTUZ6j5lkK0S70ROMsLMr1vk0E1rQjFb9LsSesGpyaR8OVw+z3NcPQVy+AQbHR0daRZQzObvl4ukMmFAF1SSG89QH37OTEBJsAEuoqAKCcDqTtUznk4Ux/B1soJHoM6UWylzd5L0f8eF1yKOYaTBc5w8HSEvZ87nP3sDQ5FV46qQh1q0xKQmNjMiIIe6uQUpQ2rapaQDFKYLKGZ5PdwR3+7BJSk1MCFlsyqz+Sj2tkdPkatkqv55agrLMGZRcYQwPVFLRWoFQIumjgZi7sUsG3i2YyZ+wzAXSEynIuJx+lvB8DB3RH9g71IxKo+ImRje265nkybvPkGE2ACTKBzCYhzMvRI7+/uAYciw2ymH80InFs+Gzu3ZUZr0pCxGO1dgtL0IlzJzEfe5gz8OGUiBZ00zDKEZTPZdApCOaF94Zdf9Wncx2nSWHIWTv5SfC8smd3njJK0ctgE3ttEGVOQXQ5d4tX+8iDV0Xot1nCcHYnRYwrwc+ZPKEvLROah83D+v0gMNtlfuiUQ2SgTYAJMoIsIiD9dpp/N0E/02zaLaSRiQUqO8jHDMXjBZAwLo5kGORy97Ajtp8hotnEtu6hR+72DIO1HDYTkYj6Ksy9DU0j7TcH18YLpLIEbfb6sQUUrUiTmVmft5oq7JgTB57kIuLnU4Eo6KSw2S12pJ9O8Lfw3E2ACTOBmCIh3MvrZjCdpdNy+WQzthqB4bzLUaXQa7EoNavIv0umuGtqjsTeuUFljwP1e6JORjIy4iygvqUJ1Pu2VHDpNswTaVDcnKd3x6/4ltKGfg2oXNyicGwtLQ3wht8xD1jY6OJBfhZoiOjTwLUkDfJBNhxBEJm0BLn2YgeJcOiVXUYPqtByUaSwhdW05A+tKPRmRveFsTIAJMAFRBEQulxltSQdhqKcou52UyRJWdeXIj01AXikJhdGxX5mfP3wfcTXsyVAtFt50WuwZa+TuPYP0hBrUWQlHgwdAIWL5rEkjLR0x4G4Z6auXQzbNo8lSGWRu8F4WirzYs7jwzzTjUWpHOIT4t77H01rvLWh9sSwfF99Kh/YqidbQUWuH8ffCO+Q2rTu21ia+xgSYABO4xQQ4QOYtBszmmQATYAJ3MgEzlsvuZEzcdybABJgAE+gIAXYyHaHGZZgAE2ACTEAUAXYyojBxJibABJgAE+gIAXYyHaHGZZgAE2ACTEAUgd7vZHRFOP/cLpw93UqQMFGIOBMTYAJMgAl0lEDvdzIdJdORchVZSFschwu5HSnMZZgAE2ACvY8AO5neN6bcIybABJhAtyFg3suY3abZHWiIJh85r6WiMLcGFgo3eMwPhYtLHIubtQAAIABJREFUfZQxHapOnEb2vsuopKjPFo4Uy+yhEAyuj6BM1d1QC0aTgTOrklFlXJErWx+DQqGJls4Y/GqEIbJzezZMusR6Mh0YXy7CBJhAtyQgysl0nZ5MZzHToeybPNg+EobgqKso2PkNcuKc4bTIEPCyLvM0zsYUwY7E0IJJW+baSQpLs/0wLOSRUA2iNrSnBSP3RfBmX0BYLluZCZtnp2Fw88gI7dkw6SrryXTWuLMdJsAEupqAKCfTdXoynYen72h/uPsLkZsd4TFGgaIDV/QzDwdLHUqPX8b1If4YTJo0QpAXmykjoUyJR+HxInIyFMSsM7RgOsNG5+FgS0yACTCB20JAlJPpOj0ZgUEOtsychk3nDCGQJaGrcHDrHMjNwmOJvk6NUZUtZH2AX7So09uowdViHSSDHU3ikNmjH2kZ1BaT1DKcYWWGFkybzTLDBuvJtEmRbzABJtDDCIhzMl2oJwOoMPu1OPyGYkrqkw2F/e8I5NZFXkRa6gwtmM6wIbK5nI0JMAEm0E0IiD9d1oV6MrauKnh6GP8N6GxFTin6OVlCW1BqoklTjqtFtbCm2Y+pF25XC8ZC8GS0BmeYIrU6xO3aoFKsJ9MqOr7IBJhADyQg3sl0iZ7M7SBqCceQgbA6n4kLh4tQrSlH6YHTUJNwmVOIwtAAsVowUhmk0lqUpZCImlaHul9M2i/WBhVhPZnbMe5cBxNgAreDgMjlMmNTbruezO1AQJo0fqRJM4uOMH9xDKdjdbASjjA/EQYPT+Mam1gtGDqy7PaIByr3HEZSAs1oTI8wi7Vxe7rMtTABJsAEbgsB1pO5LZi5EibABJjAnUnAjOWyOxMQ95oJMAEmwAQ6ToCdTMfZcUkmwASYABNohwA7mXYA8W0mwASYABPoOAF2Mh1nxyWZABNgAkygHQLsZNoB1NtuJzw7HH5+Q/T/Qv9ypEX3NLvnNtz3m7QeqR2R4TkXjanBc7FL08J8N72gxo5HhyNqa043bR83iwn0XALsZHru2HWo5fqQNennET1Z0mp5+cyd+vtJfw9H6zlaLdbDL9rBc8xURAzu7Bd9OxlLwjIEh76AYx1x/J3cFDbHBMQSMO89GbFWOR8T6FEE7BD2zFqE9ag2c2OZQM8gwDMZMeN0bj0eCJ6J1f9ajKiJ9yL0vvGY8/d45BpidgKn1iA8fCYWPTkeoaGTsPq9bVgROQLBdG1LmjFTezbEtEPIU5OBPesWYGr4cAQHj8ADMxdjy6mKxtKaJGwhqYHwkbQkNvJezPnLNqRWijUuLp8mMRpLfz8J4aG09EZtmDp/Dfb8UA+j3sY1FOx/AXPup3YK7fhbbCOv9qrRHcLSkeMxb+lM6scIzNkYgy2Lx+vtLNptsqTVbl+1yP30BcybRGPhPxyh4ZMwj8ZN3VB/CXY9aVg6FJYPWy6XVWDP4uEIX7oea+dTf+8bgfDIBU15t9cXaLGPlijD/7wZO/48DQ/cRzzoe7E2oaRJSU3iZiydeS+1cwiC75+GpduTUD9s2vgFCBaWOJfGQ1sZi0WUR7/kOWMzWIS13QHgDF1MgJ2M2AG4noKjeWPx+t7jSPp8LQJSV2Lp2xmNpSu18HlmK16aqMWeTcfg8+purBmlxq6PkxrztGej3baosefZx7DulC1m/SMOn+2Pw6tzvVBZUP/Aovr+vAA7fgrFX3d9jS92PA9VZjQWro5HZ26PVGi0UP12BaL/ewBH4t7D0x7JWPeHNThp6meor7v2SfD4mwfw2X8WQk6OeNG/UuiRKzLVUZ/8V+OtFSHIeS8ameFbEfOnYUiJiUemfrlIRF/zY7Dq5STI523FZ199jdi3V2Cyp8QkRp0Cs949T8uDX2O5f9uLg5rEJEjm78aRb47j3bnArmdXYp+ZQDWHD0Ez4z188c13iHkU+OTlaBwzwtCmrceTf46H5OENiN1P7Xw5ErUxS7DiY8O4SiLfwRlawkyPjoTENgqb04Q207+PF8FTJE7OxgS6igA7GdHklXhwbhSUwrPIIRSPzwqiX+ofN26MOwzDqGAVxgR7QeIciNFDVRgdQA6gqKThFynQjo322nLufWw9ocDjazdi1igVlAOUCJi8FMsfUhlK5u3FJ2kKTF++AhFeSiiHRWLl4gnA0Y9x1MyH4o2a4vnQCiyZEY4AqkPu5ospCx5FQFkyTuWZllLgwcXUjqHUDv85+OuTQSgx5XWjCoR7FtS3UF/4hAZCZUUsx6jgE+QLBSmcFgj3xfRVU0CuSIGAMYFQyhVQDg3H9McmmP1glox6FE+PEvZrJPB86An8RnIUnxxpOhNprzuS0Y02fB6YAJ/Kc8jUy6dWIGF7LComr8KamaHwdFXCM3QelkcpcXL/wU79cdBeG/k+E7gVBO6QPZlO0KSxcoOrW+MQyF2UsNaokVMNBAiXrez0G+USCcme0T8JhT2TWNOVa1r9r3dbfZ4b2NBnuHGqzMxBiW0Q/Ie2kU8tPFS98DuvxvsSb18SS3gfecKTuUMaCS3r0ubFY9M/tuHz1AxoGpbi6OFYY5LXSkmx3xpnB3KKom1bmYPcK8BoUe2QQMBHQCGx6Gv8TFyvE8/rdF1MX30jMWvoXmyYPgkJ94QiwC8QEZMj4SOq/sa+2NJYNwyPJY2hCwUxzRUW3YwBVFsianHFVm5iQ0p9om9FrfDF0KmRmVUBTf5cBO9uVsxDgxKatclvSqaiRVP4AhO4rQTuECfTGZo01/RR/Fuk1q61+VAww0aLirrJBV0G3vnjSiT4rEJ03FQEDCBPIOwThEd3kwaaNEMSiKff+xq/OXMUJ5NTkLhrJbbsPILoPRsR4WBGc5uP8Q2kHMywavJ9kiDgzwcQ85jSrOKcmQn0BAJ3zHLZTWvSXFfjh/ONOwrq7GzUOiihEjEDafgiiLTRlp6MrY8KispkpF1o46uldKUFuWzkmewGa7MySFuUfn27Ni1jTTOEWm1t23skwiyCfmq32EO5kozUQgUiaOlQ72CElJuLXGF2YZqor3kNJyMATV4OKm1pttO/aba2+trMWss/xfbVko4nj6IZzTOrsHnXKoSVHUXi2ZbmbnRFk5PReFhAS3wvAa6ezRyCjmYjBWqTmd2NLJrcs1TCx5v0X8kJtns+g34SWuOayZ6SyDo4GxPoQgJ3jJO5ecYlOPR2NBKy1VCnxGBDTAZcp85AQJuzltZqFGejTT2ZYY9i/j0l2PH8C9hzKgean2ip5cg2bNlvPC/lMRUP+5dgzz/WG9p5Lh7r3jgEjJmB3zRbIvL1GwYk0x7OOXowaipQ2ezXuq2PL1zLjmD/QapHQ/tK9UthtiQe51CC1BM5BgdUmYEdb8RC3fzXPkz6mhaDl99NhmJyS15t9rU1fKbXxPSV6t2wNR6peSXUBzVO7v0SGRYqeLi3Z7zZ/e/fx4YPUmiFLgcJ/4rG5xiLh8ObLZXlxWDhZDp1uCnFTON25LDnQJH4KpbSWGXm0/frhyQkvLeGTimaHCwRrCrdoKilGdlhNbRacv8tmJtZNWdnAreBwB2yXNYJJK1CMT2iAluemoTMq3YImELLRc/4mmf4pm0oMf2194AN67GTjsOurpRA7hWCWcuijO1Q0qmzTdDQyaWXZ22jTWMFfMYtxVsrI1tsx8inrcLyM4vx78fGY61WginRZ7E+wqQ7Xk9izTMZeP6lSdhDP7GVs3fji5WBtEcSij++shArXnoM4e9LYO/ghjFz5iAsObYpC6tATJ9YgR3EK1Xg9QDNJP4vsBNf8BTR134SVCbR0eCdK/UzDLlHKB58ZSMer99bS3wBoQtjG2cQaZPg9y/qhjQSm7/diDDjDwj5xBlQJS5D1Hra7B8YigWvrcMUM/d1bvRFkQSuwLvRtvjn26/iye1q1For4OoXgimPNXNkXo9i+WMpWPe3SQim04wYuhR7+YTZjdDyvW5AgPVkxAyC8I7LYxmY/9VOTDdnLd/UdmfYENNWztOJBIT3ZO7FVhc6eiw4WE5MgAmYTYCXy8xGxgWYABNgAkxALAF2MmJJcT4mwASYABMwmwAvl5mNjAswASbABJiAWAI8kxFLivMxASbABJiA2QTYyZiNjAswASbABJiAWALsZMSSEpOvIgtpi+NwgUPjiqHFeZgAE7gDCLCTuQMGmbvIBJgAE+gqAr1/419XgMxlx6Ad5Q3LrDxUlOvQZ6AHPB8bCXnDC3U6VJ04jex9l1F5RQcLRwWcHgrB4GBZ47jUZOPsc2mQzA6G5amzKMouR51EhgFzJmOIWzbOrEpGVfM3sC2dMfjVCLiYCi7qtKikN+y1NgrIzQlJ01XfEK6XCTABJnATBES98V9X8zOKy6qh+19jTZZ97CFX2EGUgZtoYOcU1aH8XDWGLZ+O4XY1KN6+H5nb+iF4hS9sqIK6zNM4G1MEu6gwBA+X4trJ08jcfhgW8kioBpm2oBYl+7LgPCMMo/8gQ11RISrq6LVwuS+CN9Pb/8Jy2cpM2JBo2GDPNlqetw1PTo9G5UzjG/RtZOPLTIAJMIHeQEDUcpkFyime0llkZjT+yyujyPU9iIDsnuGQC8EZLaVwmuyFvvk5KNbreehQevwyrg/xweBxzrCR28NxykgonctRfLyoaQ/rdLAeHQJVoD2s+ljC2s0N8kFmBS/rQcS4qUyACTCBmycgyslA6g6Vc6M2CKyc4DHIdA3o5htyay2QQ3AyWfr6tT36ogpXfxLWt2pwtVgHiasjRbitT/bo52yN2uJyNAkubGENmaf9zTXVaxFiSdmQw5TcHEYuzQSYQM8gIM7JwAL93T3gYPzR3s91COgZ3LOS6X5JHbmODmmCWMKyT8/qNreWCTABJtCVBEQ6GWqifjYjpTWynjaLEfDqUFNQ3sj5xwqav8jQb4DgNaXo52QJbUGpiU5HOa4W1dLsh5bFzBkdC8EeebMbObCO6o6Y0w7OywSYABPoJgTEOxn9bMYTyoE9cBZDsGtOJONiejlqigpwcU82tIPc4UQyurRJA8eQgbA6n4kLh4tQrSlH6YHTUBfawylEvLyufjylMkiltShLKSK9Lx3qfmlllDusO9KKLb7EBJgAE+jmBMz6oQ7pIAxt69RUt+4oOZIxA0gl+CDySTRd4uUFnyeG60+WCcnCbySGz6IjzF8cw+lYHayEI8xPhJFGvZmb+nRk2e0RD1TuOYykBJrRtHaEuVtz4sYxASbABDqXwB3znkzd7x/BsGAznUbnsmZrTIAJMIE7joAZy2V3HBvuMBNgAkyACdwkAXYyNwmQizMBJsAEmEDbBHr/clnbfec7TIAJMAEmcIsJ8EzmFgNm80yACTCBO5kAO5k7efS570yACTCBW0yAncwtBtzdzGs+mIvgadHIbB4xurs1lNvDBJhAryDATqZXDGPndyJ13XgEL45FZVumy2IxL3g8NpxrKwNfZwJMgAnQe4gMgQkwASbABJjArSLAp8vEkM1Pw+n1BXCYpsDVIyRsVkZRA3z94D3PF/bG4NS1aWm48AWJohXUoJY0ZqSeA6GMGgkXN+EF0Bqo/xmHH/s4A/lFuO7qC7dBRbh0uBR9AkIx/Cl3iqBGSVuKwlgKaZNSihqtYMMDbrODcJdzs5dItRXQlGkhcVDA1iQ4tpiuCMtlE3epsHJWOT585xByryoQMHctoheHQtBQO/a3EVj0aUULU8rZRv2bgm2YM3k9Upsvt1mG4sWjOzHdgYqeW48HHkvG6McUyNifAvVVCVQRf8Kav0TC08z2tmgIX2ACTKBHEeCZjNjhqiuFJtsOQ/42HWNeGgXby2nIO1rVUPr6VR36hgTD9/lIjFo9Du7OJch58zRKtfVZdKjt6wafP/hBmnsWhVW+CFzqC8vUDBRrhDxVKHwnAXk/KuD+h8l6G25ORch+IxllzWKgaeKWIPz+8Xg5UWzjm+bTFu7Fh+dD8ML2OGxb7oucrWuww7jsFfbSd0hPP4+Y2UpIwtciiT4LfzdIE7jOQwxJFaR/sxajJUo8vttwPz3N6GDqq7qegqN5Y/H63uNI+nwtAlJXYunbGR1rMJdiAkygxxJgJyN66GSQT/CGjfBLvL8bFN6WqLx4pSHgss09QVCNdYO9CwXJVFDssweHwK6qBFcadM8s0c/LGbJBzrAlzQSptwtsPAbAVkozHxKAw6XzKMiyx6CnguBEmjWCjbuihsOx6jKKs0U3UlxG6xA8vSIKAR4qBMyYhwed1UjNbDl7EWesrVxKPDg3CkqBl0MoHp8VhIL9H7ecAbVVnK8zASbQKwiYFyCzV3S5g52wkELaoNNmqVfGRE3jmlFd4UXkfHQWmtxyisBcX4cUNiazkF/1IREey1q9Jo2FUZfmV3Tp+jX6RwJp1b/Q7Of5GOQ0a6JjuVBP45KZfOZOpM/sYD+omETuBdd6PSBLO9jSOpm2WnAynShEZ+UGV7fGNspdlLDWqJFTDQQI63KcmAATuCMIsJMxZ5hbxNc06mbqSpC3OQlXBgbB90Uv2PcXHFA20p5Lw/+a713coD4LmTuG/eM+OLao5waFOnLrVtvXt4k8Z2t9b+1aR/rAZZgAE+gRBHi5rDOG6WopHQaQon+Et8HBCDZ/vALtjcTLmtVr5WoPSc0VXFGLaFBNCdQFJahsmDGJKGNuFuHnRzsOQb+HX9uG4etq/HC+sYHq7GzUOiih4llMG8D4MhPonQTYyXTGuErtYSOrwdXMUsMeDTmBS3F5pqtp7dcyaAiUPjUofPcbqDNJXI3E08rTspHzn2QUN54v0NvR7F2OByZ2fOO//cYAykG01pV5FIfyKqAVfEVzh2OrhKtDCU5+nQRNjRak0dYsleDQ29FIyFbTabkYbIjJgOvUGQi4LbOo5m3hv5kAE+gqArxc1hnk6Wiy+1xfZL2fgKQjlugjs0f/cG845JqzYy+Dy4IIYE8yCv6zHzk1pHTd3x52w4ZgQBcc+5VPXoolSSuxYcYIrCYn03CEuZ4XHVmeuywKmf9agPDtlMH0CLOQxyoU0yMqsOWpSci8aoeAKasQ/YxvZ9BmG0yACfQgAvyeTA8arB7TVP17MhmY/1WzY809pgPcUCbABDqLAC+XdRZJtsMEmAATYAItCLCTaYGELzABJsAEmEBnEeDlss4iyXaYABNgAkygBQGeybRAwheYABNgAkygswiwk+kskjdrR1eAzGW7cPZMi7PAN2uZyzMBJsAEuowAH2HuMvQ9uGLhZdD3TyM/vRS1tZawHuAMp2kjofKXNXSqrugisv+bipJLVaiTOUI+MQSDxzmCv3A9eNy56UygAwR4JtMBaHd2ER007x9GTl4/DPrjNISunQiVN71EuvU41Ppo0pSEGGxvfYOSPir4rIzE3VP6oTL2MC6ktRUe4M4myr1nAr2ZAP+wFDO67erJ6FD89ke4IA3DvXNdDRavZCH1b5mwfW4aVINE6slQybr8LJz7PB2lP+lg5eEF1eMj4aRobGRtOunWxGWjtJDe1uznCMfxQRg8yRn18S4FyYBL6+NR7BUKpTYL+adIm4b0bWzGh2HkNNKzqU8d1aTRUSSC/FpIA3zh4mmYuThFuKPwWDoqhYjTcupDRhaKSxyhXExRpIW2u4TCLXUPso9dxnV/L57NNI4Cf2ICvZ4Az2TEDnE7ejLtm2lPT0awoENZYj76TZ+IEavCcFefPGRtOYsq4zZNXXYy0v5zGbg3BIFrpiFwrhuuf32Mor80iztDdq6doIjQ/f0xfP0juPfFcRjkpZdFa0gd1qSxpGgGnlJos/JRplcHqEVVciGu2rlA4W4wX33pCq7bKWDvWF+dNexJvqCuQNPQF5Om8EcmwAR6MQF2MqIH98Z6Mu2baUdPxmhASro07n6kJ+PsCvfp3uhLEgI/6YNm1uKnQ1m4PmIkfMa5QiaXQeY3HKoxUlScukzam82S6xB40wxHKiFZgv6kb0M2OydZwnF2BFTOl3H2uRgcXfQRznwJDPpDKKhJ+nS9ipbFZNawqsjGuec+QmpCOazob1RpSTW0c1rBVpgAE+gZBHi5TOw4taMnI8bMjfRkDOVJzMy14ec/4GyPvhZVqC6mqYyyHFWFNBtKS0Bic0VMxTXUUhZpQ/BJS0gGKUyW0Fq2ruOaNDqUJ3yLS/lyqJaGwUFWi/Kjych98xtYrxgLp/71dVnAwlKCPv3J89hQw5qpe7ZsEV9hAkygNxJgJ2POqLaIIGzUk2nVRiceRW6Yb1pCNj0SwRMaT3G1WjVd/JUgqnYrkjYflw+UQjZ7HFx8DDtBNjP9UZZyGPmnq+BEbTPMWsjx9XPDkJUUzZlS9T5hdiODNc+db8WosE0m0G0J8P/ynTQ0FoK7/qWuQY4ZFfSQNXtpSIeagtLGFhWV41qdDDZO5DBoL0TmQlJg2UVtSriY1ZWOatJUa6Frxbda0jep7prh9JjNoP60VFaC8oau0GznUjksXOWQ3SLfZ1bfOTMTYAK3jQA7mU5BTfst7o6oy76EUmEzXFeF4i9b2ScRUVfNiTRcTCc9maIiXNqThWtKd9ylnwxYY8D9XuiTkYyMuIsoL6FltPwiFB86jcxDJSIsN83SYU2a/s7orwTKDpxCYTa1s6QUxXFp+OmqDI5+hqU+C19vODmWovDDs3QKjk6jJZ6id2qsIQ8byCfLzB4pLsAEejYBXi7rpPGTjgnCwPPHkfVXOsrcn14+HDMQ9ql0EsysZAmHMS64uucgvjMeYfaePxw2RhsW3iMx/Blr5O49g/SEGtRZSdF34AAoRCyfmdWMG2a2x6AFYbj+cRou/TseF67TwYIBCjg/cS88PI0F+yigWhyC//03HedeTgPsiEfUOAz2bzxofcMq+CYTYAK9hgAHyOw1Q8kdYQJMgAl0PwK8XNb9xoRbxASYABPoNQTYyfSaoeSOMAEmwAS6HwF2Mt1vTLhFTIAJMIFeQ4CdTK8ZSu4IE2ACTKD7EeDTZd1vTLq0RbWHDyLpQ+ORaLk3AtaMhD2/29KlY8KVM4GeTICdTDcbvbozR3H8v5bw2Xgf5F3wcLceNxFjx1GktKMJOHnoFsEpi8W8sWtg+8+ziJ5grEOXgg2TZ+JY5AG867gG4euS2qhcgrC1b8L19aewq15aoHlOj0WIjVsKxcdzEf5Sox2JgwoBEY9iybI5CLBtXoj/ZgJM4FYQYCdzK6iyzZsiIJ+8FnuDKqAVrGRuw8K/p2DsK2/gd/r3cCSwdVWi791xeFifoRwJa+diS98ViFkWSneFLAp4koOu1H8Oxwu7V2C0pRYVmYewad0aLKywR/xrkYIqAScmwARuMQF2MmIA5ybj1GtFsB3Xj8La/4Taq5boG+gPn9lesOnTaKA8Ng7f55NQV2A5Lh3MRxW9/W/tReH2n/WFEG3sem4Gsj7MRKla0IKxpxcvg+A91VUfyLLu28NI3F7QYOzcoouGz27DMfKv/sYXMnWoOnEa2fsuo/KKDhYk1uL0EClOBjeNZVZDmjO5e7NRRpozdRIZbO/2w5C51Fa9RXE2Ghpygw/ayhJUVtNDf4Cd4eF+g7xm3XJQwtPBWELrhL5kXe7pC5+hJlZsfY1OogIZ1H2J1Inu+zZph97JWNhC4aHSOx14+OKFgiOY+s4RpGojEaH3SJyYABO4lQTYyYilS3oypT+pEPj3sbDRFuHCxsM4t9ceI6ebKIqRrbrL53FJ5gevFaGw7VuDiowq6Fe9Ki4i6800VN89EnfPd4al+jyydh5Dhk0kLeHIYBEyDmNDqPwNlsvqMk/jbEwR7KLCEDxcimsnKaTM9sOwkEeSMJqhI3VZlOftPFhHjILffDmsr5Xj56OluEbxOoVgyGJsiEWSuHo8ln4VhBeP7sT0eqcgtnAX5bOWkGep00Jrdly5LmowV8sEejgBdjKiB1BKEYa9DTOXPs4YFOaIooMXUTZNAYcmeydyuP3eG/Z6jTAZHIyzjNo0UrOEC3x+5wV74Re0IgiqrMtIO56Dqgh//UznxkmH0uOkLDnEH4PHGZQwbaaMhDIlHoXHi8jJCKqXguZMNrS+IxEwzd0Y6l8G5RyjWifNYtq3ceNWdN5dLRKeHQK/ZgbrI9N0Xj2Nliqz47FpVwokvqvg31TD7VZUxzaZABMgAuxkxH4NLGSQ/roxs7WiHyyqylFNgYcdTB5YFncpYNvKA6ymiNQrf62CjckSjWwguZYTZbhGWisyk2W31ptUg6ukKyMZ7GiiE2OPfs7WqC0ux3U4w4qkkatIAtlmrKkcs6k1ETZar7zVqxGvnUV6q3fEXJRg9LLdWB5qzKs7hx1/eAGZYoqak6cmHkv94xtK2A6Lwpp1c0AxPjkxASZwGwiwk+koZEEuRlhyaS4bQzouXXAorKO96NJytq4m+yw6LRTkgDvdydDG//L3VyCMbFtT+GilA2/EdOmgc+V3HAF+GVPskNeVo7Kg0aNUF1aQjr09bFqZtbRmUupEs5afS0FyLA2p6rIwu3FAX9NZjDAidVRPiz0DKfqRroyW9GYMqi2CmXJcLaqFtZO9YUoqaM7Qqll1m5ozImwYW2chiJ6R3Ob/WuuM8Zq2rATqghLDKbAb5OvSW7TxrxxMG/+0+c8OpktHgiu/QwmwkxE98LXQ7E1GcT7puGRnIOfrUkhHusNO5LTFOtALDihE3ocGLZiqlGTkfFsDWah7k/0YCzk5netXUJJeheu/6PT+xpAs4RhCeiznM3HhcBGqNeUoPXAa6kJ7OIXUHz4gzZkIL0gy0pC5N1+vOVNTWIQf92SgTG9HjA1DbVZujuh7lcqeLkVNRQ2umzjH+hYlrhmPByYvx+dloiFyRibABO4wArxcJnbALUgzJVCL/Oh4VP1iDVlwCPymKiDaS9u5w2dhNbI+OoPvV9MRZikdYQ4Pg9f99k1b4DYEqvtLkL0zDscpG0yOMFv4kZ7MLDrC/MUxnI7VwUo4wvxEGOm4NHo6C596zZlT+P4LoR7jEWZjFjE29A13wRCLAAABqElEQVRy88HgKaU4/+F+nCIz1mMjEDpbOFzAiQkwASYgngDryYhhpX9PphTKdRFwsRNTgPMwASbABJiAQED0D3HGxQSYABNgAkzAXALsZMwlxvmZABNgAkxANAFeLhONijMyASbABJiAuQR4JmMuMc7PBJgAE2ACogmwkxGNijMyASbABJiAuQTYyZhLjPMzASbABJiAaALsZESj4oxMgAkwASZgLgF2MuYS4/xMgAkwASYgmgA7GdGoOCMTYAJMgAmYS4CdjLnEOD8TYAJMgAmIJsBORjQqzsgEmAATYALmEmAnYy4xzs8EmAATYAKiCbCTEY2KMzIBJsAEmIC5BNjJmEuM8zMBJsAEmIBoAuxkRKPijEyACTABJmAuAXYy5hLj/EyACTABJiCaADsZ0ag4IxNgAkyACZhLgJ2MucQ4PxNgAkyACYgmwE5GNCrOyASYABNgAuYSYCdjLjHOzwSYABNgAqIJsJMRjYozMgEmwASYgLkE2MmYS4zzMwEmwASYgGgCv/ofJdG5OSMTYAJMgAkwATMI8EzGDFiclQkwASbABMwj8P/n/9fvxeZWYwAAAABJRU5ErkJggg==;" vertex="1" parent="1">
          <mxGeometry x="460" y="78.06" width="300" height="316.13" as="geometry" />
        </mxCell>
        <mxCell id="zKgIJX_qSR_OyIrzCmwO-7" value="" style="endArrow=classic;html=1;rounded=0;" edge="1" parent="1" source="zKgIJX_qSR_OyIrzCmwO-2">
          <mxGeometry relative="1" as="geometry">
            <mxPoint x="380" y="240" as="sourcePoint" />
            <mxPoint x="470" y="237" as="targetPoint" />
          </mxGeometry>
        </mxCell>
        <mxCell id="zKgIJX_qSR_OyIrzCmwO-8" value="update&amp;nbsp; to" style="edgeLabel;resizable=0;html=1;align=center;verticalAlign=middle;" connectable="0" vertex="1" parent="zKgIJX_qSR_OyIrzCmwO-7">
          <mxGeometry relative="1" as="geometry" />
        </mxCell>
      </root>
    </mxGraphModel>
  </diagram>
</mxfile>
